<svg width="104" height="42" viewBox="0 0 104 42" fill="none" xmlns="http://www.w3.org/2000/svg">
    <path fill-rule="evenodd" clip-rule="evenodd" d="M52.0174 0C40.3953 0 31 9.39579 31 21.0197C31 30.3113 37.0199 38.1764 45.3711 40.9601C46.4152 41.1694 46.7977 40.5078 46.7977 39.9513C46.7977 39.464 46.7632 37.7937 46.7632 36.0534C40.9167 37.3064 39.6992 33.5477 39.6992 33.5477C38.7597 31.1116 37.3675 30.4855 37.3675 30.4855C35.4539 29.1979 37.5069 29.1979 37.5069 29.1979C39.6295 29.3371 40.7433 31.3555 40.7433 31.3555C42.6221 34.5569 45.6494 33.6523 46.8674 33.0954C47.0412 31.7381 47.5983 30.7986 48.1898 30.2767C43.5268 29.7894 38.6207 27.9798 38.6207 19.9058C38.6207 17.609 39.4553 15.7298 40.7778 14.2684C40.5691 13.7465 39.8382 11.5884 40.9868 8.70008C40.9868 8.70008 42.7615 8.14316 46.7628 10.8577C48.4759 10.3976 50.2427 10.1635 52.0174 10.1616C53.792 10.1616 55.601 10.4054 57.2715 10.8577C61.2733 8.14316 63.0479 8.70008 63.0479 8.70008C64.1966 11.5884 63.4652 13.7465 63.2566 14.2684C64.6139 15.7298 65.4141 17.609 65.4141 19.9058C65.4141 27.9798 60.508 29.7543 55.8101 30.2767C56.5759 30.9378 57.2367 32.1904 57.2367 34.1742C57.2367 36.9929 57.2022 39.2552 57.2022 39.9509C57.2022 40.5078 57.5851 41.1694 58.6288 40.9605C66.98 38.176 72.9999 30.3113 72.9999 21.0197C73.0343 9.39579 63.6046 0 52.0174 0Z" fill="#24292F"/>
</svg>
