<svg width="104" height="42" viewBox="0 0 104 42" fill="none" xmlns="http://www.w3.org/2000/svg">
    <path d="M64.1896 9.25906L64.1877 9.26019C63.9591 9.39296 63.7479 9.54467 63.5551 9.71224L55.9789 5.33799C56.027 5.08742 56.0522 4.82892 56.0522 4.56486C56.0522 2.31732 54.2348 0.5 51.9873 0.5C49.7398 0.5 47.9224 2.31732 47.9224 4.56486C47.9224 4.82696 47.9472 5.08359 47.9947 5.33242L40.4152 9.70853C40.2236 9.54242 40.0139 9.39197 39.787 9.26018L39.785 9.25906C37.8415 8.14183 35.3492 8.80388 34.23 10.7508C33.1128 12.6943 33.7748 15.1866 35.7218 16.3058C35.9481 16.4359 36.1822 16.542 36.4209 16.6247V25.3787C36.1858 25.4609 35.9552 25.5659 35.732 25.6942L35.73 25.6953C33.7866 26.8241 33.1222 29.3043 34.2402 31.2492C35.3596 33.1964 37.8412 33.8575 39.7941 32.7416L39.7972 32.7398C40.0208 32.6099 40.2278 32.4619 40.4172 32.2986L47.9936 36.673C47.9469 36.9202 47.9224 37.1749 47.9224 37.4351C47.9224 39.6827 49.7398 41.5 51.9873 41.5C54.2358 41.5 56.0522 39.6715 56.0522 37.4351C56.0522 37.1321 56.019 36.8365 55.9561 36.5517L63.4629 32.2176C63.6778 32.4141 63.9171 32.5902 64.1794 32.7409C66.1225 33.8579 68.6141 33.1964 69.7336 31.2505C70.8636 29.3043 70.1976 26.823 68.2434 25.6947L68.2426 25.6942C68.0195 25.5659 67.7889 25.461 67.5537 25.3788V16.6247C67.7924 16.542 68.0265 16.4359 68.2528 16.3058L68.2548 16.3047C70.1982 15.1759 70.8626 12.6957 69.7446 10.7508L69.7435 10.7489C68.6146 8.80545 66.1345 8.14104 64.1896 9.25906ZM41.287 27.1859L41.2859 27.184C41.1564 26.9612 41.009 26.7549 40.8464 26.566L51.2416 8.5616C51.4836 8.60637 51.7329 8.62972 51.9873 8.62972C52.2428 8.62972 52.4932 8.60617 52.7362 8.56101L63.1292 26.5617C62.9653 26.7522 62.8172 26.9606 62.6876 27.1859C62.5594 27.4091 62.4545 27.6397 62.3722 27.8749H41.6025C41.5203 27.6398 41.4153 27.4092 41.287 27.1859ZM64.8581 16.6133V24.1651L55.6881 8.28269L62.2218 12.0551C62.0548 12.9692 62.1986 13.9455 62.6978 14.814C63.1996 15.6868 63.9781 16.3016 64.8581 16.6133ZM41.7518 12.0495L48.2971 8.27038L39.1165 24.1712V16.6133C39.9965 16.3016 40.775 15.6868 41.2768 14.814C41.7771 13.9437 41.9204 12.9652 41.7518 12.0495ZM42.815 30.5705H61.3536L54.7041 34.4097C53.9847 33.7635 53.0321 33.3703 51.9873 33.3703C50.9795 33.3703 50.0574 33.7362 49.3476 34.3422L42.815 30.5705Z" stroke="#D9D9DE"/>
</svg>
