<svg xmlns:dc="http://purl.org/dc/elements/1.1/" xmlns:cc="http://creativecommons.org/ns#" xmlns:rdf="http://www.w3.org/1999/02/22-rdf-syntax-ns#" xmlns:svg="http://www.w3.org/2000/svg" xmlns="http://www.w3.org/2000/svg" viewBox="0 0 138.66667 56" height="56" width="138.66667" xml:space="preserve" id="svg2" version="1.1"><metadata id="metadata8"><rdf:RDF><cc:Work rdf:about=""><dc:format>image/svg+xml</dc:format><dc:type rdf:resource="http://purl.org/dc/dcmitype/StillImage"/></cc:Work></rdf:RDF></metadata><defs id="defs6"><clipPath id="clipPath18" clipPathUnits="userSpaceOnUse"><path style="clip-rule:evenodd" id="path16" d="M 52.017376,42 C 40.395309,42 31,32.604206 31,20.980328 31,11.688742 37.019897,3.823608 45.371094,1.03989 c 1.044113,-0.20927 1.426571,0.452278 1.426571,1.008766 0,0.487301 -0.03442,2.157616 -0.03442,3.897973 -5.846524,-1.253056 -7.064011,2.505687 -7.064011,2.505687 -0.939575,2.436074 -2.331726,3.062176 -2.331726,3.062176 -1.913567,1.287651 0.139385,1.287651 0.139385,1.287651 2.122646,-0.139229 3.236454,-2.157616 3.236454,-2.157616 1.878719,-3.201404 4.90609,-2.296844 6.124008,-1.739929 0.173806,1.357264 0.730927,2.296843 1.322464,2.818737 -4.663025,0.487301 -9.569114,2.296843 -9.569114,10.370819 0,2.296847 0.834602,4.176005 2.157058,5.637478 -0.208648,0.521893 -0.939571,2.679936 0.209084,5.568291 0,0 1.774605,0.556911 5.77597,-2.157618 1.713128,0.460112 3.479844,0.694174 5.254559,0.696143 1.774609,0 3.58363,-0.243863 5.254131,-0.696143 4.001793,2.714529 5.776402,2.157618 5.776402,2.157618 1.148655,-2.888355 0.417297,-5.046398 0.208645,-5.568291 1.357307,-1.461473 2.157493,-3.340631 2.157493,-5.637478 0,-8.073976 -4.90609,-9.848499 -9.603958,-10.370819 0.76577,-0.661123 1.426567,-1.913753 1.426567,-3.897545 0,-2.81874 -0.03442,-5.080989 -0.03442,-5.776706 0,-0.556916 0.382889,-1.218464 1.426571,-1.009621 8.3512,2.784573 14.371097,10.649279 14.371097,19.940865 C 73.034317,32.604206 63.604595,42 52.017376,42 Z"/></clipPath></defs><g transform="matrix(1.3333333,0,0,-1.3333333,0,56)" id="g10"><g id="g12"><g clip-path="url(#clipPath18)" id="g14"><g transform="translate(31,0.830627)" id="g20"><path id="path22" style="fill:#d9d9de;fill-opacity:1;fill-rule:nonzero;stroke:none" d="m 14.371094,0.209263 -0.316226,-0.948685 0.05886,-0.019623 0.06084,-0.012191 0.19652,0.980499 z m 1.392153,4.906738 h 1 V 6.353039 L 15.55368,6.093796 Z M 8.699234,7.621689 9.650573,7.929836 9.642118,7.95594 9.632242,7.981541 Z M 6.367507,10.683865 5.809227,9.854212 5.879782,9.806736 5.957341,9.771854 Z m 0.139387,1.287651 0.065452,0.997856 -0.032691,0.0021 H 6.506894 v -1 z M 9.743348,9.8139 8.86781,9.33075 8.874198,9.319176 8.88089,9.307772 Z m 6.124009,-1.739929 0.415854,-0.909432 0.505451,0.231125 0.0706,0.551289 -0.9919,0.127018 z m 1.32246,2.818737 0.661585,-0.749869 1.708782,1.507603 -2.266431,0.236849 z m -7.412052,16.008297 0.741492,-0.670963 0.418715,0.46273 -0.231665,0.57946 z M 9.986846,32.469296 9.68742,33.423412 9.233454,33.280949 9.05763,32.838829 Z m 5.77597,-2.157618 -0.561405,-0.827541 0.378762,-0.256953 0.44203,0.118721 z m 5.25456,0.696142 v 1 h -0.0011 z m 5.254129,-0.696142 -0.261337,-0.965248 0.44294,-0.119925 0.379761,0.257603 z m 5.776404,2.157618 0.929214,0.369533 -0.175823,0.44212 -0.453968,0.142463 z m 0.208645,-5.568291 -0.928542,0.371227 -0.235019,-0.587851 0.430824,-0.463888 z m -7.446467,-16.008297 -0.1105,0.993875 -2.277619,-0.253231 1.734627,-1.497577 z m 2.818724,-10.683872 0.196211,-0.980561 0.06104,0.012215 0.05906,0.019691 -0.316313,0.948655 z m 14.371094,19.940864 -1,0.003 v -0.003 z M 21.017376,42.169373 C 8.842939,42.169373 -1,32.325775 -1,20.1497 H 1 C 1,31.22138 9.947681,40.169373 21.017376,40.169373 Z M -1,20.1497 C -1,10.414232 5.308236,2.176109 14.054868,-0.739422 l 0.632452,1.89737 C 6.73156,3.809853 1,11.301994 1,20.1497 Z M 14.174574,-0.771236 c 0.756693,-0.151665 1.464329,-0.012867 1.979725,0.463008 0.4804,0.443566 0.643366,1.043908 0.643366,1.526257 h -2.000001 c 0,-0.027935 -0.0053,-0.051956 -0.01061,-0.06596 -0.0046,-0.012195 -0.0044,-0.00461 0.01049,0.00913 0.0185,0.017079 0.03164,0.017964 0.01649,0.014538 -0.02032,-0.00459 -0.09529,-0.016269 -0.246425,0.014023 l -0.39304,-1.960998 z m 2.623091,1.989265 c 0,0.251873 -0.0088,0.804813 -0.01729,1.491451 -0.0086,0.694512 -0.01713,1.542427 -0.01713,2.406521 h -2 c 0,-0.876263 0.0087,-1.733681 0.01728,-2.431244 0.0087,-0.705433 0.01713,-1.2313 0.01713,-1.466728 h 2.000001 z M 15.55368,6.093796 C 12.866814,5.517933 11.409007,6.116341 10.642074,6.69648 10.241104,6.999786 9.985188,7.330738 9.831689,7.579338 9.755065,7.703434 9.705088,7.805241 9.676378,7.869663 9.662074,7.901764 9.653225,7.924191 9.649124,7.934982 c -0.00205,0.00538 -0.00289,0.00782 -0.00262,0.00705 1.35e-4,-3.82e-4 5.48e-4,-0.00157 0.00123,-0.00359 3.4e-4,-0.00101 7.48e-4,-0.00223 0.00122,-0.00367 2.37e-4,-7.17e-4 4.91e-4,-0.00149 7.6e-4,-0.00231 1.35e-4,-4.12e-4 3.49e-4,-0.00107 4.17e-4,-0.00127 2.2e-4,-6.73e-4 4.42e-4,-0.00136 -0.950897,-0.309503 C 7.747895,7.313541 7.748127,7.312828 7.748363,7.312099 c 8.6e-5,-2.63e-4 3.3e-4,-0.00101 5.01e-4,-0.00153 3.44e-4,-0.00105 7.1e-4,-0.00217 0.0011,-0.00334 7.75e-4,-0.00234 0.00164,-0.00493 0.00258,-0.00774 C 7.754441,7.293865 7.75669,7.287308 7.759306,7.27985 7.764538,7.264942 7.771245,7.246422 7.779544,7.224583 7.796133,7.180923 7.81915,7.123821 7.849555,7.055592 7.910265,6.919353 8.00108,6.737297 8.129948,6.528587 8.387431,6.11158 8.801294,5.581165 9.435513,5.101421 c 1.303442,-0.985973 3.37764,-1.640407 6.5373,-0.963215 z M 9.632242,7.981541 c -0.520799,1.3503 -1.182071,2.235223 -1.747509,2.795257 -0.281294,0.278605 -0.535219,0.473206 -0.730464,0.603319 -0.097542,0.065 -0.180288,0.113816 -0.244337,0.148934 -0.032024,0.01756 -0.059378,0.0317 -0.081579,0.04273 -0.0111,0.0055 -0.020914,0.01025 -0.02938,0.01426 -0.00423,0.002 -0.00813,0.0038 -0.011682,0.0055 -0.00178,8.2e-4 -0.00347,0.0016 -0.00507,0.0023 -8.02e-4,3.66e-4 -0.00158,7.21e-4 -0.00234,0.0011 -3.79e-4,1.72e-4 -9.31e-4,4.22e-4 -0.00112,5.08e-4 -5.46e-4,2.46e-4 -0.00109,4.9e-4 -0.411253,-0.911522 C 5.957341,9.771854 5.95681,9.772093 5.956285,9.772329 c -1.68e-4,7.7e-5 -6.89e-4,3.13e-4 -0.00103,4.64e-4 -6.73e-4,3.05e-4 -0.00133,6.03e-4 -0.00196,8.91e-4 -0.00126,5.76e-4 -0.00245,0.00112 -0.00355,0.00163 -0.00221,0.00102 -0.00409,0.0019 -0.00566,0.00264 -0.00314,0.00148 -0.00502,0.00241 -0.0057,0.00275 C 5.937039,9.78137 5.940512,9.779678 5.94839,9.775358 5.964144,9.76672 5.997501,9.747585 6.045154,9.715828 6.140299,9.652422 6.293136,9.53824 6.477327,9.35581 6.842858,8.993774 7.347451,8.34761 7.766225,7.261833 Z m -2.706456,3.531978 c -0.208842,0.14053 -0.334651,0.244479 -0.405308,0.31304 -0.077692,0.07539 -0.05187,0.07256 -0.01755,-0.0085 0.019699,-0.04655 0.044507,-0.124747 0.048305,-0.228264 C 6.555172,11.482391 6.535507,11.370163 6.490316,11.264359 6.402823,11.059515 6.261753,10.969252 6.22606,10.948288 c -0.039897,-0.02343 -0.052652,-0.02202 -0.015094,-0.01221 0.031571,0.0082 0.075545,0.01642 0.12788,0.02289 0.050654,0.0063 0.097595,0.0096 0.131514,0.01118 0.016513,7.91e-4 0.028792,0.0011 0.035518,0.0013 0.00333,7.2e-5 0.00521,9.3e-5 0.00545,9.5e-5 1.21e-4,2e-6 -1.74e-4,-2e-6 -9.05e-4,-6e-6 -3.65e-4,-2e-6 -8.41e-4,-4e-6 -0.00143,-4e-6 -2.93e-4,-1e-6 -6.16e-4,-1e-6 -9.67e-4,-1e-6 -1.75e-4,-2e-6 -4.6e-4,-2e-6 -5.47e-4,-2e-6 -2.92e-4,0 -5.91e-4,0 -5.91e-4,1 0,1 -3.15e-4,1 -6.37e-4,1 -1.19e-4,0 -4.51e-4,0 -6.88e-4,0 -4.76e-4,-2e-6 -9.85e-4,-2e-6 -0.00153,-4e-6 -0.00108,-2e-6 -0.0023,-6e-6 -0.00364,-1.4e-5 -0.00269,-1.3e-5 -0.0059,-3.6e-5 -0.00961,-7.4e-5 -0.00741,-7.6e-5 -0.016826,-2.14e-4 -0.02806,-4.56e-4 C 6.440311,12.9705 6.410352,12.969582 6.374467,12.967882 6.3036,12.964449 6.205105,12.957676 6.093194,12.943825 5.908619,12.92098 5.537288,12.863201 5.213167,12.672831 5.040453,12.57139 4.792261,12.380529 4.651059,12.049938 4.496669,11.688467 4.539495,11.32584 4.661073,11.038555 4.862186,10.563332 5.321605,10.182337 5.809227,9.854212 Z M 6.441443,10.97366 C 7.186376,10.924799 7.784854,10.545063 8.228602,10.119089 8.447256,9.909195 8.613713,9.701422 8.72417,9.547762 8.778936,9.471575 8.818638,9.410501 8.842916,9.371586 8.855022,9.352182 8.863188,9.338455 8.867373,9.33131 8.869463,9.32774 8.870543,9.32583 8.870623,9.3257 c 3.8e-5,-6.9e-5 -1.77e-4,3.09e-4 -6.45e-4,0.00115 -2.35e-4,4.18e-4 -5.32e-4,9.52e-4 -8.94e-4,0.0016 -1.8e-4,3.25e-4 -3.77e-4,6.79e-4 -5.89e-4,0.00106 -1.07e-4,1.92e-4 -2.79e-4,5.03e-4 -3.31e-4,5.99e-4 -1.75e-4,3.16e-4 -3.55e-4,6.41e-4 0.875183,0.483791 0.875539,0.483149 0.875351,0.483488 0.875158,0.483837 -6.9e-5,1.26e-4 -2.67e-4,4.83e-4 -4.07e-4,7.34e-4 -2.8e-4,5.08e-4 -5.79e-4,0.001 -8.95e-4,0.0016 -6.34e-4,0.0011 -0.0013,0.0024 -0.0021,0.0038 -0.0016,0.0028 -0.0034,0.0061 -0.0055,0.0098 -0.0043,0.0075 -0.0097,0.01695 -0.01628,0.0282 -0.01317,0.02249 -0.031,0.05226 -0.0535,0.08832 -0.04492,0.07201 -0.108823,0.16971 -0.191642,0.284922 -0.164715,0.229139 -0.409375,0.534664 -0.734505,0.846771 -0.643817,0.618027 -1.663566,1.3171 -3.041278,1.407467 z M 8.88089,9.307772 c 1.105624,-1.884024 2.622434,-2.635889 4.081357,-2.769064 1.391032,-0.12698 2.637883,0.31348 3.320964,0.625831 L 15.451504,8.983402 C 14.916665,8.738838 14.040871,8.448563 13.144058,8.530426 c -0.828922,0.075665 -1.765157,0.472221 -2.538251,1.7896 z m 7.978367,-1.360819 c 0.147423,1.151241 0.607376,1.856415 0.992145,2.195886 l -1.323171,1.499737 C 15.729929,10.938261 15.075643,9.764277 14.875457,8.200989 Z m 0.434496,3.940338 c -2.268837,0.237101 -4.415815,0.783598 -5.993279,2.110975 -1.530317,1.287709 -2.679771,3.445832 -2.679771,7.265261 h -2 c 0,-4.254545 1.303591,-7.038181 3.392074,-8.795567 2.041338,-1.717712 4.678917,-2.319637 7.073103,-2.569835 z m -8.67305,9.376236 c 0,2.033337 0.731744,3.677053 1.898554,4.966515 L 9.036273,27.571966 C 7.558166,25.938484 6.620703,23.823881 6.620703,21.263527 Z m 2.085604,6.008705 c -0.151988,0.380165 -0.811969,2.258347 0.209755,4.827526 L 9.05763,32.838829 C 7.782044,29.631304 8.583909,27.193401 8.849223,26.529778 Z m -0.719461,5.197064 c 0.299426,-0.954121 0.298483,-0.954417 0.297547,-0.954709 -3.03e-4,-9.5e-5 -0.0012,-3.85e-4 -0.0018,-5.72e-4 -0.0012,-3.76e-4 -0.0024,-7.4e-4 -0.0036,-0.0011 -0.0023,-7.11e-4 -0.0046,-0.0014 -0.0067,-0.002 -0.0042,-0.0013 -0.0081,-0.0024 -0.01151,-0.0033 -0.0069,-0.0019 -0.01205,-0.0032 -0.01558,-0.0041 -0.0071,-0.0017 -0.0074,-0.0016 -7.93e-4,-4e-4 0.01306,0.0023 0.05433,0.0087 0.12498,0.01172 0.14065,0.006 0.403454,-0.0011 0.797523,-0.08464 0.789568,-0.167385 2.114806,-0.64373 4.034479,-1.946039 l 1.12281,1.655082 C 14.242513,32.55146 12.679765,33.153923 11.581689,33.386711 11.031935,33.503258 10.601002,33.526573 10.283872,33.513 10.125628,33.5062 9.996996,33.49032 9.89738,33.47277 9.847626,33.46397 9.805281,33.45486 9.770265,33.4463 9.752763,33.442 9.737111,33.4379 9.723298,33.43404 c -0.0069,-0.0019 -0.013348,-0.0038 -0.019332,-0.0056 -0.00299,-8.85e-4 -0.00587,-0.0018 -0.00863,-0.0026 -0.00138,-4.2e-4 -0.00273,-8.35e-4 -0.00405,-0.0012 -6.61e-4,-2.03e-4 -0.00163,-5.04e-4 -0.00196,-6.07e-4 -9.64e-4,-3.01e-4 -0.00192,-6.03e-4 0.297506,-0.954719 z m 6.035357,-3.123391 c 1.628853,0.437477 3.308743,0.660042 4.996283,0.661917 l -0.0022,1.999998 c -1.861887,-0.0021 -3.715437,-0.247623 -5.512837,-0.730369 l 0.518774,-1.931546 z m 4.995173,0.661915 c 1.686201,0 3.407356,-0.232139 4.992792,-0.66139 l 0.522673,1.930496 c -1.755556,0.475309 -3.652453,0.730894 -5.515465,0.730894 z m 5.815493,-0.523712 c 1.919895,1.30232 3.24525,1.778675 4.034887,1.946066 0.3941,0.08354 0.656923,0.09066 0.797583,0.08464 0.07065,-0.003 0.111923,-0.0094 0.124988,-0.01172 0.0066,-0.0012 0.0063,-0.0013 -7.93e-4,4e-4 -0.0035,8.63e-4 -0.0087,0.0022 -0.01558,0.0041 -0.0034,9.58e-4 -0.0073,0.0021 -0.01151,0.0033 -0.0021,6.29e-4 -0.0043,0.0013 -0.0067,0.002 -0.0012,3.55e-4 -0.0024,7.19e-4 -0.0036,0.0011 -6.06e-4,1.87e-4 -0.0015,4.77e-4 -0.0018,5.72e-4 -9.36e-4,2.92e-4 -0.0019,5.88e-4 0.297549,0.954709 0.299423,0.954116 0.298466,0.954418 0.297504,0.954719 -3.32e-4,1.03e-4 -0.0013,4.04e-4 -0.002,6.07e-4 -0.0013,4.12e-4 -0.0027,8.27e-4 -0.0041,0.0012 -0.0028,8.43e-4 -0.0056,0.0017 -0.0086,0.0026 -0.006,0.0018 -0.01243,0.0036 -0.01933,0.0056 -0.01381,0.0039 -0.02947,0.008 -0.04697,0.01226 -0.03502,0.0086 -0.07736,0.01771 -0.127117,0.02647 -0.09962,0.01755 -0.228251,0.03346 -0.386498,0.04023 -0.317134,0.01357 -0.748077,-0.0097 -1.297853,-0.126285 -1.098116,-0.232784 -2.660961,-0.83524 -4.742859,-2.247448 l 1.122727,-1.65514 z m 4.285821,2.61565 c 1.021676,-2.569054 0.36138,-4.447189 0.209322,-4.827526 l 1.857085,-0.742454 c 0.265243,0.66345 1.067661,3.101402 -0.207974,6.309051 z m 0.405127,-5.879265 c 1.186152,-1.277181 1.890234,-2.913488 1.890234,-4.956966 h 2 c 0,2.550213 -0.896297,4.672224 -2.424759,6.317989 z m 1.890234,-4.956966 c 0,-3.818905 -1.149033,-5.967201 -2.682136,-7.250454 -1.582556,-1.324648 -3.739319,-1.871548 -6.032328,-2.12649 l 0.221002,-1.987751 c 2.40486,0.267378 5.05008,0.868901 7.095036,2.58059 2.09441,1.75308 3.398426,4.529035 3.398426,8.784105 z M 24.156595,10.135775 c 0.499031,-0.430836 1.080063,-1.379519 1.080063,-3.140612 h 2 c 0,2.206493 -0.74057,3.763069 -1.773077,4.654478 z m 1.080063,-3.140612 c 0,-1.405411 -0.0086,-2.672539 -0.01717,-3.675926 -0.0085,-0.997639 -0.01725,-1.747261 -0.01725,-2.100781 h 2 c 0,0.342198 0.0085,1.071556 0.01717,2.083657 0.0086,1.006351 0.01725,2.27972 0.01725,3.69305 z M 25.20224,1.218456 c 0,-0.482712 0.163155,-1.083023 0.643427,-1.526588 0.515221,-0.475849 1.222687,-0.615006 1.979355,-0.463593 L 27.432598,1.189396 C 27.281647,1.159191 27.206741,1.170883 27.186407,1.175488 c -0.01518,0.00344 -0.0022,0.00259 0.01621,-0.014378 0.01477,-0.013638 0.01495,-0.021103 0.01028,-0.00882 -0.0054,0.014084 -0.01066,0.038174 -0.01066,0.066166 h -2 z m 2.742884,-1.958275 C 36.691639,2.176567 42.999905,10.414192 42.999905,20.1497 h -2 c 0,-8.847664 -5.731533,-16.339451 -13.687409,-18.99221 z M 42.999901,20.14674 c 0.03606,12.180012 -9.844563,22.022633 -21.982525,22.022633 v -2 c 11.036476,0 20.015301,-8.948967 19.982532,-20.016713 l 1.999993,-0.0059 z"/></g></g></g></g></svg>