<svg xmlns="http://www.w3.org/2000/svg" width="128px" fill="none" viewBox="0 0 128 20">
  <path fill="#000" d="M2.64 19.631H0V2.678l2.64-.61V19.63Zm5.84 0H5.84V7.651l2.64-.608V19.63ZM5.5 3.32a1.595 1.595 0 0 1 .491-1.167 1.634 1.634 0 0 1 1.202-.49 1.594 1.594 0 0 1 1.167.49 1.595 1.595 0 0 1 .491 1.167 1.634 1.634 0 0 1-.49 1.202 1.594 1.594 0 0 1-1.168.491 1.553 1.553 0 0 1-1.184-.508 1.553 1.553 0 0 1-.508-1.185Zm9.496 16.312-4.83-12 2.529-.59 3.823 9.511 3.858-9.51 2.512.592-4.847 12-3.045-.003Zm21.27-5.143h-9.88a2.906 2.906 0 0 0 1.253 2.203 4.392 4.392 0 0 0 2.67.845 4.307 4.307 0 0 0 3.587-1.489l1.523 1.658a7.002 7.002 0 0 1-5.31 2.133 6.218 6.218 0 0 1-4.534-1.794 6.34 6.34 0 0 1-1.828-4.739 6.194 6.194 0 0 1 1.861-4.67 6.25 6.25 0 0 1 4.5-1.794 6.31 6.31 0 0 1 4.4 1.592 5.426 5.426 0 0 1 1.76 4.23l-.002 1.825Zm-2.64-2.1a3.09 3.09 0 0 0-.964-2.403 3.548 3.548 0 0 0-2.487-.88 4.107 4.107 0 0 0-2.657.914 2.904 2.904 0 0 0-1.134 2.369h7.243Zm9.259 7.447a8.701 8.701 0 0 1-5.482-1.896l1.286-2.064a7.037 7.037 0 0 0 4.264 1.658c.502.025.998-.124 1.402-.423a1.313 1.313 0 0 0 .525-1.066c0-.632-.835-1.196-2.504-1.692a2.117 2.117 0 0 0-.152-.068.388.388 0 0 0-.119-.034c-2.616-.7-3.924-1.883-3.924-3.553a3.388 3.388 0 0 1 1.336-2.805 5.567 5.567 0 0 1 3.536-1.049 7.413 7.413 0 0 1 4.13 1.287l-.983 1.963a5.91 5.91 0 0 0-3.35-1.015c-1.42 0-2.131.451-2.131 1.354a.891.891 0 0 0 .423.829c.442.228.914.393 1.402.49.85.225 1.685.496 2.504.813a8.22 8.22 0 0 1 1.184.643 3.02 3.02 0 0 1 1.287 2.674 3.566 3.566 0 0 1-1.303 2.86 4.992 4.992 0 0 1-3.33 1.094h-.001Zm18.699-5.348h-9.88a2.906 2.906 0 0 0 1.253 2.204 4.391 4.391 0 0 0 2.674.847 4.307 4.307 0 0 0 3.587-1.489l1.522 1.658a7.002 7.002 0 0 1-5.309 2.133 6.218 6.218 0 0 1-4.535-1.794 6.339 6.339 0 0 1-1.828-4.739 6.194 6.194 0 0 1 1.861-4.67 6.25 6.25 0 0 1 4.501-1.794 6.31 6.31 0 0 1 4.4 1.592 5.424 5.424 0 0 1 1.76 4.23l-.006 1.823Zm-2.64-2.098a3.09 3.09 0 0 0-.964-2.404 3.548 3.548 0 0 0-2.488-.88 4.107 4.107 0 0 0-2.656.914 2.904 2.904 0 0 0-1.134 2.369h7.242Zm9.258 7.446a8.701 8.701 0 0 1-5.481-1.896l1.286-2.064a7.036 7.036 0 0 0 4.267 1.66c.503.026.998-.123 1.403-.422a1.313 1.313 0 0 0 .525-1.066c0-.632-.835-1.196-2.505-1.692a2.117 2.117 0 0 0-.152-.068.388.388 0 0 0-.118-.034c-2.617-.7-3.925-1.883-3.925-3.553a3.388 3.388 0 0 1 1.336-2.805 5.567 5.567 0 0 1 3.537-1.057 7.413 7.413 0 0 1 4.129 1.287l-.982 1.963a5.91 5.91 0 0 0-3.35-1.015c-1.421 0-2.132.451-2.132 1.354a.891.891 0 0 0 .423.829 5.34 5.34 0 0 0 1.403.49c.849.225 1.685.496 2.504.813.412.182.808.397 1.184.643a3.02 3.02 0 0 1 1.286 2.674 3.566 3.566 0 0 1-1.302 2.86 4.99 4.99 0 0 1-3.333 1.102l-.003-.003Zm11.32 0a8.701 8.701 0 0 1-5.478-1.899l1.286-2.064a7.037 7.037 0 0 0 4.264 1.664c.502.025.998-.124 1.402-.423a1.314 1.314 0 0 0 .525-1.066c0-.632-.835-1.196-2.504-1.692a2.12 2.12 0 0 0-.153-.068.387.387 0 0 0-.118-.034c-2.616-.7-3.924-1.883-3.924-3.553a3.388 3.388 0 0 1 1.336-2.805 5.566 5.566 0 0 1 3.536-1.049 7.412 7.412 0 0 1 4.129 1.287l-.983 1.963a5.91 5.91 0 0 0-3.35-1.015c-1.42 0-2.131.451-2.131 1.354a.893.893 0 0 0 .423.829c.442.228.914.393 1.402.49.85.225 1.685.496 2.504.813a8.22 8.22 0 0 1 1.184.643 3.02 3.02 0 0 1 1.287 2.674 3.567 3.567 0 0 1-1.303 2.86 4.987 4.987 0 0 1-3.331 1.102l-.003-.011Zm9.63-.2h-2.64V7.682l2.64-.638v12.59ZM86.175 3.321a1.595 1.595 0 0 1 .49-1.167 1.634 1.634 0 0 1 1.203-.49 1.594 1.594 0 0 1 1.167.49 1.595 1.595 0 0 1 .49 1.167 1.634 1.634 0 0 1-.49 1.202 1.595 1.595 0 0 1-1.167.491 1.553 1.553 0 0 1-1.184-.508 1.554 1.554 0 0 1-.507-1.184h-.002ZM98.141 17.47a3.846 3.846 0 0 0 2.86-1.151 4.064 4.064 0 0 0 1.133-2.979 4.05 4.05 0 0 0-1.133-2.978 3.854 3.854 0 0 0-2.86-1.15 3.79 3.79 0 0 0-2.843 1.15 4.097 4.097 0 0 0-1.117 2.978 3.982 3.982 0 0 0 1.117 2.945 3.734 3.734 0 0 0 2.843 1.184Zm0 2.369a6.456 6.456 0 0 1-4.738-1.879 6.25 6.25 0 0 1-1.895-4.62 6.251 6.251 0 0 1 1.895-4.618 6.458 6.458 0 0 1 4.738-1.879 6.456 6.456 0 0 1 4.737 1.879 6.26 6.26 0 0 1 1.895 4.619 6.414 6.414 0 0 1-1.895 4.602 6.423 6.423 0 0 1-4.737 1.896Zm11.627-.2h-2.64V7.654l2.64-.607v2.268a4.719 4.719 0 0 1 1.777-1.811 4.73 4.73 0 0 1 2.419-.66 4.645 4.645 0 0 1 3.485 1.32 5.162 5.162 0 0 1 1.286 3.756v7.713h-2.674v-6.907c0-2.324-.958-3.485-2.876-3.485a3.403 3.403 0 0 0-2.436.93 3.434 3.434 0 0 0-.981 2.623v6.842Z"/>
  <path fill="#0a4ed6" d="M124.223 7.545A3.773 3.773 0 1 1 124.229 0a3.773 3.773 0 0 1-.006 7.545Zm-1.021-5.341a.213.213 0 0 0-.214.213V5.18a.214.214 0 0 0 .214.213c.035 0 .069-.01.1-.027l2.504-1.38a.218.218 0 0 0 .111-.187.218.218 0 0 0-.111-.187l-2.504-1.38a.211.211 0 0 0-.1-.026v-.001Z"/>
</svg>