<svg viewBox="0 0 600 114" width="102px" xmlns="http://www.w3.org/2000/svg"><path class="apiLogo__text" d="m504.31 29v60.47h-5.37v-10.37c-3.87 6.5-13.5 11.62-22.74 11.62-17.62 0-30.98-13.5-30.98-31.61 0-17.87 13.37-31.36 30.98-31.36 9.37 0 19.12 5.12 22.74 11.62v-10.37zm-5.37 44.1v-27.74c-3.87-7.37-13.25-12.62-22.11-12.62-14.99 0-26.24 11.25-26.24 26.36 0 15.24 11.25 26.49 26.24 26.49 8.74.01 18.11-5.24 22.11-12.49z"></path><path class="apiLogo__text" d="m578.93 59.36c0 17.86-13.37 31.36-30.99 31.36-9.25 0-18.87-5-22.62-11.37v34.11h-5.5v-84.46h5.5v10.24c3.87-6.5 13.5-11.5 22.62-11.5 17.62.01 30.99 13.5 30.99 31.62zm-5.38 0c0-15.24-11.25-26.49-26.24-26.49-8.74 0-17.99 5.12-21.99 12.24v28.24c3.87 7.25 13.24 12.37 21.99 12.37 15 0 26.24-11.24 26.24-26.36z"></path><path class="apiLogo__text" d="m598.03 8.63c0 2.75-2.37 4.75-4.75 4.75-2.75 0-4.87-2-4.87-4.75 0-2.5 2.13-4.62 4.87-4.62 2.38 0 4.75 2.12 4.75 4.62zm-2.12 20.37v60.47h-5.5v-60.47z"></path><path class="apiLogo__text" d="m134.03 83.07 5.17-12.07c5.66 4.19 13.06 6.4 20.44 6.4 5.42 0 8.87-2.09 8.87-5.3-.12-8.87-32.64-1.97-32.89-24.26-.12-11.33 9.98-20.08 24.26-20.08 8.5 0 17 2.09 23.03 6.9l-4.83 12.33c-5.55-3.56-12.41-6.05-18.94-6.05-4.43 0-7.39 2.09-7.39 4.8.12 8.75 32.89 3.94 33.26 25.25 0 11.58-9.85 19.71-23.9 19.71-10.33 0-19.82-2.46-27.08-7.63"></path><path class="apiLogo__text" d="m333.79 66.63c-2.58 4.56-7.47 7.63-13.08 7.63-8.3 0-15.03-6.73-15.03-15.03s6.73-15.03 15.03-15.03c5.61 0 10.5 3.08 13.08 7.63l14.38-7.97c-5.39-9.61-15.66-16.11-27.46-16.11-17.38 0-31.47 14.09-31.47 31.47s14.09 31.47 31.47 31.47c11.8 0 22.08-6.5 27.46-16.11z"></path><path class="apiLogo__text" d="m192.27 1.57h17.98v87.9h-17.98z"></path><path class="apiLogo__text" d="m355.17 1.57v87.9h17.98v-26.33l21.31 26.33h22.99l-27.1-31.28 25.12-29.19h-21.99l-20.33 24.26v-51.69z"></path><path class="apiLogo__text" d="m263.57 66.75c-2.59 4.31-8.01 7.51-14.04 7.51-8.3 0-15.03-6.73-15.03-15.03s6.73-15.03 15.03-15.03c6.03 0 11.45 3.33 14.04 7.76zm0-37.75v7.14c-2.96-4.93-10.22-8.37-17.86-8.37-15.77 0-28.21 13.92-28.21 31.41s12.44 31.53 28.21 31.53c7.64 0 14.9-3.45 17.86-8.38v7.14h17.98v-60.47z"></path><path d="m22.96 66.64c0 6.13-4.97 11.11-11.11 11.11s-11.1-4.98-11.1-11.11 4.97-11.11 11.11-11.11h11.11v11.11z" fill="#e01e5a"></path><path d="m28.51 66.64c0-6.13 4.97-11.11 11.11-11.11s11.11 4.97 11.11 11.11v27.77c0 6.13-4.97 11.11-11.11 11.11s-11.11-4.97-11.11-11.11z" fill="#e01e5a"></path><path d="m39.62 22.21c-6.13 0-11.11-4.97-11.11-11.11s4.98-11.1 11.11-11.1 11.11 4.97 11.11 11.11v11.11h-11.11z" fill="#36c5f0"></path><path d="m39.62 27.77c6.13 0 11.11 4.97 11.11 11.11s-4.97 11.11-11.11 11.11h-27.77c-6.13 0-11.11-4.97-11.11-11.11s4.97-11.11 11.11-11.11z" fill="#36c5f0"></path><path d="m84.05 38.87c0-6.13 4.97-11.11 11.11-11.11 6.13 0 11.11 4.97 11.11 11.11s-4.97 11.11-11.11 11.11h-11.11z" fill="#2eb67d"></path><path d="m78.49 38.87c0 6.13-4.97 11.11-11.11 11.11-6.13 0-11.11-4.97-11.11-11.11v-27.76c.01-6.14 4.98-11.11 11.12-11.11 6.13 0 11.11 4.97 11.11 11.11v27.76z" fill="#2eb67d"></path><g fill="#ecb22e"><path d="m67.39 83.3c6.13 0 11.11 4.97 11.11 11.11 0 6.13-4.97 11.11-11.11 11.11-6.13 0-11.11-4.97-11.11-11.11v-11.11z"></path><path d="m67.39 77.75c-6.13 0-11.11-4.97-11.11-11.11s4.97-11.11 11.11-11.11h27.77c6.13 0 11.11 4.97 11.11 11.11s-4.97 11.11-11.11 11.11z"></path></g></svg>