<svg width="40" height="40" viewBox="0 0 40 40" fill="none" xmlns="http://www.w3.org/2000/svg">
    <path fill-rule="evenodd" clip-rule="evenodd" d="M23.4049 4.58393L31.6298 9.33272C31.8614 9.0874 32.1319 8.8708 32.4388 8.69254C34.1446 7.71195 36.3203 8.29418 37.3111 10C38.2917 11.7058 37.7095 13.8815 36.0036 14.8723C35.6991 15.0474 35.3793 15.1726 35.0537 15.2506V24.7519C35.3757 24.83 35.6921 24.9544 35.9934 25.1277C37.7095 26.1185 38.2917 28.2942 37.3009 30C36.3203 31.7058 34.1344 32.288 32.4286 31.3075C32.089 31.1122 31.7939 30.8692 31.5468 30.5918L23.3721 35.3116C23.4889 35.6647 23.5522 36.0424 23.5522 36.4351C23.5522 38.3963 21.9587 40 19.9873 40C18.0159 40 16.4224 38.4065 16.4224 36.4351C16.4224 36.0847 16.4728 35.7462 16.5667 35.4265L8.34394 30.679C8.11481 30.9195 7.84803 31.132 7.54604 31.3075C5.83 32.288 3.65431 31.7058 2.67372 30C1.69312 28.2942 2.27535 26.1185 3.98117 25.1277C4.28278 24.9543 4.59907 24.8298 4.92091 24.7517V15.2506C4.59535 15.1726 4.2755 15.0474 3.97096 14.8723C2.26514 13.8917 1.68291 11.7058 2.6635 10C3.6441 8.29418 5.83 7.71195 7.53582 8.69254C7.84104 8.86983 8.11029 9.08505 8.34105 9.32872L16.5682 4.57865C16.4733 4.25741 16.4224 3.91717 16.4224 3.56486C16.4224 1.59346 18.0159 0 19.9873 0C21.9587 0 23.5522 1.59346 23.5522 3.56486C23.5522 3.9191 23.5007 4.26114 23.4049 4.58393ZM22.5479 6.04705L30.7924 10.8071C30.5376 11.7022 30.6311 12.6947 31.1313 13.5649C31.6332 14.4379 32.4508 15.0166 33.3581 15.2421V24.7553C33.3119 24.7667 33.2658 24.7789 33.2201 24.7921L22.4522 6.14213C22.4847 6.11104 22.5166 6.07934 22.5479 6.04705ZM17.5247 6.14429L6.75695 24.794C6.7104 24.7804 6.66357 24.7679 6.61652 24.7562V15.2421C7.52386 15.0166 8.34142 14.4379 8.84328 13.5649C9.34449 12.693 9.43741 11.6983 9.18067 10.8018L17.4228 6.04308C17.4561 6.07749 17.4901 6.11123 17.5247 6.14429ZM20.9834 6.98917L31.7486 25.6346C31.5077 25.8643 31.2954 26.132 31.1211 26.4351C30.9479 26.7365 30.8234 27.0528 30.7453 27.3749H9.22949C9.15139 27.053 9.02687 26.7367 8.85349 26.4351C8.67854 26.1339 8.46665 25.8678 8.22692 25.639L18.9942 6.99004C19.3094 7.08099 19.6426 7.12972 19.9873 7.12972C20.3331 7.12972 20.6673 7.08068 20.9834 6.98917ZM22.6236 34.0335L30.8146 29.3043C30.79 29.2271 30.7681 29.1491 30.7488 29.0705H9.22493C9.21351 29.1167 9.20118 29.1627 9.18794 29.2084L17.4191 33.9608C18.0672 33.2882 18.9777 32.8703 19.9873 32.8703C21.0328 32.8703 21.972 33.3185 22.6236 34.0335Z" fill="#E535AB"/>
</svg>
