<svg width="104" height="42" viewBox="0 0 104 42" fill="none" xmlns="http://www.w3.org/2000/svg">
    <path d="M25.2105 9.81578H78.8947C79.665 9.81578 80.2895 10.4402 80.2895 11.2105V30.7895C80.2895 31.5598 79.665 32.1842 78.8947 32.1842H25.2105C24.4402 32.1842 23.8158 31.5598 23.8158 30.7895V11.2105C23.8158 10.4402 24.4402 9.81578 25.2105 9.81578Z" stroke="#D9D9DE"/>
    <mask id="path-2-inside-1_4_254" fill="white">
        <path d="M25.2105 9H78.8947C80.1156 9 81.1053 9.98969 81.1053 11.2105V30.7895C81.1053 32.0103 80.1156 33 78.8947 33H25.2105C23.9897 33 23 32.0103 23 30.7895V11.2105C23 9.98969 23.9897 9 25.2105 9ZM25.2105 9.63158C24.3385 9.63158 23.6316 10.3385 23.6316 11.2105V30.7895C23.6316 31.6615 24.3385 32.3684 25.2105 32.3684H78.8947C79.7668 32.3684 80.4737 31.6615 80.4737 30.7895V11.2105C80.4737 10.3385 79.7668 9.63158 78.8947 9.63158H25.2105Z"/>
    </mask>
    <path d="M25.2105 10H78.8947V8H25.2105V10ZM78.8947 10C79.5633 10 80.1053 10.542 80.1053 11.2105H82.1053C82.1053 9.4374 80.6679 8 78.8947 8V10ZM80.1053 11.2105V30.7895H82.1053V11.2105H80.1053ZM80.1053 30.7895C80.1053 31.458 79.5633 32 78.8947 32V34C80.6679 34 82.1053 32.5626 82.1053 30.7895H80.1053ZM78.8947 32H25.2105V34H78.8947V32ZM25.2105 32C24.542 32 24 31.458 24 30.7895H22C22 32.5626 23.4374 34 25.2105 34V32ZM24 30.7895V11.2105H22V30.7895H24ZM24 11.2105C24 10.542 24.542 10 25.2105 10V8C23.4374 8 22 9.4374 22 11.2105H24ZM25.2105 8.63158C23.7862 8.63158 22.6316 9.78621 22.6316 11.2105H24.6316C24.6316 10.8908 24.8908 10.6316 25.2105 10.6316V8.63158ZM22.6316 11.2105V30.7895H24.6316V11.2105H22.6316ZM22.6316 30.7895C22.6316 32.2138 23.7862 33.3684 25.2105 33.3684V31.3684C24.8908 31.3684 24.6316 31.1092 24.6316 30.7895H22.6316ZM25.2105 33.3684H78.8947V31.3684H25.2105V33.3684ZM78.8947 33.3684C80.319 33.3684 81.4737 32.2138 81.4737 30.7895H79.4737C79.4737 31.1092 79.2145 31.3684 78.8947 31.3684V33.3684ZM81.4737 30.7895V11.2105H79.4737V30.7895H81.4737ZM81.4737 11.2105C81.4737 9.78621 80.319 8.63158 78.8947 8.63158V10.6316C79.2145 10.6316 79.4737 10.8908 79.4737 11.2105H81.4737ZM78.8947 8.63158H25.2105V10.6316H78.8947V8.63158Z" fill="#D9D9DE" mask="url(#path-2-inside-1_4_254)"/>
    <path d="M51.921 14.0625H53.4474L53.4472 23.197L53.4472 24.404L54.3007 23.5506L57.4862 20.3659L58.5654 21.4452L52.7309 27.2793L46.8139 21.3622L47.8932 20.283L51.0674 23.4571L51.9209 24.3107L51.9209 23.1036L51.921 14.0625Z" stroke="#D9D9DE"/>
    <path d="M29.1632 15.1423L35.4044 21.384L35.7579 21.7376L36.1115 21.384L42.3872 15.1088V26.9206H40.8608V20.0006V18.7935L40.0073 19.647L35.7579 23.8961L31.543 19.681L30.6895 18.8274V20.0345V26.996H29.1632V15.1423Z" stroke="#D9D9DE"/>
    <path d="M69.9067 20.65L74.7393 25.4828L73.6601 26.5621L68.8272 21.7294L68.4737 21.3759L68.1201 21.7294L63.2873 26.5621L62.208 25.4828L67.0403 20.65L67.3938 20.2964L67.0403 19.9429L62.0434 14.9458L63.1227 13.8665L68.1202 18.8635L68.4737 19.217L68.8272 18.8635L73.8247 13.8665L74.904 14.9458L69.9067 19.9429L69.5531 20.2964L69.9067 20.65Z" stroke="#D9D9DE"/>
</svg>
