<svg width="104" height="42" viewBox="0 0 104 42" fill="none" xmlns="http://www.w3.org/2000/svg">
    <path d="M25.2105 9.31578H78.8947C79.9412 9.31578 80.7895 10.1641 80.7895 11.2105V30.7895C80.7895 31.8359 79.9412 32.6842 78.8947 32.6842H25.2105C24.1641 32.6842 23.3158 31.8359 23.3158 30.7895V11.2105C23.3158 10.1641 24.1641 9.31578 25.2105 9.31578Z" fill="white"/>
    <path d="M25.2105 9H78.8947C80.1156 9 81.1053 9.98969 81.1053 11.2105V30.7895C81.1053 32.0103 80.1156 33 78.8947 33H25.2105C23.9897 33 23 32.0103 23 30.7895V11.2105C23 9.98969 23.9897 9 25.2105 9ZM25.2105 9.63158C24.3385 9.63158 23.6316 10.3385 23.6316 11.2105V30.7895C23.6316 31.6615 24.3385 32.3684 25.2105 32.3684H78.8947C79.7668 32.3684 80.4737 31.6615 80.4737 30.7895V11.2105C80.4737 10.3385 79.7668 9.63158 78.8947 9.63158H25.2105Z" fill="#EAEAEA"/>
    <path d="M53.9474 13.5625L53.9472 23.1971L57.4862 19.6588L59.2725 21.4452L52.7309 27.9863L46.1068 21.3622L47.8932 19.5759L51.4209 23.1036L51.4211 13.5625H53.9474Z" fill="black"/>
    <path d="M31.1895 27.496V20.0345L35.7578 24.6032L40.3608 20.0006V27.4206H42.8872V13.9018L35.758 21.0305L28.6632 13.9352V27.496H31.1895Z" fill="black"/>
    <path d="M73.8247 13.1594L75.6111 14.9458L70.2602 20.2964L75.4464 25.4828L73.6601 27.2692L68.4737 22.083L63.2873 27.2692L61.5009 25.4828L66.6867 20.2964L61.3363 14.9458L63.1226 13.1594L68.4737 18.5099L73.8247 13.1594Z" fill="#F9AC00"/>
</svg>
