<svg width="104" height="42" viewBox="0 0 104 42" fill="none" xmlns="http://www.w3.org/2000/svg">
    <g clip-path="url(#clip0_5_294)">
        <path d="M38.2222 29.0714H21.5V9.5H82.5V29.0714H52H51.5V29.5714V32.5H38.7222V29.5714V29.0714H38.2222ZM23.9444 26.1429V26.6429H24.4444H31.3333H31.8333V26.1429V16.3571H34.2778V26.1429V26.6429H34.7778H38.2222H38.7222V26.1429V12.4286V11.9286H38.2222H24.4444H23.9444V12.4286V26.1429ZM41.6667 11.9286H41.1667V12.4286V29.5714V30.0714H41.6667H48.5556H49.0556V29.5714V26.6429H55.4444H55.9444V26.1429V12.4286V11.9286H55.4444H41.6667ZM58.8889 11.9286H58.3889V12.4286V26.1429V26.6429H58.8889H65.7778H66.2778V26.1429V16.3571H68.7222V26.1429V26.6429H69.2222H72.6667H73.1667V26.1429V16.3571H75.6111V26.1429V26.6429H76.1111H79.5556H80.0556V26.1429V12.4286V11.9286H79.5556H58.8889ZM49.0556 16.3571H51.5V22.2143H49.0556V16.3571Z" stroke="#D9D9DE"/>
        <path d="M31.3333 15.3571H30.8333V15.8571V25.6428H24.9444V12.9286H37.7222V25.6428H35.2778V15.8571V15.3571H34.7778H31.3333Z" stroke="#D9D9DE"/>
        <path d="M48.5556 25.6428H48.0556V26.1428V29.0714H42.1667V12.9286H54.9444V25.6428H48.5556ZM52 23.2143H52.5V22.7143V15.8571V15.3571H52H48.5556H48.0556V15.8571V22.7143V23.2143H48.5556H52Z" stroke="#D9D9DE"/>
        <path d="M65.7778 15.3571H65.2778V15.8571V25.6428H59.3889V12.9286H79.0556V25.6428H76.6111V15.8571V15.3571H76.1111H72.6667H72.1667V15.8571V25.6428H69.7222V15.8571V15.3571H69.2222H65.7778Z" stroke="#D9D9DE"/>
    </g>
    <defs>
        <clipPath id="clip0_5_294">
            <rect width="62" height="24" fill="white" transform="translate(21 9)"/>
        </clipPath>
    </defs>
</svg>
