<svg xmlns="http://www.w3.org/2000/svg" xmlns:xlink="http://www.w3.org/1999/xlink" xmlns:inkscape="http://www.inkscape.org/namespaces/inkscape" version="1.1" width="42" height="42" viewBox="0 0 42 42">
    <defs>
        <clipPath id="clip_0">
            <path transform="matrix(1,0,0,-1,0,42)" d="M11.098849 17.849928H.016663C.018763 17.795313 .020163 17.741398 .022964 17.687483 .027164 17.583155 .034866 17.479529 .041167 17.3752 .043967 17.330388 .046068 17.285576 .049568 17.241463 .05797 17.12103 .068471 17.000599 .079673 16.880866 .082474 16.853558 .084574 16.82625 .087375 16.800343 .099977 16.666607 .114679 16.532872 .130082 16.400534 .130782 16.387932 .132182 16.374629 .134283 16.362025 .151786 16.219187 .169989 16.075648 .190992 15.93351 .190992 15.931408 .190992 15.929306 .191692 15.927906 .319464 15.042381 .510859 14.167213 .76439 13.309198 .76579 13.305696 .76719 13.302197 .76789 13.298695 .807797 13.162859 .849804 13.028421 .892512 12.894684 .895312 12.886982 .898113 12.87858 .900213 12.870878 .902313 12.863176 .905114 12.855474 .907914 12.847073 .947121 12.725939 .988428 12.605507 1.029735 12.484375 1.040237 12.454266 1.050739 12.423458 1.061941 12.392651 1.099047 12.288322 1.136853 12.183992 1.17606 12.078964 1.194263 12.032051 1.211766 11.98514 1.229269 11.937527 1.263575 11.850704 1.29648 11.76458 1.330786 11.678455 1.356691 11.613338 1.383295 11.54822 1.4106 11.483803 1.438605 11.415884 1.466609 11.349367 1.495314 11.281448 1.53032 11.198826 1.567426 11.116905 1.603833 11.034283 1.625536 10.98527 1.64794 10.936956 1.669644 10.887943 1.714451 10.789217 1.760659 10.690489 1.807567 10.592463 1.82297 10.560955 1.837672 10.529444 1.853075 10.498636 1.907684 10.385204 1.962994 10.273876 2.019003 10.162546 2.028805 10.145741 2.036506 10.128235 2.045608 10.111431 2.108618 9.988197 2.173029 9.865665 2.239541 9.743832 2.242341 9.738228 2.245842 9.73333 2.247942 9.727028 2.261945 9.70182 2.277347 9.677315 2.29135 9.652107L11.756261 15.353752 11.791266 15.374758C11.418103 16.16177 11.185664 16.999197 11.098849 17.849928Z" clip-rule="evenodd"/>
        </clipPath>
        <clipPath id="clip_1">
            <path transform="matrix(1,0,0,-1,0,42)" d="M13.823166 12.761656 13.796562 12.735048 5.990234 4.928635C6.030141 4.891525 6.070048 4.853012 6.111355 4.817303 6.184167 4.750786 6.25838 4.685669 6.331893 4.620552 6.370399 4.586941 6.407506 4.553333 6.446012 4.519722 6.534227 4.443405 6.623842 4.369179 6.712757 4.294258 6.737261 4.273956 6.760365 4.254349 6.784869 4.234047 6.898319 4.140678 7.012914 4.048714 7.128628 3.958168 7.239247 3.870647 7.350566 3.785923 7.463985 3.7005 7.468886 3.697701 7.472387 3.694901 7.476587 3.691399 7.947577 3.339478 8.434937 3.010025 8.937036 2.704132 8.953838 2.692928 8.971341 2.683125 8.988844 2.671921 9.084761 2.615208 9.179976 2.558495 9.276593 2.50248L9.453023 2.401649C9.509033 2.369442 9.564342 2.338631 9.620352 2.307823 9.721869 2.252506 9.823386 2.197193 9.925604 2.14328 9.939606 2.135578 9.953609 2.127876 9.968311 2.120872 10.25186 1.972435 10.540308 1.834496 10.831558 1.701462L11.108806 2.37434 15.035072 11.908825 15.049076 11.943834C14.620604 12.173496 14.209632 12.445169 13.823166 12.761656Z" clip-rule="evenodd"/>
        </clipPath>
        <clipPath id="clip_2">
            <path transform="matrix(1,0,0,-1,0,42)" d="M13.010342 13.539557C12.926449 13.632942 12.845202 13.728672 12.766699 13.826632 12.696687 13.912756 12.629477 13.99958 12.564365 14.087805 12.489453 14.188631 12.41664 14.290859 12.347328 14.394487 12.278017 14.498816 12.209404 14.603846 12.144993 14.710274L2.668182 9.001625C2.813807 8.759361 2.965033 8.524097 3.120459 8.291634 3.12536 8.28323 3.130261 8.27483 3.135862 8.267128 3.137262 8.263626 3.139362 8.261524 3.141463 8.258022 3.146363 8.251022 3.151264 8.242619 3.156165 8.234917 3.156865 8.234219 3.157565 8.233517 3.157565 8.232117 3.170167 8.213913 3.18277 8.195709 3.195372 8.176804 3.196072 8.176102 3.196772 8.174702 3.198173 8.173302 3.199573 8.171902 3.198873 8.1726 3.198873 8.171902 3.3634 7.928936 3.532829 7.689468 3.707159 7.455605 3.71066 7.450706 3.71486 7.445805 3.718361 7.440903 3.722562 7.436001 3.726062 7.431099 3.729563 7.426201 3.805876 7.326073 3.881488 7.225945 3.959902 7.126518 3.970404 7.113216 3.980205 7.100609 3.991407 7.088005 4.071221 6.985077 4.153135 6.883553 4.236449 6.783424 4.256052 6.759617 4.276356 6.735809 4.295959 6.711304 4.370872 6.621681 4.445785 6.532757 4.522098 6.444534 4.555003 6.406723 4.588609 6.36821 4.622214 6.3311 4.687325 6.256882 4.751737 6.182663 4.818248 6.109844 4.854654 6.069931 4.89246 6.02932 4.929566 5.98941 4.946369 5.970505 4.963173 5.953003 4.980676 5.934097 5.028984 5.88158 5.077292 5.829067 5.1263 5.777252 5.145904 5.75695 5.166907 5.736641 5.186511 5.715637 5.272625 5.626011 5.36014 5.535686 5.448355 5.447464L13.266585 13.265081C13.17697 13.354706 13.092956 13.447132 13.010342 13.539557Z" clip-rule="evenodd"/>
        </clipPath>
        <clipPath id="clip_3">
            <path transform="matrix(1,0,0,-1,0,42)" d="M23.372778 12.765848C23.286664 12.696529 23.199849 12.628613 23.111634 12.563494L23.130537 12.530586 28.830906 3.06892C29.09485 3.241165 29.355998 3.419018 29.61084 3.605968 30.162533 4.012779 30.696022 4.453899 31.21061 4.928627L23.403584 12.735039 23.372778 12.765848Z" clip-rule="evenodd"/>
        </clipPath>
        <clipPath id="clip_4">
            <path transform="matrix(1,0,0,-1,0,42)" d="M28.00268 2.991207 27.809447 3.312599 22.48854 12.144091C22.380722 12.079674 22.270804 12.020859 22.160885 11.962044 22.049567 11.901827 21.938246 11.846508 21.824826 11.792595 20.802653 11.308064 19.696465 11.060198 18.588177 11.060198 17.862154 11.060198 17.13683 11.165226 16.43531 11.374582 16.31559 11.410294 16.19867 11.457203 16.08105 11.499214 15.962729 11.540525 15.843009 11.576939 15.726789 11.624552L11.803322 2.096367 11.649996 1.723167 11.518373 1.403179 11.517673 1.401775C11.527475 1.397575 11.537977 1.394077 11.547778 1.389874 11.55898 1.385674 11.569483 1.382172 11.579985 1.377274H11.581385C11.584185 1.37587 11.586986 1.375172 11.589087 1.374474 11.681501 1.33596 11.774617 1.303753 11.867733 1.267342 11.984653 1.221828 12.100873 1.175617 12.217793 1.132908 12.278004 1.111202 12.336813 1.085991 12.396323 1.064987H12.397023C13.626601 .63097 14.89815 .326607 16.190968 .156841 16.242077 .150539 16.291787 .143539 16.342896 .136539 16.395405 .130238 16.448613 .125336 16.501822 .119034 16.601239 .10783 16.700655 .096626 16.800772 .086823L16.874985 .080521C16.997506 .068615 17.120026 .058113 17.241848 .049709 17.283856 .046211 17.325863 .044811 17.367169 .041309 17.474287 .034306 17.581406 .028004 17.688523 .023102 17.754334 .018902 17.820145 .017502 17.885956 .014702 17.97137 .011902 18.056088 .0084 18.1415 .0056 18.264023 .002796 18.387944 .002098 18.511164 .001396 18.54057 .001396 18.569275 .000702 18.598679 0 19.631356 0 20.66403 .086124 21.685505 .257668 21.702307 .260471 21.719809 .263271 21.737313 .265369 21.84513 .284275 21.95295 .304585 22.060769 .324188 22.12238 .33609 22.184689 .347996 22.244898 .359898 22.307909 .373203 22.371623 .385803 22.434632 .399807 22.53965 .421513 22.644667 .444622 22.750384 .469128 22.769288 .473328 22.78819 .47683 22.807095 .482433 24.359959 .843731 25.859614 1.403881 27.268254 2.145382V2.14608C27.360669 2.194393 27.450985 2.24971 27.5427 2.300121 27.651919 2.359638 27.760437 2.421955 27.869656 2.484272 27.944569 2.526985 28.020882 2.566895 28.095795 2.611706 28.096495 2.612408 28.097195 2.61311 28.097895 2.61311H28.098595C28.099995 2.613808 28.100695 2.614506 28.102095 2.615208L28.103497 2.616608C28.104197 2.616608 28.104897 2.61731 28.105597 2.61731 28.106997 2.618011 28.107697 2.61871 28.109097 2.619408 28.113297 2.622208 28.117499 2.62431 28.121699 2.62711 28.145503 2.641815 28.170008 2.655823 28.194512 2.670525L28.00268 2.991207ZM13.827366 24.432419C13.913481 24.502438 14.000997 24.569655 14.088511 24.635474L14.069608 24.667683 8.369238 34.130044C8.104593 33.9571 7.843448 33.77855 7.587904 33.5916 7.036911 33.18549 6.50272 32.74507 5.989532 32.27104L13.796562 24.463927 13.827366 24.432419Z" clip-rule="evenodd"/>
        </clipPath>
        <clipPath id="clip_5">
            <path transform="matrix(1,0,0,-1,0,42)" d="M5.448327 31.750798C5.359412 31.661873 5.275398 31.570149 5.188583 31.480525 5.102468 31.3902 5.014253 31.300576 4.929539 31.209549 4.35956 30.593297 3.831869 29.93923 3.35007 29.25182 3.326966 29.22031 3.304562 29.186703 3.281458 29.154494 3.228249 29.076073 3.17504 28.998353 3.123231 28.91993 3.068622 28.838707 3.014713 28.756085 2.962204 28.674164 2.9426 28.644055 2.922997 28.613247 2.904094 28.583138 1.108289 25.766276 .146325 22.571309 .016803 19.349736 .011902 19.224404 .009102 19.099072 .006301 18.974438 .004201 18.849804 0 18.724469 0 18.599835H11.056982C11.056982 18.724469 11.068184 18.849102 11.075185 18.974438 11.081486 19.09977 11.082887 19.225102 11.095489 19.349736 11.238313 20.789326 11.794208 22.195307 12.763172 23.375828 12.841585 23.471753 12.930501 23.562079 13.015216 23.654503 13.09853 23.747628 13.176943 23.843556 13.266558 23.93318L5.448327 31.750798ZM28.261708 34.49554C28.247006 34.504644 28.230904 34.513746 28.2162 34.52285 28.118885 34.582365 28.020867 34.63978 27.92215 34.697198 27.86544 34.730104 27.808033 34.762315 27.751322 34.79452 27.693213 34.82673 27.636504 34.85894 27.578394 34.89045 27.478423 34.944868 27.378306 34.999017 27.278042 35.05289 27.261939 35.060594 27.246537 35.068998 27.230435 35.0774 26.582123 35.41629 25.91631 35.71457 25.236495 35.97364 25.21899 35.980646 25.201489 35.987646 25.183985 35.993947 25.03556 36.049264 24.887135 36.104578 24.737309 36.15639 23.529059 36.577875 22.280739 36.874208 21.011975 37.04073L20.856549 37.061738C20.804039 37.06804 20.75223 37.072938 20.700423 37.07854 20.600304 37.090444 20.500889 37.101648 20.400073 37.11145 20.372767 37.11425 20.34476 37.11565 20.316058 37.119153 20.197737 37.129655 20.078017 37.140157 19.958996 37.149259L19.819672 37.15766C19.718155 37.163965 19.614537 37.171667 19.51302 37.175867 19.45841 37.17867 19.403803 37.180768 19.349894 37.182168V26.098866C19.91839 26.04005 20.481986 25.918917 21.028779 25.733368L29.185866 33.889879C28.882716 34.099935 28.576762 34.30439 28.261708 34.49554Z" clip-rule="evenodd"/>
        </clipPath>
        <clipPath id="clip_6">
            <path transform="matrix(1,0,0,-1,0,42)" d="M18.22551 37.19127C18.100188 37.18847 17.974867 37.18847 17.850247 37.183568 17.068213 37.152059 16.287579 37.072237 15.513247 36.942 15.496445 36.9392 15.479642 36.9364 15.462139 36.9336 15.353621 36.914697 15.245802 36.89509 15.137983 36.874784 15.077073 36.86288 15.015463 36.851678 14.953854 36.839776 14.890142 36.82717 14.827131 36.813867 14.76342 36.799863 14.658402 36.778158 14.553385 36.75505 14.449066 36.730546 14.429463 36.727045 14.410561 36.72214 14.391657 36.71794 12.839642 36.355546 11.340234 35.796476 9.929797 35.05429 9.838081 35.00528 9.748466 34.949964 9.656752 34.90025 9.547533 34.840036 9.438314 34.778417 9.329796 34.7161 9.249282 34.669187 9.167368 34.626474 9.086854 34.57886 9.086154 34.578165 9.084753 34.57746 9.084053 34.57746 9.078452 34.57396 9.072852 34.57046 9.067251 34.567659 9.046247 34.554357 9.024544 34.543855 9.00354 34.53125L9.00424 34.52985 9.198174 34.20846 14.711611 25.054883C14.819429 25.1193 14.929349 25.178818 15.039268 25.237633 15.149887 25.29715 15.261906 25.353165 15.374624 25.40638 16.153807 25.778294 16.991288 26.013031 17.850247 26.100266 17.974867 26.11287 18.099488 26.123373 18.22481 26.129673 18.34943 26.135975 18.47475 26.142277 18.600073 26.142277V37.19897C18.47475 37.19897 18.350129 37.19337 18.22551 37.19127Z" clip-rule="evenodd"/>
        </clipPath>
        <clipPath id="clip_7">
            <path transform="matrix(1,0,0,-1,0,42)" d="M37.177064 19.51358C37.171464 19.613007 37.16586 19.711735 37.15886 19.811863 37.15629 19.861386 37.153024 19.91087 37.14906 19.960303 37.141359 20.077233 37.131555 20.194167 37.120355 20.311099 37.11825 20.341206 37.11545 20.371315 37.11265 20.401423 37.10005 20.532359 37.086053 20.662594 37.07065 20.792828 37.06925 20.803332 37.068544 20.813834 37.067144 20.824337L37.065046 20.839043C37.04824 20.979779 37.029336 21.120518 37.009737 21.260556L37.007638 21.273859C36.879999 22.157679 36.68907 23.031193 36.436338 23.887665 36.434236 23.893967 36.43284 23.89887 36.430738 23.904473 36.39083 24.038208 36.349527 24.170544 36.308218 24.30288 36.301916 24.320384 36.296316 24.337889 36.290716 24.355393 36.251508 24.475125 36.211599 24.594159 36.17029 24.71319L36.13669 24.809817C36.10028 24.912745 36.062479 25.015673 36.02467 25.1186 36.005769 25.167614 35.987565 25.216628 35.96796 25.26494 35.935754 25.350363 35.902849 25.435086 35.868539 25.51911 35.841936 25.587027 35.814634 25.653546 35.787328 25.719365 35.760026 25.785881 35.732019 25.850998 35.704713 25.916817 35.668306 26.00084 35.631204 26.084862 35.594095 26.168185 35.57309 26.215096 35.552087 26.26271 35.530385 26.310322 35.484876 26.40975 35.43797 26.509877 35.39106 26.609303 35.376359 26.638712 35.361658 26.669522 35.346956 26.699629 35.292345 26.81306 35.236337 26.927189 35.178926 27.039219 35.171224 27.054625 35.162824 27.070729 35.15512 27.086133 35.091409 27.210066 35.025598 27.334702 34.959787 27.457234 34.956987 27.461434 34.954885 27.466336 34.952085 27.470538 34.6306 28.061444 34.277463 28.634568 33.894205 29.187403L25.735016 21.027394C25.920548 20.480545 26.040968 19.916892 26.099778 19.349038H37.184068C37.181268 19.404355 37.179864 19.459668 37.177064 19.51358Z" clip-rule="evenodd"/>
        </clipPath>
        <clipPath id="clip_8">
            <path transform="matrix(1,0,0,-1,0,42)" d="M26.14317 18.599833C26.14317 18.474499 26.131268 18.349865 26.124966 18.224532 26.118664 18.099198 26.116566 17.973864 26.103964 17.84993 25.96114 16.40964 25.405943 15.003658 24.436978 13.822437 24.358565 13.726511 24.269652 13.636889 24.184937 13.543762 24.100922 13.451338 24.023209 13.355412 23.933594 13.265789L31.751824 5.44817C31.840739 5.537094 31.924054 5.628819 32.010869 5.719143 32.097684 5.809467 32.185899 5.898392 32.269914 5.990116 32.84821 6.616787 33.3775 7.272163 33.85358 7.953449 33.873186 7.980759 33.890687 8.007362 33.90959 8.03397 33.9677 8.117294 34.02371 8.202019 34.08112 8.286041 34.13083 8.36166 34.180536 8.436581 34.228845 8.512901 34.25335 8.549309 34.277154 8.58712 34.300256 8.623528 36.09326 11.438992 37.053125 14.630459 37.181947 17.84993 37.186849 17.974564 37.18965 18.099898 37.19175 18.225232 37.19455 18.349865 37.198049 18.474499 37.198049 18.599833H26.14317Z" clip-rule="evenodd"/>
        </clipPath>
        <clipPath id="clip_9">
            <path transform="matrix(1,0,0,-1,0,42)" d="M40.48302 40.482866C38.460378 42.50571 35.181016 42.50571 33.15837 40.482866 31.544598 38.86963 31.221842 36.457475 32.183107 34.52075L20.899985 23.237195C18.963456 24.197855 16.550845 23.875767 14.93707 22.26253 12.914426 20.239682 12.915126 16.959994 14.93707 14.937145 16.960415 12.914297 20.240473 12.914997 22.263117 14.937145 23.876893 16.551083 24.198948 18.963236 23.237683 20.899962L34.520807 32.182817C36.45803 31.222157 38.869249 31.544243 40.48302 33.15818 42.505666 35.18033 42.505666 38.46002 40.48302 40.482866Z" clip-rule="evenodd"/>
        </clipPath>
    </defs>
    <g clip-path="url(#clip_0)">
        <path transform="matrix(1,0,0,-1,.016663,32.347894)" d="M11.082187 8.197821 12.07702 8.299341 11.985332 9.197821H11.082187V8.197821ZM0 8.197821V9.197821H-1.039197L-.999261 8.159391 0 8.197821ZM.006301 8.035377 1.005559 8.075611 1.004955 8.087249 .006301 8.035377ZM.024504 7.723092-.973679 7.662806-.973549 7.66072 .024504 7.723092ZM.032906 7.589355 1.030527 7.65895 1.029772 7.668464 .032906 7.589355ZM.063011 7.228758-.932681 7.135604-.931772 7.12674 .063011 7.228758ZM.070712 7.148235 1.066395 7.24206 1.06492 7.255706 .070712 7.148235ZM.113419 6.748427 1.11188 6.803892 1.110205 6.834043 1.106714 6.864038 .113419 6.748427ZM.11762 6.709918 1.110196 6.831545 1.107568 6.852989 1.104017 6.8743 .11762 6.709918ZM.17433 6.281402H1.17433V6.354887L1.163588 6.427583 .17433 6.281402ZM.17503 6.275799 1.16478 6.41861 1.141711 6.578491 1.069475 6.722977 .17503 6.275799ZM.747727 3.657091-.211282 3.373717-.198073 3.329013-.180762 3.285732 .747727 3.657091ZM.751228 3.646588-.229357 3.450491-.220687 3.407136-.208224 3.364716 .751228 3.646588ZM.875849 3.242578-.076758 2.938372-.070728 2.919492-.063955 2.900865 .875849 3.242578ZM.891252 3.194965 1.842694 3.502915 1.839945 3.511164 .891252 3.194965ZM1.013072 2.832267 .066567 2.509503 .068862 2.502924 1.013072 2.832267ZM1.045278 2.740542 1.987482 3.075655 1.985082 3.082255 1.045278 2.740542ZM1.159397 2.426857 .222467 2.077105 .227119 2.065114 1.159397 2.426857ZM1.212606 2.285419 .274017 1.940384 .27816 1.929112 .282573 1.917943 1.212606 2.285419ZM1.314124 2.026348 2.2433 2.395984 2.243133 2.396404 1.314124 2.026348ZM1.393937 1.831696 2.318476 2.21291 2.314642 2.221955 1.393937 1.831696ZM1.478652 1.629342 .557539 1.240045 .557886 1.239226 1.478652 1.629342ZM1.58717 1.382175 .672067 .97895 .672806 .977283 1.58717 1.382175ZM1.652981 1.235836 .738578 .830926 .742378 .822554 1.652981 1.235836ZM1.790905 .940356 .888831 .508692 .892503 .501181 1.790905 .940356ZM1.836412 .846529 2.737431 1.280309 2.734195 1.287032 2.730858 1.293706 1.836412 .846529ZM2.002341 .510438 1.109022 .061015 1.122938 .033353 1.13854 .006605 2.002341 .510438ZM2.028945 .459323 2.919307 .914577 2.913907 .925138 2.908257 .93557 2.028945 .459323ZM2.222878 .091724 3.117323 .538902 3.109251 .555048 3.100601 .570892 2.222878 .091724ZM2.23128 .074921 1.282587-.241279 1.311972-.329445 1.357102-.410686 2.23128 .074921ZM2.274687-.000001 1.400509-.485606 1.903479-1.391042 2.790693-.856586 2.274687-.000001ZM11.739598 5.701645 11.225079 6.559126 11.223593 6.55823 11.739598 5.701645ZM11.774604 5.72265 12.289123 4.86517 13.066675 5.33173 12.678179 6.151081 11.774604 5.72265ZM11.082187 9.197821H0V7.197821H11.082187V9.197821ZM-.999261 8.159391C-.99783 8.122169-.995577 8.045568-.992353 7.983503L1.004955 8.087249C1.002578 8.133013 1.00203 8.164243 .999261 8.23625L-.999261 8.159391ZM-.992889 7.995144C-.988159 7.877674-.978855 7.748533-.973677 7.662806L1.022685 7.783379C1.015261 7.906308 1.009163 7.984422 1.005491 8.075608L-.992889 7.995144ZM-.973549 7.66072C-.972122 7.637885-.968262 7.564447-.96396 7.510247L1.029772 7.668464C1.027072 7.702488 1.026731 7.718676 1.022557 7.785464L-.973549 7.66072ZM-.96467 7.519764C-.955495 7.388239-.944196 7.259109-.932641 7.135608L1.058663 7.321909C1.047814 7.437872 1.038109 7.549607 1.030481 7.658947L-.96467 7.519764ZM-.931772 7.12674C-.931094 7.120127-.930451 7.113053-.929033 7.097448-.927847 7.084403-.925926 7.063243-.923496 7.040764L1.06492 7.255706C1.059027 7.310225 1.067417 7.236935 1.057793 7.330777L-.931772 7.12674ZM-.924878 7.054419C-.911335 6.910701-.895735 6.76908-.879875 6.632817L1.106714 6.864038C1.091768 6.992446 1.077963 7.118296 1.066302 7.242051L-.924878 7.054419ZM-.885041 6.692963C-.882513 6.64745-.87745 6.597578-.868777 6.545535L1.104017 6.8743C1.108489 6.847465 1.110752 6.824197 1.11188 6.803892L-.885041 6.692963ZM-.874956 6.588291C-.857224 6.443587-.837807 6.290048-.814928 6.135221L1.163588 6.427583C1.144459 6.557033 1.12747 6.690571 1.110196 6.831545L-.874956 6.588291ZM-.82567 6.281402C-.82567 6.28138-.82567 6.280597-.825669 6.279705-.825668 6.278742-.825665 6.277226-.825655 6.275381-.825637 6.271801-.825589 6.265872-.825433 6.258573-.825143 6.244937-.824358 6.219521-.821479 6.18784-.81712 6.139862-.802006 5.99382-.719415 5.828622L1.069475 6.722977C1.151366 6.559178 1.166129 6.414888 1.170314 6.368837 1.175094 6.316227 1.17433 6.269966 1.17433 6.281402H-.82567ZM-.81472 6.132989C-.68009 5.199933-.478422 4.277789-.211282 3.373717L1.706737 3.940464C1.466815 4.752424 1.285693 5.580616 1.16478 6.41861L-.81472 6.132989ZM-.180762 3.285732C-.178596 3.280315-.186259 3.299034-.194122 3.321499-.202622 3.345787-.217526 3.391335-.229357 3.450491L1.731812 3.842685C1.719282 3.905343 1.703328 3.954391 1.693602 3.98218 1.688514 3.996716 1.684036 4.008486 1.681214 4.01577 1.678594 4.022531 1.676222 4.028437 1.676217 4.028449L-.180762 3.285732ZM-.208224 3.364716C-.165228 3.218365-.120617 3.075718-.076758 2.938372L1.828456 3.546782C1.786901 3.676909 1.747498 3.803138 1.71068 3.928461L-.208224 3.364716ZM-.063955 2.900865C-.065785 2.905896-.068123 2.912543-.070776 2.920679-.073327 2.928503-.077069 2.940456-.08122 2.955678L1.848321 3.481864C1.836531 3.5251 1.824012 3.561302 1.815654 3.58429L-.063955 2.900865ZM-.08122 2.955678C-.073084 2.925842-.065244 2.902003-.061552 2.890924-.059686 2.885327-.057928 2.880176-.057463 2.878809-.056652 2.876428-.056964 2.877335-.057441 2.878766L1.839945 3.511164C1.838067 3.516796 1.836355 3.521817 1.835787 3.523484 1.834874 3.526165 1.835276 3.524995 1.835829 3.523337 1.836506 3.521307 1.838139 3.516371 1.840212 3.5097 1.842314 3.502935 1.845167 3.493431 1.848321 3.481864L-.08122 2.955678ZM-.060155 2.887026C-.017981 2.756726 .026301 2.627659 .06659 2.509511L1.959555 3.155024C1.91723 3.279141 1.878897 3.390938 1.842658 3.502903L-.060155 2.887026ZM.068862 2.502924C.076271 2.481682 .091282 2.43786 .105473 2.39883L1.985082 3.082255C1.97687 3.104842 1.970877 3.122636 1.957283 3.16161L.068862 2.502924ZM.103097 2.405438C.141519 2.29741 .181131 2.188073 .222544 2.077134L2.09625 2.77658C2.05925 2.875698 2.023249 2.975019 1.987459 3.075647L.103097 2.405438ZM.227119 2.065114C.24229 2.026016 .257511 1.985283 .274017 1.940384L2.151196 2.630455C2.132695 2.680782 2.112911 2.733872 2.091675 2.7886L.227119 2.065114ZM.282573 1.917943C.307025 1.856059 .354478 1.733203 .385114 1.656292L2.243133 2.396404C2.205158 2.49174 2.186799 2.541133 2.142639 2.652895L.282573 1.917943ZM.384947 1.656713C.413107 1.585925 .442551 1.51382 .473232 1.441436L2.314642 2.221955C2.290714 2.278406 2.266949 2.336537 2.2433 2.395984L.384947 1.656713ZM.469443 1.4505C.499194 1.378346 .528604 1.308509 .557539 1.240045L2.399764 2.018639C2.371289 2.086012 2.34469 2.149208 2.318431 2.212892L.469443 1.4505ZM.557886 1.239226C.596516 1.14805 .641282 1.04882 .672069 .978951L2.502271 1.785399C2.460246 1.880775 2.430799 1.94539 2.399417 2.019458L.557886 1.239226ZM.672806 .977283C.685698 .948169 .698511 .919909 .709245 .896224 .720565 .871246 .729805 .850843 .738617 .830944L2.567346 1.640728C2.554454 1.669842 2.54164 1.698102 2.530906 1.721786 2.519586 1.746764 2.510346 1.767168 2.501534 1.787067L.672806 .977283ZM.742378 .822554C.790396 .716754 .839512 .611839 .888863 .508708L2.692947 1.372004C2.648482 1.464925 2.605182 1.557464 2.563584 1.649117L.742378 .822554ZM.892503 .501181C.894197 .497716 .927035 .429219 .941967 .399351L2.730858 1.293706C2.714985 1.325455 2.718418 1.319978 2.689306 1.37953L.892503 .501181ZM.935394 .412748C.993465 .292127 1.051601 .175149 1.109022 .061015L2.895659 .959862C2.841061 1.068388 2.788579 1.174068 2.737431 1.280309L.935394 .412748ZM1.13854 .006605C1.131745 .018253 1.126835 .027411 1.124167 .032489 1.121664 .037251 1.120267 .040091 1.121457 .03771 1.122262 .036098 1.122494 .035628 1.124207 .032193 1.12551 .02958 1.127478 .02564 1.129717 .021206 1.134139 .012451 1.141062-.001098 1.149633-.016922L2.908257 .93557C2.912277 .928147 2.914825 .923088 2.914936 .922867 2.91502 .9227 2.91485 .923037 2.914017 .924707 2.913594 .925556 2.911693 .929374 2.910354 .932052 2.904881 .942999 2.888391 .976126 2.866142 1.014271L1.13854 .006605ZM1.138583 .00407C1.205005-.125834 1.27365-.256464 1.345155-.387444L3.100601 .570892C3.039084 .683578 2.978907 .798015 2.919307 .914577L1.138583 .00407ZM1.328433-.355453C1.339784-.378158 1.349632-.395743 1.352928-.401619 1.353998-.403526 1.356552-.408049 1.355252-.405745 1.355012-.405319 1.353066-.401874 1.350528-.397246 1.340766-.379444 1.309353-.321584 1.282587-.241279L3.179973 .391119C3.151107 .477726 3.116893 .541187 3.104155 .564415 3.100873 .5704 3.098172 .575191 3.097175 .576959 3.095117 .580606 3.096911 .577424 3.097226 .576862 3.099012 .573677 3.107373 .558805 3.117323 .538902L1.328433-.355453ZM1.357102-.410686C1.371777-.437103 1.38608-.461165 1.392274-.471637 1.400783-.486022 1.401182-.486816 1.400509-.485606L3.148865 .485605C3.13419 .512022 3.119887 .536085 3.113693 .546556 3.105184 .560942 3.104785 .561737 3.105458 .560526L1.357102-.410686ZM2.790693-.856586 12.255604 4.84506 11.223593 6.55823 1.758682 .856585 2.790693-.856586ZM12.254117 4.844166 12.289123 4.86517 11.260086 6.580129 11.22508 6.559124 12.254117 4.844166ZM12.678179 6.151081C12.35382 6.835164 12.15226 7.562033 12.07702 8.299341L10.087353 8.0963C10.185742 7.132148 10.449061 6.184163 10.87103 5.294219L12.678179 6.151081Z" fill="#d9d9de"/>
    </g>
    <g clip-path="url(#clip_1)">
        <path transform="matrix(1,0,0,-1,5.990234,40.29854)" d="M7.832932 11.060194 8.466514 11.83387 7.765984 12.40755 7.125775 11.767251 7.832932 11.060194ZM7.806328 11.033587 8.513438 10.326484 8.513485 10.32653 7.806328 11.033587ZM0 3.227174-.707111 3.934278-1.440353 3.201027-.680981 2.494873 0 3.227174ZM.121121 3.115842 .795596 3.85414 .785479 3.863383 .775112 3.872344 .121121 3.115842ZM.341658 2.919089-.321432 2.170514-.315913 2.165697 .341658 2.919089ZM.455778 2.818262-.2018 2.064863-.198505 2.062012 .455778 2.818262ZM.722523 2.592798 .078142 1.82805 .084467 1.822808 .722523 2.592798ZM.794635 2.532583 .156575 1.762589 .159182 1.760444 .794635 2.532583ZM1.138394 2.256708 1.75889 3.040936 1.754636 3.044265 1.138394 2.256708ZM1.473751 1.999039 .872135 1.200253 .922659 1.162201 .977574 1.130817 1.473751 1.999039ZM1.486353 1.989936 .84613 1.221746 .866526 1.204748 .887795 1.188857 1.486353 1.989936ZM2.946801 1.00267 3.50154 1.834695 3.484535 1.846033 3.467079 1.856668 2.946801 1.00267ZM2.99861 .97046 2.459517 .128213 2.47441 .118681 2.48963 .109681 2.99861 .97046ZM3.286359 .801016 2.784781-.064119 2.790182-.067206 3.286359 .801016ZM3.462789 .700188 3.9613 1.567076 3.958966 1.56841 3.462789 .700188ZM3.630117 .60636 3.148157-.269842 3.151652-.271746 3.630117 .60636ZM3.935369 .441817 4.417325 1.318013 4.40965 1.322235 4.401901 1.326322 3.935369 .441817ZM3.978076 .419411 4.441875 1.305352 4.42512 1.314123 4.408045 1.322255 3.978076 .419411ZM4.841323-.000002 4.425839-.909602 5.370338-1.341027 5.765915-.380961 4.841323-.000002ZM5.118571 .672879 6.043163 .29192 6.043239 .292105 5.118571 .672879ZM9.044838 10.207363 9.969554 9.826569 9.97332 9.835985 9.044838 10.207363ZM9.058842 10.242373 9.987324 9.870995 10.319427 10.701288 9.53126 11.123748 9.058842 10.242373ZM7.125775 11.767251 7.099172 11.740644 8.513485 10.32653 8.540089 10.353137 7.125775 11.767251ZM7.099217 11.740689-.707111 3.934278 .707111 2.520071 8.513438 10.326484 7.099217 11.740689ZM-.680981 2.494873C-.659438 2.47484-.59246 2.410854-.532871 2.359341L.775112 3.872344C.752087 3.892249 .739251 3.905289 .680981 3.959476L-.680981 2.494873ZM-.553354 2.377544C-.473133 2.304258-.390085 2.231363-.321414 2.170534L1.004731 3.667644C.926377 3.737051 .861 3.79439 .795596 3.85414L-.553354 2.377544ZM-.315913 2.165697C-.300652 2.152377-.285129 2.138586-.265685 2.121301-.247323 2.104977-.225039 2.085158-.201794 2.06487L1.11335 3.571653C1.098088 3.584974 1.082565 3.598764 1.063121 3.61605 1.044759 3.632374 1.022476 3.652192 .99923 3.672481L-.315913 2.165697ZM-.198505 2.062012C-.103783 1.980061-.002067 1.895679 .078164 1.828075L1.366882 3.357522C1.269282 3.439759 1.191768 3.503821 1.11006 3.574512L-.198505 2.062012ZM.084467 1.822808C.094176 1.814763 .103925 1.806593 .116151 1.796345 .127729 1.786638 .141784 1.774853 .156579 1.762593L1.432691 3.302573C1.422982 3.310619 1.413232 3.318788 1.401007 3.329037 1.389428 3.338743 1.375374 3.350529 1.360579 3.362788L.084467 1.822808ZM.159182 1.760444C.278971 1.66186 .399971 1.564754 .522152 1.469151L1.754636 3.044265C1.645388 3.129748 1.537197 3.216574 1.430088 3.304723L.159182 1.760444ZM.517907 1.472491C.637839 1.377599 .756567 1.287295 .872135 1.200253L2.075366 2.797825C1.964096 2.881629 1.860186 2.960771 1.758881 3.040925L.517907 1.472491ZM.977574 1.130817C.942478 1.150874 .911845 1.171412 .885864 1.190619 .863068 1.207469 .846289 1.221615 .84613 1.221746L2.126575 2.758125C2.112921 2.769506 2.054286 2.819051 1.969928 2.867261L.977574 1.130817ZM.887795 1.188857C1.384031 .818074 1.897514 .470961 2.426523 .148673L3.467079 1.856668C2.991893 2.146164 2.530655 2.45796 2.084911 2.791016L.887795 1.188857ZM2.392062 .170646C2.419999 .15202 2.444745 .137063 2.454068 .131412 2.460932 .127251 2.461614 .126847 2.46372 .12556 2.464774 .124915 2.462904 .126045 2.459517 .128213L3.537702 1.812707C3.525563 1.820477 3.514942 1.827033 3.507267 1.831728 3.500643 1.835779 3.492617 1.840628 3.490818 1.841719 3.487359 1.843815 3.487569 1.843704 3.489002 1.84281 3.490679 1.841763 3.495231 1.838902 3.50154 1.834695L2.392062 .170646ZM2.48963 .109681C2.581859 .055146 2.683263-.00524 2.78479-.064103L3.787927 1.666134C3.696221 1.719301 3.607192 1.772344 3.507589 1.831239L2.48963 .109681ZM2.790182-.067206 2.966612-.168034 3.958966 1.56841 3.782535 1.669237 2.790182-.067206ZM2.96428-.166697C3.027872-.203266 3.089228-.237418 3.148161-.269835L4.112073 1.482556C4.058987 1.511756 4.009725 1.539225 3.961298 1.567073L2.96428-.166697ZM3.151652-.271746C3.252188-.326527 3.359637-.385089 3.468837-.442686L4.401901 1.326322C4.306667 1.376554 4.211081 1.428617 4.108582 1.484468L3.151652-.271746ZM3.453413-.434378C3.463477-.439913 3.502742-.461827 3.548108-.483433L4.408045 1.322255C4.417687 1.317663 4.424076 1.314285 4.425398 1.313582 4.42611 1.313205 4.426015 1.313249 4.424589 1.314027 4.422976 1.314906 4.421101 1.315936 4.417325 1.318013L3.453413-.434378ZM3.514278-.46653C3.818747-.625922 4.12442-.771921 4.425839-.909602L5.256808 .909598C4.975728 1.03799 4.704503 1.167864 4.441875 1.305352L3.514278-.46653ZM5.765915-.380961 6.043163 .29192 4.193979 1.05384 3.916732 .380959 5.765915-.380961ZM6.043239 .292105 9.969506 9.826589 8.120171 10.588139 4.193903 1.053655 6.043239 .292105ZM9.97332 9.835985 9.987324 9.870995 8.13036 10.61375 8.116357 10.578741 9.97332 9.835985ZM9.53126 11.123748C9.15767 11.323993 8.800978 11.559969 8.466514 11.83387L7.19935 10.286518C7.637817 9.927447 8.103067 9.620078 8.586423 9.360998L9.53126 11.123748Z" fill="#d9d9de"/>
    </g>
    <g clip-path="url(#clip_2)">
        <path transform="matrix(1,0,0,-1,2.668182,36.552537)" d="M10.342159 8.092093 11.087731 8.758522 11.086066 8.760375 10.342159 8.092093ZM10.098516 8.379169 10.878883 9.00453 10.874469 9.00996 10.098516 8.379169ZM9.896183 8.64034 10.70079 9.234157 10.69888 9.236728 9.896183 8.64034ZM9.679146 8.947023 8.846207 8.39365 8.847935 8.391067 9.679146 8.947023ZM9.47681 9.26281 10.332334 9.780574 9.815639 10.634331 8.960816 10.119402 9.47681 9.26281ZM0 3.554163-.515994 4.410755-1.371778 3.895247-.857078 3.038977 0 3.554163ZM.452277 2.844169 1.316078 3.348002 1.300627 3.374492 1.283582 3.399986 .452277 2.844169ZM.46768 2.819662 1.396169 3.19102 1.349831 3.306878 1.276444 3.407795 .46768 2.819662ZM.47328 2.810559-.384235 2.296102-.366144 2.265946-.345979 2.237136 .47328 2.810559ZM.487983 2.787454-.355703 2.250617-.296775 2.158006-.21916 2.080383 .487983 2.787454ZM.489383 2.784653H-.510617V2.472302L-.332836 2.215481 .489383 2.784653ZM.52719 2.729339-.304887 2.174678-.249965 2.092288-.179953 2.022268 .52719 2.729339ZM.53069 2.724437H-.46931V2.417709L-.297326 2.163733 .53069 2.724437ZM1.038977 2.008142 1.852738 2.589342 1.846818 2.597631 1.840731 2.605797 1.038977 2.008142ZM1.050179 1.993439 .236417 1.41224 .262116 1.376258 .29089 1.342686 1.050179 1.993439ZM1.061381 1.978735 .247619 1.397536 .256639 1.384907 .266047 1.372563 1.061381 1.978735ZM1.291719 1.679055 .506523 1.059808 .506806 1.059449 1.291719 1.679055ZM1.323225 1.640543 2.113475 2.253328 2.092935 2.279816 2.070668 2.304869 1.323225 1.640543ZM1.568267 1.33596 2.340238 1.971637 2.33696 1.975577 1.568267 1.33596ZM1.627777 1.26384 .846877 .639184 .853603 .630776 .860507 .622516 1.627777 1.26384ZM1.853915 .997068 1.097596 .342858 1.099577 .340582 1.853915 .997068ZM1.954032 .883637 2.705762 1.543108 2.700563 1.549036 2.69527 1.55488 1.954032 .883637ZM2.150066 .66238 2.888866 1.336305 2.888431 1.336781 2.150066 .66238ZM2.261384 .541945 3.008827 1.206271 3.001384 1.214646 2.993754 1.222852 2.261384 .541945ZM2.312493 .486631 3.048462 1.163654 3.046288 1.166002 2.312493 .486631ZM2.458118 .329789 1.731577-.357409 1.738682-.364769 2.458118 .329789ZM2.518328 .268172 1.787239-.414109 1.792203-.419428 1.797244-.424675 2.518328 .268172ZM2.780173-.000001 2.07303-.707072 2.780109-1.414223 3.487252-.707136 2.780173-.000001ZM10.598403 7.817617 11.305482 7.110483 12.012609 7.817554 11.305545 8.524688 10.598403 7.817617ZM11.086066 8.760375C11.014715 8.8398 10.945621 8.921211 10.878864 9.004514L9.318169 7.753823C9.408419 7.641203 9.501817 7.531157 9.598251 7.42381L11.086066 8.760375ZM10.874469 9.00996C10.814417 9.083831 10.756753 9.158319 10.700787 9.234154L9.09158 8.046527C9.165835 7.945913 9.242593 7.846752 9.322564 7.748377L10.874469 9.00996ZM10.69888 9.236728C10.631823 9.326982 10.568822 9.41557 10.510357 9.50298L8.847935 8.391067C8.928094 8.27122 9.010718 8.155354 9.093487 8.043952L10.69888 9.236728ZM10.512081 9.500394C10.44479 9.601682 10.385561 9.692624 10.332334 9.780574L8.621287 8.745046C8.696882 8.620137 8.774879 8.501022 8.846211 8.393653L10.512081 9.500394ZM8.960816 10.119402-.515994 4.410755 .515994 2.697571 9.992805 8.406218 8.960816 10.119402ZM-.857078 3.038977C-.701299 2.779818-.541066 2.530704-.379028 2.288352L1.283582 3.399986C1.134767 3.62256 .992549 3.843976 .857078 4.069348L-.857078 3.038977ZM-.411524 2.340336C-.411296 2.339945-.381429 2.287009-.341085 2.231529L1.276444 3.407795C1.293273 3.384652 1.305056 3.365993 1.310779 3.356715 1.315836 3.348519 1.319601 3.341962 1.316078 3.348002L-.411524 2.340336ZM-.46081 2.448304C-.419954 2.346153-.371536 2.274349-.353877 2.248658-.351792 2.245625-.350059 2.243138-.348927 2.241519-.347858 2.239991-.346961 2.238717-.346849 2.238557-.34597 2.237308-.348322 2.240638-.350956 2.244451-.357062 2.253285-.369632 2.271761-.384235 2.296102L1.330796 3.325017C1.315143 3.351108 1.301522 3.371159 1.294389 3.381482 1.292627 3.384031 1.291171 3.386113 1.29025 3.387428 1.289785 3.388093 1.289399 3.38864 1.289159 3.388982 1.289037 3.389155 1.288935 3.389301 1.288871 3.389392 1.288839 3.389438 1.28881 3.389479 1.288792 3.389504 1.28877 3.389535 1.288765 3.389543 1.288757 3.389553 1.288225 3.39031 1.290996 3.386386 1.294312 3.381563 1.310045 3.358674 1.356713 3.28967 1.396169 3.19102L-.46081 2.448304ZM-.345979 2.237136C-.353487 2.247863-.359163 2.256495-.362499 2.261649-.365834 2.266801-.368104 2.270452-.368436 2.270986-.36865 2.271328-.36868 2.271378-.368233 2.270655-.368081 2.27041-.366872 2.268452-.366073 2.267159-.364216 2.264159-.360361 2.257936-.355703 2.250617L1.331669 3.324291C1.333876 3.320823 1.335281 3.318538 1.334687 3.319499 1.334261 3.320186 1.334245 3.320213 1.333171 3.321951 1.332393 3.323211 1.331138 3.325241 1.3297 3.327553 1.326917 3.332025 1.322197 3.33957 1.316411 3.348508 1.310624 3.357446 1.302498 3.369755 1.292539 3.383983L-.345979 2.237136ZM-.21916 2.080383C-.205821 2.067043-.29549 2.150008-.368641 2.271976-.45955 2.423554-.510617 2.600288-.510617 2.784653H1.489383C1.489383 3.225573 1.206533 3.483117 1.195125 3.494525L-.21916 2.080383ZM-.332836 2.215481C-.319475 2.196181-.311837 2.185105-.304887 2.174678L1.359266 3.284C1.341012 3.311384 1.323446 3.336715 1.311602 3.353824L-.332836 2.215481ZM-.179953 2.022268C-.194564 2.03688-.207177 2.050404-.217742 2.062206-.228315 2.074017-.237397 2.084729-.244885 2.093834-.252381 2.102948-.258765 2.111041-.263893 2.117682-.269024 2.124327-.273325 2.130071-.276606 2.134512-.279884 2.138949-.282547 2.142633-.284339 2.145129-.28611 2.147595-.287476 2.149521-.288017 2.150285-.288307 2.150693-.288528 2.151007-.288545 2.15103-.288649 2.151178-.288431 2.15087-.288281 2.150657-.287906 2.150127-.286878 2.148674-.285568 2.146839-.274648 2.131543-.236407 2.078026-.177152 2.018766L1.237133 3.432908C1.294987 3.375048 1.332178 3.322933 1.342222 3.308863 1.343423 3.30718 1.344344 3.305878 1.344615 3.305495 1.344713 3.305357 1.34488 3.305121 1.344724 3.305341 1.344657 3.305437 1.344385 3.305821 1.344046 3.3063 1.343405 3.307205 1.341941 3.309269 1.340074 3.311869 1.338185 3.314498 1.335428 3.318312 1.332057 3.322875 1.328683 3.327442 1.324291 3.333308 1.319069 3.34007 1.31385 3.346828 1.307377 3.355034 1.299792 3.364256 1.292215 3.373469 1.283045 3.384285 1.272384 3.396194 1.261731 3.408094 1.24903 3.42171 1.234332 3.43641L-.179953 2.022268ZM-.177152 2.018766C-.168258 2.009871-.186924 2.02823-.204004 2.046728-.209861 2.053071-.250014 2.095839-.292178 2.156929-.314702 2.189564-.3543 2.250798-.389829 2.334608-.426406 2.420887-.469192 2.555706-.469135 2.725211-.469003 3.115899-.247495 3.356078-.202999 3.404144-.189894 3.418302-.153947 3.454607-.181348 3.426809-.192581 3.415415-.219209 3.387996-.249643 3.350009-.317471 3.265348-.379472 3.159601-.420459 3.033288-.459027 2.914433-.46931 2.807138-.46931 2.724437H1.53069C1.53069 2.641912 1.520429 2.534748 1.481894 2.415994 1.44094 2.289783 1.378983 2.184106 1.311198 2.0995 1.280786 2.061541 1.25418 2.034145 1.242968 2.022771 1.215587 1.994994 1.251553 2.031318 1.264675 2.045493 1.309204 2.093595 1.530734 2.333807 1.530865 2.724538 1.530922 2.894065 1.488131 3.028908 1.451542 3.115217 1.416001 3.199055 1.376384 3.260323 1.353832 3.292998 1.311613 3.354167 1.271373 3.397039 1.265385 3.403524 1.253222 3.416696 1.243221 3.426775 1.241682 3.428332 1.240054 3.429981 1.238753 3.431285 1.238188 3.431851 1.237861 3.432179 1.237592 3.432448 1.237437 3.432604 1.23729 3.432751 1.237152 3.432889 1.237133 3.432908L-.177152 2.018766ZM-.297326 2.163733C-.125172 1.909506 .053 1.657623 .237223 1.410488L1.840731 2.605797C1.676294 2.826389 1.515608 3.053437 1.358707 3.285141L-.297326 2.163733ZM.225215 1.426943C.234981 1.41327 .243321 1.402266 .248545 1.395462 .251244 1.391946 .253534 1.389004 .255099 1.387002 .256572 1.385116 .257909 1.383414 .258247 1.382985 .258872 1.382189 .258497 1.382666 .257981 1.383326 .257374 1.384103 .256035 1.38582 .254277 1.388111 .250935 1.392463 .244433 1.401017 .236417 1.41224L1.86394 2.574638C1.854174 2.588312 1.845834 2.599316 1.840611 2.60612 1.837911 2.609635 1.835621 2.612577 1.834057 2.61458 1.832584 2.616465 1.831246 2.618167 1.830908 2.618597 1.830283 2.619392 1.830658 2.618916 1.831174 2.618256 1.831781 2.617478 1.83312 2.615761 1.834878 2.613471 1.83822 2.609118 1.844723 2.600564 1.852738 2.589342L.225215 1.426943ZM.29089 1.342686C.275164 1.361033 .263279 1.376438 .25603 1.386103 .249756 1.39447 .244844 1.401423 .247619 1.397536L1.875142 2.559935C1.874568 2.560738 1.846706 2.600743 1.809468 2.644193L.29089 1.342686ZM.266047 1.372563C.338638 1.277319 .421469 1.167655 .506523 1.059808L2.076916 2.298302C2.005143 2.389308 1.936749 2.479897 1.856714 2.584908L.266047 1.372563ZM.506806 1.059449C.510222 1.055122 .540711 1.015676 .575782 .976216L2.070668 2.304869C2.078736 2.295791 2.084011 2.289283 2.084996 2.288064 2.085449 2.287505 2.085248 2.287745 2.083745 2.289645 2.083004 2.290581 2.082145 2.29167 2.080916 2.293229 2.079836 2.294599 2.078194 2.296682 2.076633 2.29866L.506806 1.059449ZM.532975 1.027758C.620649 .914694 .70984 .804184 .799573 .696342L2.33696 1.975577C2.260065 2.06799 2.185428 2.160536 2.113475 2.253328L.532975 1.027758ZM.796305 .700291C.832114 .656804 .831654 .658215 .846877 .639184L2.408676 1.888497C2.384693 1.918479 2.343626 1.967503 2.340228 1.971629L.796305 .700291ZM.860507 .622516C.936806 .531234 1.015868 .437349 1.097599 .342861L2.61023 1.651275C2.539336 1.733235 2.468574 1.817198 2.395046 1.905165L.860507 .622516ZM1.099577 .340582C1.132208 .303087 1.17176 .257709 1.212794 .212396L2.69527 1.55488C2.669093 1.583787 2.641433 1.615429 2.608253 1.653555L1.099577 .340582ZM1.202302 .224167C1.262496 .155552 1.336427 .070392 1.4117-.012021L2.888431 1.336781C2.830681 1.400008 2.77579 1.463284 2.705762 1.543108L1.202302 .224167ZM1.411266-.011545C1.451549-.055706 1.492934-.100155 1.529014-.138962L2.993754 1.222852C2.955622 1.263866 2.921395 1.300644 2.888865 1.336305L1.411266-.011545ZM1.513942-.122381C1.539158-.150753 1.577614-.191568 1.578698-.192739L3.046288 1.166002C3.040088 1.172699 3.03432 1.178872 3.029696 1.183815 3.024519 1.189347 3.0215 1.192566 3.017983 1.196337 3.011484 1.203305 3.009375 1.205654 3.008827 1.206271L1.513942-.122381ZM1.576528-.190388C1.624057-.242055 1.677047-.299682 1.731615-.357373L3.184621 1.016953C3.141172 1.062889 3.097546 1.11029 3.048458 1.163651L1.576528-.190388ZM1.738682-.364769C1.747547-.373951 1.755684-.382217 1.762083-.388687 1.767105-.393764 1.775521-.402232 1.77805-.404783 1.787157-.41397 1.788361-.415311 1.787239-.414109L3.249418 .950454C3.228693 .972662 3.209593 .991977 3.198396 1.003271 3.184028 1.017764 3.181309 1.020459 3.177555 1.024348L1.738682-.364769ZM1.797244-.424675C1.884886-.515888 1.977783-.611815 2.07303-.707072L3.487315 .707069C3.406132 .78826 3.324 .872985 3.239413 .96102L1.797244-.424675ZM3.487252-.707136 11.305482 7.110483 9.891324 8.524752 2.073094 .707133 3.487252-.707136ZM11.305545 8.524688C11.236639 8.593601 11.167957 8.668764 11.087729 8.758519L9.596589 7.425665C9.681589 7.330571 9.780936 7.220881 9.89126 7.110546L11.305545 8.524688Z" fill="#d9d9de"/>
    </g>
    <g clip-path="url(#clip_3)">
        <path transform="matrix(1,0,0,-1,23.111634,38.93108)" d="M.261145 9.696928 .968288 10.403999 .333473 11.038877-.365903 10.475909 .261145 9.696928ZM0 9.494575-.593891 10.29912-1.311239 9.769595-.867112 8.996462 0 9.494575ZM.018905 9.461665-.848208 8.963552-.843024 8.954529-.837654 8.945615 .018905 9.461665ZM5.719273-.000001 4.862715-.516051 5.397663-1.403975 6.265782-.837453 5.719273-.000001ZM6.499207 .537048 7.090707-.26926 7.092688-.267799 6.499207 .537048ZM8.098977 1.859707 8.777044 1.124708 9.542283 1.830673 8.806056 2.566842 8.098977 1.859707ZM.291951 9.66612-.415192 8.959048-.415128 8.958985 .291951 9.66612ZM-.365903 10.475909C-.445166 10.412106-.520407 10.353364-.593891 10.29912L.593891 8.690029C.696837 8.76602 .795227 8.843113 .888193 8.917947L-.365903 10.475909ZM-.867112 8.996462-.848208 8.963552 .886017 9.959778 .867112 9.992687-.867112 8.996462ZM-.837654 8.945615 4.862715-.516051 6.575831 .51605 .875463 9.977715-.837654 8.945615ZM6.265782-.837453C6.540446-.658212 6.817335-.4698 7.090705-.269258L5.907708 1.343354C5.671391 1.169994 5.42599 1.002705 5.172763 .837452L6.265782-.837453ZM7.092688-.267799C7.674493 .161214 8.236169 .625728 8.777044 1.124708L7.420909 2.594707C6.93261 2.14423 6.427308 1.726502 5.905725 1.341895L7.092688-.267799ZM8.806056 2.566842 .99903 10.373254-.415128 8.958985 7.391898 1.152573 8.806056 2.566842ZM.999093 10.373191 .968288 10.403999-.445997 8.989857-.415192 8.959048 .999093 10.373191Z" fill="#d9d9de"/>
    </g>
    <g clip-path="url(#clip_4)">
        <path transform="matrix(1,0,0,-1,5.989532,42)" d="M22.541575 2.875742 22.52757 2.898849 21.672352 2.380583 21.686356 2.357475 22.541575 2.875742ZM22.013148 2.991207 22.871325 3.504566 22.870169 3.506489 22.013148 2.991207ZM21.819914 3.312597 22.676936 3.827877 22.676463 3.828661 21.819914 3.312597ZM16.499009 12.144089 17.355559 12.660154 16.841399 13.513542 15.986115 13.002541 16.499009 12.144089ZM16.171353 11.962042 15.699557 12.843761 15.695567 12.841602 16.171353 11.962042ZM15.835294 11.792593 16.263628 10.888971 16.264615 10.889441 15.835294 11.792593ZM10.445777 11.37458 10.731748 12.332819 10.731608 12.332861 10.445777 11.37458ZM10.091517 11.499212 10.427893 12.440968 10.42115 12.443321 10.091517 11.499212ZM9.737257 11.62455 10.116357 12.549906 9.192658 12.928326 8.812582 12.005308 9.737257 11.62455ZM5.81379 2.096367 4.889115 2.477125 4.888811 2.476385 5.81379 2.096367ZM5.660464 1.723167 6.585281 1.342754 6.585443 1.343147 5.660464 1.723167ZM5.528841 1.403179 6.423559 .956547 6.439813 .989109 6.453658 1.022766 5.528841 1.403179ZM5.528141 1.401775 4.633423 1.848408 4.160073 .900166 5.134188 .482647 5.528141 1.401775ZM5.558246 1.389874 5.164293 .470745 5.185494 .461658 5.207091 .453556 5.558246 1.389874ZM5.590452 1.377274 5.167531 .471104 5.368582 .377274H5.590452V1.377274ZM5.591852 1.377274 6.039102 2.271681 5.827941 2.377272H5.591852V1.377274ZM5.599554 1.374474 5.984202 2.297535 5.950474 2.31159 5.91581 2.323147 5.599554 1.374474ZM5.878201 1.267342 5.514033 .336006 5.515453 .335453 5.878201 1.267342ZM6.228261 1.132908 5.885129 .193607 5.889123 .192169 6.228261 1.132908ZM6.406791 1.064987 6.073941 .122005 6.235482 .064987H6.406791V1.064987ZM6.407491 1.064987 6.740343 2.007965 6.578801 2.064987H6.407491V1.064987ZM10.201436 .156841 10.071238-.834679 10.079063-.835644 10.201436 .156841ZM10.353362 .136539 10.21763-.854206 10.225908-.855343 10.234205-.856339 10.353362 .136539ZM10.512289 .119034 10.394676-.874043 10.400311-.874676 10.512289 .119034ZM10.811239 .086823 10.713785-.908501 10.726605-.909588 10.811239 .086823ZM10.885453 .080521 10.982158 1.075905 10.970087 1.076931 10.885453 .080521ZM11.252315 .049709 11.335369 1.046257 11.32825 1.046848 11.321124 1.04734 11.252315 .049709ZM11.377637 .041309 11.293185-.95512 11.302791-.955933 11.31241-.956562 11.377637 .041309ZM11.698991 .023102 11.762698 1.021072 11.753703 1.021645 11.744699 1.022057 11.698991 .023102ZM11.896424 .014702 11.853903-.984444 11.863651-.98476 11.896424 .014702ZM12.151968 .0056 12.119194-.993912 12.129115-.994141 12.151968 .0056ZM12.521631 .001396 12.515949-.998604H12.521631V.001396ZM12.609146 0 12.58534-.999718 12.597241-1H12.609146V0ZM15.695971 .257668 15.531556 1.244061 15.530351 1.243858 15.695971 .257668ZM15.747779 .265369 15.866937-.727505 15.893819-.724277 15.920486-.719604 15.747779 .265369ZM16.071236 .324188 16.25015-.659737 16.26093-.657654 16.071236 .324188ZM16.255366 .359898 16.449322-.621197 16.461945-.61853 16.255366 .359898ZM16.445099 .399807 16.242691 1.379108 16.235407 1.377602 16.228148 1.375988 16.445099 .399807ZM16.76085 .469128 16.543892 1.445351 16.535029 1.443295 16.76085 .469128ZM16.817563 .482433 16.590949 1.456417 16.561972 1.449677 16.533448 1.441223 16.817563 .482433ZM21.27872 2.145382 21.744523 1.260494 22.27872 1.541691V2.145382H21.27872ZM21.27872 2.146078 20.81543 3.032286 20.27872 2.751703V2.146078H21.27872ZM21.553168 2.300121 21.07467 3.178217 21.071469 3.176458 21.553168 2.300121ZM21.880124 2.484272 21.38482 3.352993 21.384547 3.352835 21.880124 2.484272ZM22.106263 2.611706 22.619616 1.753529 22.725865 1.817085 22.813405 1.904636 22.106263 2.611706ZM22.109063 2.613108V1.61311H22.345152L22.556313 1.7187 22.109063 2.613108ZM22.112563 2.615206 22.559813 1.720798 22.70496 1.793377 22.819705 1.908134 22.112563 2.615206ZM22.113965 2.616608V3.616608H21.69972L21.406823 3.323679 22.113965 2.616608ZM22.116065 2.61731V1.61731H22.352154L22.563315 1.7229 22.116065 2.61731ZM22.119565 2.619408 22.566815 1.724998 22.622502 1.752846 22.674304 1.787384 22.119565 2.619408ZM22.132166 2.627108 21.606635 3.477882 21.591868 3.468761 21.577427 3.459133 22.132166 2.627108ZM22.204979 2.670525 22.719513 1.813053 23.575808 2.326883 23.063155 3.183882 22.204979 2.670525ZM7.837833 24.432417 7.122784 23.733344 7.760695 23.080853 8.468702 23.656527 7.837833 24.432417ZM8.098979 24.635472 8.70004 23.83627 9.412889 24.372384 8.961416 25.141636 8.098979 24.635472ZM8.080075 24.66768 8.94257 25.173878 8.93665 25.183705 8.080075 24.66768ZM2.379705 34.130044 3.23628 34.646066 2.700999 35.53461 1.832656 34.967145 2.379705 34.130044ZM1.598372 33.5916 1.007925 34.39868 1.005065 34.396574 1.598372 33.5916ZM0 32.271039-.678525 33.005617-1.442814 32.29965-.707111 31.563937 0 32.271039ZM7.807029 24.463925 8.522124 25.163044 8.51414 25.171029 7.807029 24.463925ZM22.870169 3.506489 22.676936 3.827877 20.96289 2.797318 21.156126 2.475927 22.870169 3.506489ZM22.676463 3.828661 17.355559 12.660154 15.642458 11.628025 20.963364 2.796532 22.676463 3.828661ZM15.986115 13.002541C15.901917 12.952236 15.81285 12.904371 15.699562 12.843752L16.643143 11.08033C16.749693 11.137344 16.88046 11.207106 17.011902 11.285637L15.986115 13.002541ZM15.695567 12.841602C15.604084 12.792116 15.509205 12.744816 15.405974 12.695745L16.264615 10.889441C16.388222 10.948198 16.515984 11.011534 16.647139 11.082479L15.695567 12.841602ZM15.40696 12.696213C14.517828 12.274746 13.557858 12.060196 12.598645 12.060196V10.060196C13.856009 10.060196 15.108413 10.341377 16.263628 10.888971L15.40696 12.696213ZM12.598645 12.060196C11.969049 12.060196 11.340073 12.151276 10.731748 12.332819L10.159807 10.416342C10.954521 10.179174 11.776193 10.060196 12.598645 10.060196V12.060196ZM10.731608 12.332861C10.644979 12.358702 10.595089 12.381222 10.427884 12.440945L9.755151 10.557482C9.823185 10.53318 10.007135 10.461882 10.159945 10.416302L10.731608 12.332861ZM10.42115 12.443321C10.250591 12.502872 10.20109 12.515192 10.116357 12.549906L9.358157 10.699194C9.505864 10.638681 9.695803 10.578176 9.761884 10.555103L10.42115 12.443321ZM8.812582 12.005308 4.889115 2.477125 6.738465 1.715611 10.661932 11.243792 8.812582 12.005308ZM4.888811 2.476385 4.735485 2.103184 6.585443 1.343147 6.738769 1.716351 4.888811 2.476385ZM4.735647 2.103577 4.604024 1.783592 6.453658 1.022766 6.585281 1.342754 4.735647 2.103577ZM4.634123 1.849812 4.633423 1.848408 6.422859 .955143 6.423559 .956547 4.634123 1.849812ZM5.134188 .482647C5.14952 .476074 5.162501 .470898 5.171201 .467495 5.179402 .464283 5.186842 .461472 5.188549 .460823 5.191918 .459545 5.189553 .460434 5.186384 .461674 5.182717 .463108 5.174724 .466274 5.164293 .470745L5.952199 2.309006C5.936867 2.315577 5.923886 2.320753 5.915186 2.324158 5.906985 2.327368 5.899545 2.330179 5.897839 2.330826 5.894469 2.332106 5.896834 2.331217 5.900003 2.329977 5.90367 2.328543 5.911663 2.325378 5.922094 2.320908L5.134188 .482647ZM5.207091 .453556C5.214563 .450756 5.221437 .44825 5.223259 .447586 5.226496 .446404 5.22459 .44709 5.221803 .448139 5.215711 .450436 5.194708 .45842 5.167531 .471104L6.013372 2.283438C5.975693 2.301023 5.944189 2.31321 5.92742 2.31953 5.919294 2.322596 5.912006 2.325253 5.909795 2.326059 5.906168 2.327385 5.907529 2.326895 5.9094 2.326193L5.207091 .453556ZM5.590452 .377274H5.591852V2.377272H5.590452V.377274ZM5.144603 .482864C5.204436 .452942 5.254667 .435276 5.279962 .426853 5.292222 .422768 5.302413 .419647 5.302735 .419548 5.307035 .418221 5.295622 .421692 5.283297 .4258L5.91581 2.323147C5.902435 2.327604 5.889884 2.331425 5.892981 2.330467 5.892983 2.330467 5.893133 2.330421 5.893344 2.330355 5.893564 2.330288 5.893903 2.330183 5.894324 2.330051 5.895154 2.329794 5.896446 2.32939 5.898039 2.328888 5.901196 2.32789 5.906044 2.326342 5.911969 2.324368 5.934639 2.316816 5.982069 2.3002 6.039102 2.271681L5.144603 .482864ZM5.214905 .451408C5.309788 .411873 5.48095 .348946 5.514034 .336006L6.242368 2.198675C6.08922 2.258558 6.074151 2.260054 5.984202 2.297535L5.214905 .451408ZM5.515453 .335453C5.623167 .293526 5.755234 .24107 5.885132 .193619L6.571388 2.072193C6.467447 2.110165 6.367075 2.150133 6.240948 2.199228L5.515453 .335453ZM5.889123 .192169C5.903448 .187004 5.919228 .180843 5.952514 .167782 5.980837 .15667 6.025629 .139057 6.073941 .122005L6.739641 2.007965C6.728443 2.011917 6.714075 2.017414 6.683062 2.029583 6.657013 2.039806 6.613283 2.057102 6.567397 2.073643L5.889123 .192169ZM6.406791 .064987H6.407491V2.064987H6.406791V.064987ZM6.074639 .122005C7.369895-.335194 8.709366-.655815 10.071241-.834648L10.331632 1.148331C9.10787 1.309025 7.904242 1.597134 6.740343 2.007965L6.074639 .122005ZM10.079063-.835644C10.121496-.840874 10.161497-.846516 10.21763-.854206L10.489095 1.127285C10.44301 1.133598 10.383595 1.141956 10.32381 1.149326L10.079063-.835644ZM10.234205-.856339C10.268584-.860462 10.301878-.863976 10.327527-.866684 10.355425-.869629 10.375511-.871758 10.394678-.874027L10.629901 1.112091C10.59586 1.116123 10.562736 1.119598 10.5376 1.122253 10.510214 1.125145 10.490649 1.127239 10.472519 1.129414L10.234205-.856339ZM10.400311-.874676C10.498531-.885746 10.605197-.897785 10.713794-.908417L10.908686 1.082062C10.817048 1.091038 10.724881 1.101406 10.624269 1.112743L10.400311-.874676ZM10.726605-.909588 10.800819-.915894 10.970087 1.076931 10.895873 1.083237 10.726605-.909588ZM10.788755-.914795C10.918669-.927418 11.050657-.938755 11.183506-.947918L11.321124 1.04734C11.210331 1.054981 11.09728 1.064648 10.98215 1.075832L10.788755-.914795ZM11.169261-.946835C11.204659-.949783 11.238109-.951687 11.25676-.952778 11.279676-.954121 11.287613-.954647 11.293185-.95512L11.462089 1.037735C11.426354 1.040764 11.392632 1.04269 11.373717 1.043797 11.350535 1.045155 11.341979 1.045704 11.335369 1.046257L11.169261-.946835ZM11.31241-.956562C11.423669-.963833 11.537657-.970562 11.653283-.975853L11.744699 1.022057C11.64609 1.026569 11.545841 1.032448 11.442863 1.039181L11.31241-.956562ZM11.635284-.974865C11.713442-.979855 11.818156-.982872 11.853906-.984394L11.938943 1.013798C11.84307 1.017876 11.816163 1.017658 11.762698 1.021072L11.635284-.974865ZM11.863651-.98476C11.903885-.98608 11.9443-.987576 11.987179-.989166 12.029364-.990726 12.074015-.992382 12.119196-.993866L12.184741 1.005062C12.144507 1.006382 12.104094 1.007877 12.061213 1.009464 12.019029 1.011028 11.974379 1.012684 11.929196 1.014164L11.863651-.98476ZM12.129115-.994141C12.261682-.997169 12.394253-.997894 12.515949-.998585L12.527313 1.001381C12.402568 1.00209 12.287296 1.002766 12.174822 1.005337L12.129115-.994141ZM12.521631-.998604C12.537039-.998604 12.553617-.998962 12.58534-.999718L12.632952 .999718C12.605865 1.000362 12.565034 1.001396 12.521631 1.001396V-.998604ZM12.609146-1C13.697408-1 14.78548-.909245 15.861592-.728519L15.530351 1.243858C14.563515 1.08149 13.586236 1 12.609146 1V-1ZM15.860386-.728722C15.866882-.727638 15.869889-.727165 15.871408-.726936 15.8728-.726723 15.870981-.72702 15.866937-.727505L15.628622 1.258247C15.587196 1.253273 15.550926 1.247288 15.531556 1.244061L15.860386-.728722ZM15.920486-.719604C16.031918-.700066 16.151108-.677685 16.25014-.659679L15.892333 1.308056C15.775727 1.28685 15.679277 1.268616 15.575071 1.250343L15.920486-.719604ZM16.26093-.657654C16.319729-.646294 16.386267-.633579 16.449307-.621117L16.061425 1.340912C16.004046 1.329567 15.945965 1.318478 15.881543 1.30603L16.26093-.657654ZM16.461945-.61853C16.50636-.609154 16.593899-.591522 16.66205-.576378L16.228148 1.375988C16.170279 1.363125 16.130394 1.35556 16.048789 1.338329L16.461945-.61853ZM16.647509-.579494C16.760912-.556057 16.87375-.531216 16.986676-.505039L16.535029 1.443295C16.436516 1.42046 16.339323 1.399078 16.242691 1.379108L16.647509-.579494ZM16.977803-.507053C16.977498-.507122 16.977904-.50703 16.983345-.505871 16.987359-.505016 16.996405-.503094 17.006163-.500927 17.025959-.496529 17.060618-.488525 17.101675-.47636L16.533448 1.441223C16.54496 1.444633 16.554366 1.447102 16.560822 1.448715 16.567162 1.450302 16.571446 1.451256 16.57225 1.451435 16.572558 1.451504 16.572154 1.451412 16.566714 1.450253 16.562703 1.449398 16.553658 1.447479 16.5439 1.445309L16.977803-.507053ZM17.044175-.491554C18.680777-.110771 20.260769 .479454 21.744523 1.260494L20.81292 3.030272C19.479393 2.32831 18.060076 1.798233 16.590949 1.456417L17.044175-.491554ZM22.27872 2.145382V2.146078H20.27872V2.145382H22.27872ZM21.742012 1.259872C21.827498 1.304562 22.017537 1.414257 22.034867 1.423786L21.071469 3.176458C20.905369 3.085157 20.914776 3.084221 20.81543 3.032286L21.742012 1.259872ZM22.031664 1.422031C22.15161 1.487392 22.27048 1.555672 22.3757 1.615707L21.384547 3.352835C21.271328 3.288237 21.173163 3.231882 21.074673 3.178211L22.031664 1.422031ZM22.375426 1.615551C22.39946 1.629253 22.541726 1.706936 22.619616 1.753529L21.592909 3.469883C21.520974 3.426853 21.51061 3.424711 21.38482 3.352993L22.375426 1.615551ZM22.813405 1.904636C22.82715 1.918381 22.775267 1.863708 22.707875 1.813091 22.651062 1.77042 22.434906 1.61311 22.108363 1.61311V3.613108C21.781117 3.613108 21.56426 3.455444 21.50675 3.412249 21.466328 3.381887 21.436785 3.354837 21.422509 3.341442 21.414616 3.334036 21.408389 3.32795 21.404808 3.324423 21.402947 3.322592 21.40145 3.3211 21.400549 3.320206 21.40009 3.319746 21.399714 3.319372 21.399487 3.319143 21.39937 3.319029 21.399275 3.318933 21.399216 3.318874 21.399188 3.318844 21.399163 3.318819 21.399146 3.318804 21.399138 3.318796 21.399132 3.31879 21.399128 3.318785 21.399115 3.318773 21.399128 3.318787 21.39912 3.318777L22.813405 1.904636ZM22.108363 1.61311H22.109063V3.613108H22.108363V1.61311ZM22.556313 1.7187C22.571438 1.726261 22.585648 1.733841 22.598927 1.741295 22.612174 1.748726 22.62386 1.755676 22.633793 1.761787 22.643593 1.767811 22.65155 1.772934 22.656817 1.776371 22.65944 1.77808 22.66157 1.779488 22.662913 1.78038 22.663594 1.78083 22.66415 1.7812 22.664502 1.781433 22.66468 1.781551 22.664828 1.781651 22.664925 1.781715 22.665013 1.781773 22.665093 1.781826 22.665099 1.78183 22.665843 1.782326 22.662075 1.779808 22.65761 1.776894 22.65261 1.773636 22.644927 1.768684 22.635413 1.762833 22.625763 1.756901 22.61437 1.750126 22.601437 1.742867 22.588469 1.735592 22.574589 1.728188 22.559813 1.720798L21.665314 3.509615C21.650187 3.502052 21.635979 3.494473 21.622698 3.48702 21.609454 3.479588 21.597765 3.472637 21.587832 3.46653 21.578034 3.460505 21.570076 3.455379 21.56481 3.451944 21.562188 3.450233 21.560055 3.448826 21.558712 3.447935 21.558032 3.447485 21.557476 3.447115 21.557124 3.44688 21.556946 3.446762 21.556797 3.446663 21.556702 3.4466 21.556612 3.446541 21.556534 3.446487 21.556529 3.446484 21.555785 3.44599 21.559552 3.448505 21.564017 3.45142 21.569016 3.454681 21.576699 3.459631 21.586215 3.465481 21.595864 3.471413 21.607256 3.478189 21.620188 3.485447 21.633158 3.492725 21.647038 3.500128 21.661814 3.507517L22.556313 1.7187ZM22.819705 1.908134 22.821106 1.909538 21.406823 3.323679 21.40542 3.322277 22.819705 1.908134ZM22.113965 1.616608C22.197537 1.616608 22.270058 1.627068 22.328148 1.639786 22.357254 1.64616 22.383366 1.65324 22.406115 1.660179 22.428849 1.667114 22.448925 1.674122 22.465958 1.680519 22.482985 1.686909 22.497742 1.692982 22.509783 1.698158 22.521809 1.703331 22.531939 1.70797 22.539582 1.711555 22.547175 1.715118 22.553259 1.718094 22.556885 1.719879 22.558749 1.720798 22.560254 1.721546 22.561169 1.722004 22.561638 1.722237 22.562018 1.722427 22.562252 1.722546 22.562373 1.722603 22.56247 1.722652 22.56253 1.722683 22.562563 1.722698 22.562588 1.722713 22.562605 1.722721 22.56262 1.722729 22.562634 1.722736 22.562636 1.722736 22.563153 1.722996 22.560389 1.721607 22.557148 1.720009 22.55361 1.718266 22.547612 1.715336 22.540106 1.711815 22.53255 1.708267 22.522509 1.703671 22.51057 1.698536 22.498618 1.693394 22.483948 1.687359 22.467009 1.681 22.450062 1.674637 22.430075 1.66766 22.407427 1.660751 22.384766 1.653839 22.358742 1.646782 22.329724 1.640427 22.271807 1.627747 22.199463 1.61731 22.116065 1.61731V3.61731C22.032492 3.61731 21.959973 3.606852 21.90188 3.59413 21.872775 3.587755 21.846665 3.580677 21.823914 3.573738 21.80118 3.566803 21.781104 3.559793 21.76407 3.5534 21.747044 3.547007 21.732287 3.540937 21.720246 3.535759 21.70822 3.530584 21.69809 3.525948 21.690449 3.522362 21.682854 3.518797 21.67677 3.515825 21.673144 3.514038 21.671282 3.513121 21.669775 3.512371 21.66886 3.511915 21.66839 3.511681 21.66801 3.51149 21.667777 3.511374 21.667656 3.511314 21.667559 3.511265 21.667498 3.511234 21.667466 3.511219 21.66744 3.511206 21.667424 3.511198 21.667408 3.51119 21.667395 3.511183 21.667393 3.511183 21.666876 3.510923 21.66964 3.51231 21.672883 3.513908 21.676419 3.51565 21.682417 3.518581 21.689923 3.522104 21.697478 3.525648 21.70752 3.530247 21.71946 3.535383 21.731411 3.540524 21.746083 3.546558 21.76302 3.552917 21.779967 3.559278 21.799956 3.566257 21.822602 3.573166 21.845265 3.580078 21.871287 3.587135 21.900305 3.593489 21.958222 3.606173 22.030568 3.616608 22.113965 3.616608V1.616608ZM22.563315 1.7229C22.57844 1.730465 22.59265 1.738041 22.605929 1.745495 22.619174 1.752926 22.630862 1.75988 22.640795 1.765987 22.650595 1.772011 22.658553 1.777138 22.663819 1.780571 22.66644 1.782284 22.668572 1.783691 22.669915 1.78458 22.670596 1.78503 22.671153 1.7854 22.671504 1.785633 22.671683 1.785755 22.67183 1.785851 22.671927 1.785915 22.672015 1.785976 22.672095 1.786026 22.6721 1.78603 22.672844 1.786526 22.669077 1.784008 22.66461 1.781097 22.659613 1.777836 22.651928 1.772884 22.642415 1.767036 22.632765 1.761101 22.621373 1.754326 22.608439 1.74707 22.59547 1.739792 22.581589 1.732388 22.566815 1.724998L21.672314 3.513817C21.657189 3.506252 21.64298 3.498674 21.6297 3.491222 21.616456 3.483789 21.604767 3.476837 21.594834 3.47073 21.585036 3.464705 21.577078 3.459581 21.57181 3.456144 21.56919 3.454433 21.567057 3.453026 21.565714 3.452137 21.565033 3.451685 21.564478 3.451315 21.564126 3.451082 21.563946 3.450964 21.563799 3.450865 21.563704 3.4508 21.563614 3.450741 21.563536 3.450689 21.56353 3.450686 21.562787 3.45019 21.566554 3.452707 21.571019 3.45562 21.576016 3.458881 21.5837 3.463831 21.593216 3.469681 21.602864 3.475615 21.614256 3.482391 21.62719 3.489649 21.640158 3.496925 21.65404 3.50433 21.668816 3.511719L22.563315 1.7229ZM22.674304 1.787384C22.659499 1.777512 22.64731 1.77 22.639828 1.76548 22.636075 1.763214 22.633112 1.761463 22.631493 1.760509 22.630066 1.75967 22.628916 1.759003 22.629719 1.759468 22.629967 1.759613 22.632168 1.760895 22.634644 1.762352 22.637312 1.763924 22.641325 1.766296 22.64613 1.769199 22.65571 1.77499 22.67 1.783813 22.686905 1.795086L21.577427 3.459133C21.592232 3.469004 21.60442 3.476515 21.611903 3.481033 21.615656 3.483303 21.618618 3.485054 21.620238 3.486006 21.621665 3.486845 21.622815 3.487514 21.622012 3.487047 21.621764 3.486902 21.619563 3.48562 21.617087 3.484163 21.614418 3.482594 21.610407 3.480219 21.6056 3.477316 21.59602 3.471527 21.58173 3.462704 21.564826 3.451431L22.674304 1.787384ZM22.657698 1.776333C22.679003 1.789494 22.66592 1.780895 22.719513 1.813053L21.690445 3.527994C21.682402 3.523167 21.67587 3.519356 21.660122 3.510063 21.646864 3.502239 21.627572 3.490816 21.606635 3.477882L22.657698 1.776333ZM23.063155 3.183882 22.871323 3.504566 21.154973 2.47785 21.346804 2.157167 23.063155 3.183882ZM8.468702 23.656527C8.541059 23.715359 8.617461 23.774163 8.70004 23.83627L7.497918 25.434674C7.405467 25.365143 7.306837 25.289513 7.206965 25.208306L8.468702 23.656527ZM8.961416 25.141636 8.942513 25.173844 7.217638 24.161519 7.236541 24.129307 8.961416 25.141636ZM8.93665 25.183705 3.23628 34.646066 1.52313 33.61402 7.2235 24.151658 8.93665 25.183705ZM1.832656 34.967145C1.556509 34.78668 1.280471 34.598066 1.007929 34.398679L2.188815 32.78452C2.42736 32.959035 2.673612 33.127515 2.926755 33.292943L1.832656 34.967145ZM1.005065 34.396574C.424612 33.96875-.138048 33.504854-.678525 33.005617L.678525 31.536463C1.164423 31.985283 1.670145 32.40222 2.19168 32.78662L1.005065 34.396574ZM-.707111 31.563937 7.099918 23.756823 8.51414 25.171029 .707111 32.97814-.707111 31.563937ZM7.09198 23.76485 7.122784 23.733344 8.552883 25.13149 8.522079 25.162999 7.09198 23.76485Z" fill="#d9d9de"/>
    </g>
    <g clip-path="url(#clip_5)">
        <path transform="matrix(1,0,0,-1,0,23.400166)" d="M5.448327 13.150962 6.155406 13.858096 5.448264 14.565184 4.741185 13.858032 5.448327 13.150962ZM5.188583 12.880689 4.470285 13.576469 4.464811 13.570727 5.188583 12.880689ZM4.929539 12.609715 4.19751 13.290995 4.195405 13.288719 4.929539 12.609715ZM3.35007 10.651985 4.156503 10.060659 4.162824 10.06928 4.168959 10.078032 3.35007 10.651985ZM3.281458 10.554658 2.468892 11.137527 2.461285 11.126922 2.453956 11.116121 3.281458 10.554658ZM3.123231 10.320094 3.953127 9.762117 3.957592 9.768876 3.123231 10.320094ZM2.962204 10.074328 3.800249 9.52868 3.804108 9.5347 2.962204 10.074328ZM2.904094 9.983303 3.747334 9.445722 3.751008 9.451573 2.904094 9.983303ZM.016803 .749901-.982391 .790073-.982433 .788973 .016803 .749901ZM.006301 .374601-.993462 .397066-.993557 .391451 .006301 .374601ZM0-.000002H-1V-1.000002H0V-.000002ZM11.056982-.000002V-1.000002H12.056982V-.000002H11.056982ZM11.075185 .374601 12.073644 .318827 12.073923 .32439 11.075185 .374601ZM11.095489 .749901 12.090418 .6493 12.090604 .651175 11.095489 .749901ZM12.763172 4.775991 13.53614 4.141543 13.537413 4.1431 12.763172 4.775991ZM13.015216 5.054667 13.752457 4.378931 13.76049 4.387911 13.015216 5.054667ZM13.266558 5.333344 13.973701 4.626273 14.680763 5.333407 13.973637 6.040479 13.266558 5.333344ZM28.261708 15.895705 27.735295 15.045429 27.742989 15.04076 28.261708 15.895705ZM28.2162 15.923013 28.742602 16.773266 28.737938 16.77612 28.2162 15.923013ZM27.92215 16.097359 28.424916 16.961783 28.424065 16.962277 27.92215 16.097359ZM27.751322 16.194687 28.245213 17.064274 28.236109 17.069319 27.751322 16.194687ZM27.578394 16.290612 27.100289 15.412308 27.101733 15.411525 27.578394 16.290612ZM27.278042 16.453057 27.751387 17.333933 27.73071 17.345046 27.709532 17.355174 27.278042 16.453057ZM27.230435 16.477562 26.767178 15.591338 26.767832 15.590997 27.230435 16.477562ZM25.236495 17.373806 24.86507 16.445342 24.872704 16.442288 24.880387 16.43936 25.236495 17.373806ZM25.183985 17.39411 24.834748 16.45701 24.845236 16.453234 25.183985 17.39411ZM24.737309 17.556555 24.407935 16.612353 24.410473 16.611474 24.737309 17.556555ZM21.011975 18.440896 20.878046 17.449896 20.881844 17.449398 21.011975 18.440896ZM20.856549 18.4619 20.990479 19.45289 20.983099 19.453888 20.975707 19.454775 20.856549 18.4619ZM20.700423 18.478705 20.582354 17.485642 20.592928 17.484499 20.700423 18.478705ZM20.400073 18.511614 20.29803 17.516819 20.303297 17.516308 20.400073 18.511614ZM20.316058 18.519316 20.437123 19.51196 20.420828 19.513947 20.404477 19.515398 20.316058 18.519316ZM19.958996 18.549424 20.035252 19.546513 20.027228 19.547125 20.019196 19.54761 19.958996 18.549424ZM19.819672 18.557827 19.757718 17.559746 19.759472 17.559639 19.819672 18.557827ZM19.51302 18.57603 19.461798 17.577296 19.471673 17.576888 19.51302 18.57603ZM19.349894 18.582333 19.37586 19.581995 18.349894 19.608647V18.582333H19.349894ZM19.349894 7.49903H18.349894V6.597152L19.246985 6.504339 19.349894 7.49903ZM21.028779 7.133532 20.707432 6.186569 21.296202 5.986774 21.735859 6.426399 21.028779 7.133532ZM29.185866 15.290041 29.892949 14.582909 30.739922 15.429823 29.755412 16.112002 29.185866 15.290041ZM4.741185 13.858032C4.650629 13.767468 4.525615 13.633545 4.470308 13.576447L5.906858 12.184929C6.025181 12.307081 6.068195 12.356607 6.155469 12.443891L4.741185 13.858032ZM4.464811 13.570727C4.395378 13.4979 4.285798 13.385853 4.197514 13.290993L5.661563 11.928436C5.742708 12.015625 5.809559 12.082828 5.912355 12.190649L4.464811 13.570727ZM4.195405 13.288719C3.594841 12.639397 3.038834 11.950233 2.531181 11.225937L4.168959 10.078032C4.624905 10.728556 5.12428 11.347525 5.663672 11.93071L4.195405 13.288719ZM2.543637 11.243309C2.523879 11.216364 2.506131 11.190865 2.494653 11.174353 2.481032 11.154757 2.474997 11.146038 2.468892 11.137527L4.094024 9.971789C4.160538 10.064514 4.120954 10.012177 4.156503 10.060659L2.543637 11.243309ZM2.453956 11.116121C2.40394 11.042405 2.345152 10.956503 2.288871 10.871313L3.957592 9.768876C4.004929 9.840528 4.052558 9.910069 4.108961 9.993196L2.453956 11.116121ZM2.293363 10.878054C2.233692 10.789303 2.175672 10.700344 2.1203 10.613955L3.804108 9.5347C3.853754 9.612156 3.903553 9.688442 3.9531 9.762136L2.293363 10.878054ZM2.124181 10.619963C2.100829 10.584098 2.078178 10.548477 2.05718 10.515033L3.751008 9.451573C3.767817 9.478346 3.784372 9.504342 3.800227 9.528693L2.124181 10.619963ZM2.060874 10.520872C.167421 7.550841-.845961 4.183427-.98239 .790073L1.015996 .709728C1.138611 3.75952 2.049156 6.782039 3.747314 9.445734L2.060874 10.520872ZM-.982433 .788973C-.987715 .653917-.99068 .520205-.993447 .397066L1.006049 .352137C1.008883 .478266 1.011519 .595217 1.016039 .710829L-.982433 .788973ZM-.993557 .391451C-.995258 .290485-1 .134501-1-.000002H1C1 .114761 1.00366 .20945 1.006159 .357752L-.993557 .391451ZM0-1.000002H11.056982V.999998H0V-1.000002ZM12.056982-.000002C12.056982 .087639 12.064089 .148062 12.073628 .318829L10.076741 .430374C10.072278 .350473 10.056982 .161623 10.056982-.000002H12.056982ZM12.073923 .32439C12.082904 .503025 12.081078 .556944 12.090416 .6493L10.100562 .850502C10.084696 .69359 10.080068 .496847 10.076447 .424812L12.073923 .32439ZM12.090604 .651175C12.214555 1.900532 12.696513 3.118604 13.536139 4.141544L11.990206 5.410439C10.891901 4.07234 10.262072 2.478451 10.100374 .848627L12.090604 .651175ZM13.537413 4.1431C13.592174 4.210092 13.634674 4.250535 13.752403 4.378981L12.278028 5.730355C12.226328 5.67395 12.090998 5.533744 11.988932 5.408883L13.537413 4.1431ZM13.76049 4.387911C13.883803 4.525744 13.909155 4.561721 13.973701 4.626273L12.559416 6.040416C12.444731 5.925719 12.313256 5.769842 12.26994 5.721425L13.76049 4.387911ZM13.973637 6.040479 6.155406 13.858096 4.741248 12.443827 12.559479 4.626209 13.973637 6.040479ZM28.788102 16.745947C28.770462 16.756867 28.753724 16.766716 28.747727 16.77026 28.738322 16.775818 28.739657 16.775073 28.742594 16.773255L27.689808 15.072771C27.707448 15.061851 27.724184 15.052002 27.730183 15.048457 27.739588 15.042899 27.738253 15.043646 27.735316 15.045464L28.788102 16.745947ZM28.737938 16.77612C28.630635 16.841744 28.5246 16.903805 28.424916 16.961783L27.419384 15.232937C27.517134 15.176084 27.607134 15.123315 27.694464 15.069906L28.737938 16.77612ZM28.424065 16.962277C28.362013 16.998286 28.295786 17.035487 28.245186 17.064227L27.25746 15.325146C27.320279 15.289468 27.368868 15.262252 27.420235 15.232443L28.424065 16.962277ZM28.236109 17.069319C28.191023 17.094309 28.117577 17.135798 28.055054 17.169699L27.101733 15.411525C27.155428 15.382409 27.195403 15.359481 27.266537 15.320053L28.236109 17.069319ZM28.056498 17.168915C27.95494 17.224198 27.853238 17.279204 27.751387 17.333933L26.804697 15.572178C26.903374 15.519155 27.001906 15.465864 27.10029 15.412309L28.056498 17.168915ZM27.709532 17.355174C27.716664 17.351763 27.720477 17.349713 27.71718 17.351435 27.715468 17.35233 27.71348 17.353379 27.709094 17.355692 27.705353 17.357666 27.69941 17.360804 27.693037 17.364129L26.767832 15.590997C26.830893 15.558092 26.717959 15.616961 26.791295 15.578659 26.803751 15.572153 26.823319 15.562052 26.84655 15.550939L27.709532 17.355174ZM27.693692 17.363787C27.009737 17.721312 26.308083 18.03559 25.5926 18.30825L24.880387 16.43936C25.524537 16.193882 26.15451 15.911598 26.767178 15.591338L27.693692 17.363787ZM25.607916 18.302269C25.59326 18.308133 25.559472 18.32176 25.522734 18.334988L24.845236 16.453234C24.843157 16.453982 24.843249 16.453988 24.846873 16.452574 24.850918 16.450997 24.85565 16.44911 24.86507 16.445342L25.607916 18.302269ZM25.533202 18.331152C25.386626 18.385779 25.22708 18.445288 25.064146 18.501635L24.410473 16.611474C24.54719 16.564194 24.684494 16.513073 24.834769 16.45707L25.533202 18.331152ZM25.066683 18.500754C23.793812 18.94478 22.478728 19.256964 21.142107 19.432393L20.881844 17.449398C22.082749 17.291783 23.264304 17.011298 24.407935 16.612355L25.066683 18.500754ZM21.145905 19.431885 20.990479 19.45289 20.72262 17.47091 20.878046 17.449904 21.145905 19.431885ZM20.975707 19.454775C20.916958 19.461827 20.840632 19.469374 20.807915 19.47291L20.592928 17.484499C20.663828 17.476834 20.69112 17.474577 20.737393 17.469025L20.975707 19.454775ZM20.818484 19.47171C20.7146 19.484063 20.60746 19.496165 20.496848 19.50692L20.303297 17.516308C20.39432 17.507458 20.486008 17.497155 20.58236 17.485699L20.818484 19.47171ZM20.502112 19.506394C20.48674 19.50797 20.47312 19.509163 20.46303 19.510008 20.454617 19.510714 20.442858 19.51165 20.439572 19.511918 20.427393 19.512907 20.430182 19.512806 20.437123 19.51196L20.19499 17.52667C20.230637 17.522324 20.26178 17.519772 20.277609 17.518486 20.288323 17.517617 20.29048 17.517458 20.295893 17.517004 20.299632 17.516692 20.299752 17.516657 20.298033 17.516835L20.502112 19.506394ZM20.404477 19.515398C20.286179 19.5259 20.161002 19.536894 20.035252 19.546513L19.88274 17.552336C19.99503 17.543747 20.109295 17.533738 20.227639 17.523232L20.404477 19.515398ZM20.019196 19.54761 19.879872 19.556014 19.759472 17.559639 19.898797 17.551238 20.019196 19.54761ZM19.881628 19.555905C19.796757 19.561173 19.669558 19.57041 19.554368 19.575177L19.471673 17.576888C19.559517 17.573252 19.639554 17.567082 19.757718 17.559748L19.881628 19.555905ZM19.56424 19.574719C19.501166 19.577954 19.438139 19.580378 19.37586 19.581995L19.323925 17.58267C19.369465 17.581488 19.415656 17.57971 19.4618 17.577343L19.56424 19.574719ZM18.349894 18.582333V7.49903H20.349894V18.582333H18.349894ZM19.246985 6.504339C19.74303 6.453019 20.23324 6.347483 20.707432 6.186569L21.350123 8.080494C20.730729 8.290681 20.093749 8.42741 19.452803 8.493721L19.246985 6.504339ZM21.735859 6.426399 29.892949 14.582909 28.478785 15.997173 20.321696 7.840663 21.735859 6.426399ZM29.755412 16.112002C29.44385 16.327885 29.119572 16.54488 28.780426 16.75065L27.742989 15.04076C28.03395 14.864225 28.321579 14.67231 28.616322 14.468081L29.755412 16.112002Z" fill="#d9d9de"/>
    </g>
    <g clip-path="url(#clip_6)">
        <path transform="matrix(1,0,0,-1,9.00354,16.945118)" d="M9.221969 12.136388 9.205114 13.136261 9.199625 13.136138 9.221969 12.136388ZM8.846705 12.128685 8.807406 13.127913 8.806448 13.127874 8.846705 12.128685ZM6.509707 11.887119 6.674123 10.900727 6.675569 10.90097 6.509707 11.887119ZM6.458599 11.878717 6.300578 12.86625 6.286973 12.86388 6.458599 11.878717ZM6.134444 11.819901 5.949362 12.802649 5.942649 12.801336 6.134444 11.819901ZM5.950313 11.784892 5.760618 12.766746 5.756251 12.765882 5.950313 11.784892ZM5.759881 11.744982 5.962306 10.765603 5.974558 10.768296 5.759881 11.744982ZM5.445527 11.675663 5.621335 10.691238 5.647926 10.695988 5.674223 10.702165 5.445527 11.675663ZM5.388117 11.663059 5.171154 12.639297 5.160734 12.636865 5.388117 11.663059ZM.926257 9.999409 .460575 10.884383 .454933 10.881369 .926257 9.999409ZM.653211 9.845367 .176663 10.724545 .170393 10.721088 .653211 9.845367ZM.326256 9.661217-.171737 10.52842-.177186 10.525246 .326256 9.661217ZM.083314 9.523979-.425705 10.384735-.534477 10.320411-.623828 10.23105 .083314 9.523979ZM.080513 9.522579V10.522579H-.206307L-.449524 10.370554 .080513 9.522579ZM.063711 9.512777-.383539 10.407187-.428712 10.384597-.471379 10.357572 .063711 9.512777ZM0 9.476367-.514534 10.333837-1.308389 9.857476-.894513 9.029325 0 9.476367ZM.0007 9.474967-.893814 9.027925-.876039 8.992359-.855497 8.958316 .0007 9.474967ZM.194633 9.15358 1.051246 9.669539 1.050829 9.67023 .194633 9.15358ZM5.708071 .000001 4.851459-.51596 5.365577-1.369514 6.220964-.858452 5.708071 .000001ZM6.035728 .182751 6.50752-.698962 6.509532-.69788 6.035728 .182751ZM6.371084 .351497 6.798002-.552804 6.801846-.550969 6.371084 .351497ZM8.846705 1.045383 8.746085 2.040308 8.745666 2.040266 8.846705 1.045383ZM9.22127 1.074792 9.271491 .076054 9.271772 .076068 9.22127 1.074792ZM9.596533 1.087395V.087395H10.596533V1.087395H9.596533ZM9.596533 12.14409H10.596533V13.14409H9.596533V12.14409ZM9.199625 13.136138C9.107971 13.134089 8.939525 13.133109 8.807406 13.127913L8.886004 11.129457C9.003129 11.134065 9.085322 11.133084 9.244311 11.136637L9.199625 13.136138ZM8.806448 13.127874C7.983288 13.094709 7.16068 13.010653 6.343846 12.873269L6.675569 10.90097C7.407399 11.024057 8.146057 11.099645 8.886963 11.129496L8.806448 13.127874ZM6.345293 12.873511C6.328068 12.87064 6.314394 12.868364 6.300593 12.866156L6.616605 10.891279C6.63781 10.894672 6.657741 10.897998 6.674122 10.900728L6.345293 12.873511ZM6.286973 12.86388C6.173615 12.844131 6.0613 12.823706 5.949367 12.802626L6.31952 10.837177C6.423224 10.856709 6.526546 10.875494 6.630225 10.893556L6.286973 12.86388ZM5.942649 12.801336C5.868055 12.786759 5.851725 12.784337 5.76062 12.766735L6.140007 10.803049C6.172122 10.809254 6.279011 10.829237 6.326238 10.838467L5.942649 12.801336ZM5.756251 12.765882C5.684257 12.751639 5.614223 12.736837 5.545203 12.721666L5.974558 10.768296C6.03296 10.781134 6.088947 10.792938 6.144374 10.803903L5.756251 12.765882ZM5.557471 12.724282C5.444138 12.700858 5.330341 12.675827 5.21683 12.64916L5.674223 10.702165C5.769347 10.724512 5.865587 10.745693 5.96229 10.76568L5.557471 12.724282ZM5.269719 12.660088C5.236275 12.654115 5.208362 12.647838 5.192981 12.64431 5.185811 12.642665 5.177688 12.640759 5.175123 12.640161 5.171077 12.639217 5.170547 12.639104 5.171166 12.639241L5.605069 10.686876C5.615139 10.689115 5.624061 10.691191 5.629488 10.692456 5.630905 10.692787 5.632299 10.693112 5.63343 10.693377 5.634633 10.693658 5.635597 10.693883 5.636516 10.694098 5.638356 10.694527 5.639426 10.694775 5.640138 10.694938 5.641633 10.69528 5.64026 10.694954 5.637313 10.694333 5.634258 10.693688 5.628709 10.692555 5.621335 10.691238L5.269719 12.660088ZM5.160734 12.636865C3.525829 12.255114 1.946344 11.666186 .460584 10.884365L1.39193 9.114451C2.727043 9.817001 4.146373 10.346212 5.615501 10.689254L5.160734 12.636865ZM.454933 10.881369C.392645 10.848082 .333923 10.814185 .289781 10.788703 .241197 10.760656 .208358 10.741695 .176675 10.724522L1.129748 8.966212C1.18978 8.998753 1.247607 9.032306 1.289688 9.056598 1.336211 9.083455 1.368154 9.101723 1.397581 9.117449L.454933 10.881369ZM.170393 10.721088C.055474 10.657728-.058834 10.593233-.171727 10.528403L.824239 8.79403C.928382 8.853834 1.032511 8.912573 1.136029 8.969646L.170393 10.721088ZM-.177186 10.525246C-.206065 10.508419-.236137 10.491792-.279774 10.46762-.319797 10.445449-.371818 10.416602-.425705 10.384735L.592334 8.663225C.61896 8.67897 .648154 8.695286 .689344 8.718102 .726921 8.738917 .778063 8.767102 .829697 8.797188L-.177186 10.525246ZM-.623828 10.23105C-.52515 10.329739-.426668 10.386773-.365154 10.417517-.32831 10.435931-.280142 10.457151-.22194 10.475662-.175748 10.490354-.065043 10.522579 .080513 10.522579V8.522579C.323487 8.522579 .497977 8.613021 .528981 8.628517 .591546 8.659786 .691079 8.717521 .790457 8.816909L-.623828 10.23105ZM-.449524 10.370554C-.454055 10.367722-.447144 10.372093-.438485 10.377235-.429007 10.382864-.409528 10.39419-.383539 10.407187L.510961 8.618368C.542551 8.634165 .567631 8.648642 .58271 8.657596 .596969 8.666063 .609481 8.673937 .610551 8.674605L-.449524 10.370554ZM-.471379 10.357572C-.461285 10.363965-.453631 10.368426-.450058 10.370479-.446874 10.372306-.445461 10.373054-.449551 10.370807-.450485 10.370294-.451473 10.369752-.452873 10.368985-.454155 10.368281-.455842 10.367357-.45759 10.366397-.461085 10.364477-.465854 10.361851-.471193 10.358873-.481764 10.352978-.496993 10.344362-.514534 10.333837L.514534 8.618896C.510886 8.616708 .507981 8.615019 .506062 8.613916 .504166 8.612827 .502999 8.612176 .502917 8.612131 .502895 8.612119 .503453 8.61243 .505291 8.61344 .50621 8.613944 .507191 8.614482 .508577 8.615242 .509846 8.615937 .511527 8.616859 .513262 8.617812 .525018 8.624269 .559643 8.643179 .598802 8.667982L-.471379 10.357572ZM-.894513 9.029325-.893814 9.027925 .895213 9.922008 .894513 9.923408-.894513 9.029325ZM-.855497 8.958316-.661563 8.636929 1.050829 9.67023 .856896 9.991617-.855497 8.958316ZM-.66198 8.637619 4.851459-.51596 6.564684 .515961 1.051246 9.669539-.66198 8.637619ZM6.220964-.858452C6.306722-.807215 6.398407-.757344 6.507518-.69896L5.563937 1.064461C5.453211 1.005213 5.325058 .936051 5.195178 .858453L6.220964-.858452ZM6.509532-.69788C6.602715-.647744 6.698899-.59958 6.797998-.552796L5.94417 1.255789C5.817831 1.196144 5.689978 1.132277 5.561923 1.06338L6.509532-.69788ZM6.801846-.550969C7.477253-.228586 8.203192-.025115 8.947745 .050501L8.745666 2.040266C7.772302 1.941412 6.823279 1.675412 5.940322 1.253962L6.801846-.550969ZM8.947326 .050459C9.061326 .061988 9.168205 .070861 9.271491 .076055L9.171049 2.07353C9.023691 2.06612 8.881328 2.053986 8.746085 2.040308L8.947326 .050459ZM9.271772 .076068C9.400311 .082568 9.50059 .087395 9.596533 .087395V2.087395C9.441832 2.087395 9.291471 2.079619 9.170767 2.073516L9.271772 .076068ZM10.596533 1.087395V12.14409H8.596533V1.087395H10.596533ZM9.596533 13.14409C9.467558 13.14409 9.284817 13.137589 9.205115 13.136246L9.238822 11.13653C9.408362 11.139387 9.474864 11.14409 9.596533 11.14409V13.14409Z" fill="#d9d9de"/>
    </g>
    <g clip-path="url(#clip_7)">
        <path transform="matrix(1,0,0,-1,25.735016,22.650963)" d="M11.442046 .164543 12.44071 .216416 12.440464 .220787 11.442046 .164543ZM11.423842 .462825 10.425186 .411001 10.425652 .402032 10.426278 .393072 11.423842 .462825ZM11.414044 .611265 10.416206 .545546 10.416675 .538432 10.417245 .531326 11.414044 .611265ZM11.385337 .962061 10.387761 .892469 10.388661 .87957 10.389894 .866698 11.385337 .962061ZM11.377637 1.052385 12.373344 1.145 12.373037 1.14819 11.377637 1.052385ZM11.335631 1.443791 12.328711 1.56124 12.32784 1.568598 12.326861 1.575942 11.335631 1.443791ZM11.332128 1.475299 12.323399 1.607455 12.322102 1.616545 11.332128 1.475299ZM11.330029 1.490005 10.337081 1.371455 10.338438 1.360089 10.340055 1.348758 11.330029 1.490005ZM11.274717 1.911518 12.26506 2.050152 12.263859 2.058738 12.262508 2.067302 11.274717 1.911518ZM11.272619 1.924821 10.282804 1.781874 10.284828 1.769037 11.272619 1.924821ZM10.70132 4.538629 11.660433 4.821651 11.655511 4.83833 11.650012 4.854827 10.70132 4.538629ZM10.695722 4.555435 9.737474 4.269494 9.747307 4.236541 9.75938 4.204342 10.695722 4.555435ZM10.5732 4.953842 11.527779 5.251801 11.521377 5.272313 11.514099 5.292531 10.5732 4.953842ZM10.555697 5.006356 11.508153 5.31111 11.506044 5.317549 10.555697 5.006356ZM10.435275 5.364153 11.380007 5.691997 11.379786 5.692631 10.435275 5.364153ZM10.40167 5.460779 11.346195 5.789262 11.344435 5.79424 10.40167 5.460779ZM10.289653 5.769563 11.228334 6.11435 11.225561 6.1219 11.222667 6.129404 10.289653 5.769563ZM10.232944 5.915903 9.297235 5.56313 9.301632 5.551467 9.306317 5.539918 10.232944 5.915903ZM10.133524 6.170072 9.20241 5.805342 9.205016 5.798688 9.207718 5.792072 10.133524 6.170072ZM10.052312 6.370326 9.127211 5.990586 9.128641 5.98714 10.052312 6.370326ZM9.969696 6.567779 10.893367 6.950966 10.890373 6.958183 10.887266 6.965353 9.969696 6.567779ZM9.859078 6.819147 10.77259 7.225964 10.771778 7.227777 9.859078 6.819147ZM9.795367 6.961286 10.705292 7.376062 10.70465 7.377464 9.795367 6.961286ZM9.656044 7.260266 10.560446 7.686948 10.555584 7.697253 10.550489 7.707444 9.656044 7.260266ZM9.611937 7.350592 8.710903 6.916805 8.713351 6.911792 9.611937 7.350592ZM9.443908 7.690183 8.549418 7.242983 8.553956 7.234129 9.443908 7.690183ZM9.420104 7.737096 10.314606 8.184301 10.309469 8.194294 9.420104 7.737096ZM9.224771 8.108196 10.105746 8.581358 10.083235 8.623271 10.056847 8.662858 9.224771 8.108196ZM9.217068 8.1215 8.338654 7.6436 8.360101 7.604179 8.384992 7.566839 9.217068 8.1215ZM8.159189 9.838366 8.981016 10.408103 8.298759 11.392235 7.452047 10.545437 8.159189 9.838366ZM0 1.678355-.707142 2.385427-1.146724 1.945801-.946982 1.357069 0 1.678355ZM.364761 .000001-.629918-.103014-.537022-.999999H.364761V.000001ZM11.44905 .000001V-.999999H12.500958L12.447771 .050564 11.44905 .000001ZM12.440464 .220787C12.4349 .319548 12.428947 .424734 12.421407 .532578L10.426278 .393072C10.43274 .300662 10.437991 .208393 10.443629 .1083L12.440464 .220787ZM12.422499 .514649C12.419444 .573509 12.415563 .632366 12.410844 .691203L10.417245 .531326C10.420454 .491301 10.423101 .451188 10.425186 .411001L12.422499 .514649ZM12.411882 .676984C12.403403 .805721 12.392725 .932735 12.380779 1.057423L10.389894 .866698C10.400353 .757523 10.409283 .650672 10.416206 .545546L12.411882 .676984ZM12.382913 1.031651C12.379875 1.075196 12.375963 1.11679 12.373339 1.145L10.381935 .959771C10.384912 .927765 10.386599 .909142 10.387761 .892469L12.382913 1.031651ZM12.373037 1.14819C12.359724 1.286506 12.344946 1.423958 12.328711 1.56124L10.342552 1.326343C10.357121 1.203155 10.370345 1.080136 10.382236 .956581L12.373037 1.14819ZM12.326861 1.575942C12.327918 1.568014 12.32858 1.562077 12.328861 1.559485 12.329092 1.557356 12.329231 1.555902 12.328901 1.559205 12.328706 1.561153 12.32804 1.567858 12.327239 1.575239 12.326389 1.583081 12.325114 1.59427 12.323357 1.60745L10.340898 1.343148C10.339841 1.351076 10.339179 1.357013 10.338898 1.359605 10.338667 1.361734 10.338527 1.363188 10.338858 1.359885 10.339053 1.357937 10.339719 1.351232 10.340519 1.343851 10.34137 1.336008 10.342645 1.324821 10.344401 1.311641L12.326861 1.575942ZM12.322102 1.616545 12.320004 1.63125 10.340055 1.348758 10.342153 1.334052 12.322102 1.616545ZM12.322977 1.608553C12.305054 1.758681 12.28513 1.90679 12.26506 2.050152L10.284373 1.772883C10.303512 1.636169 10.3214 1.502803 10.337081 1.371455L12.322977 1.608553ZM12.262508 2.067302 12.26041 2.080606 10.284828 1.769037 10.286926 1.755733 12.262508 2.067302ZM12.262351 2.067757C12.127871 2.998947 11.926712 3.919277 11.660433 4.821651L9.742206 4.255606C9.981396 3.445035 10.162088 2.618337 10.282887 1.781886L12.262351 2.067757ZM11.650012 4.854827C11.651244 4.851131 11.652095 4.848473 11.652183 4.8482 11.652206 4.848125 11.652203 4.848138 11.652139 4.848336 11.651999 4.848772 11.652058 4.848592 11.651825 4.849319 11.651559 4.850152 11.650992 4.851928 11.650329 4.853987 11.647637 4.862339 11.641215 4.882117 11.632062 4.906527L9.75938 4.204342C9.752328 4.223151 9.747655 4.237676 9.746712 4.240601 9.746486 4.241303 9.746356 4.241712 9.746532 4.241158 9.746595 4.240961 9.747086 4.239424 9.747525 4.23805 9.748531 4.234911 9.750344 4.229276 9.752626 4.222429L11.650012 4.854827ZM11.653969 4.841375C11.611969 4.982127 11.568783 5.120437 11.527779 5.251801L9.618622 4.655881C9.660233 4.522574 9.69966 4.396215 9.737474 4.269494L11.653969 4.841375ZM11.514099 5.292531C11.514876 5.29037 11.514894 5.290205 11.513824 5.293447 11.512589 5.297193 11.511158 5.301643 11.508131 5.311104L9.603265 4.701608C9.608005 4.686795 9.618937 4.652284 9.632302 4.615152L11.514099 5.292531ZM11.506044 5.317549C11.465391 5.441698 11.423594 5.566395 11.380007 5.691997L9.490543 5.036308C9.529571 4.923846 9.567591 4.810479 9.60535 4.695162L11.506044 5.317549ZM11.379786 5.692631 11.346182 5.789258 9.457159 5.132301 9.490764 5.035675 11.379786 5.692631ZM11.344435 5.79424C11.305686 5.90379 11.265793 6.012368 11.228334 6.11435L9.350972 5.424777C9.389126 5.320903 9.424843 5.223624 9.458907 5.127318L11.344435 5.79424ZM11.222667 6.129404C11.209871 6.16258 11.183419 6.23311 11.15957 6.291887L9.306317 5.539918C9.321675 5.502069 9.331629 5.474573 9.356639 5.409723L11.222667 6.129404ZM11.168653 6.268675C11.134171 6.360134 11.097904 6.453593 11.05933 6.548071L9.207718 5.792072C9.237755 5.718505 9.267304 5.642518 9.297235 5.56313L11.168653 6.268675ZM11.064637 6.534801C11.034362 6.61209 11.004043 6.685875 10.975983 6.753512L9.128641 5.98714C9.15519 5.923141 9.179476 5.863891 9.20241 5.805342L11.064637 6.534801ZM10.977407 6.750063C10.953251 6.808908 10.909974 6.910934 10.893367 6.950966L9.046025 6.184592C9.084027 6.092988 9.096763 6.06478 9.127217 5.990589L10.977407 6.750063ZM10.887266 6.965353C10.849059 7.053533 10.810489 7.140857 10.772588 7.225963L8.945568 6.412331C8.98188 6.330792 9.017521 6.250071 9.052126 6.170205L10.887266 6.965353ZM10.771778 7.227777C10.753849 7.267823 10.728768 7.324557 10.705291 7.376061L8.885444 6.546509C8.905374 6.502788 8.9223 6.464295 8.946379 6.410517L10.771778 7.227777ZM10.70465 7.377464C10.656788 7.482034 10.607998 7.586157 10.560446 7.686948L8.751642 6.833585C8.797907 6.735522 8.842931 6.63939 8.886085 6.545106L10.70465 7.377464ZM10.550489 7.707444C10.53824 7.731944 10.530952 7.747552 10.510521 7.789392L8.713351 6.911792C8.722325 6.893415 8.744442 6.847405 8.761599 6.813089L10.550489 7.707444ZM10.512955 7.784372C10.456315 7.90202 10.3964 8.024195 10.33386 8.146237L8.553956 7.234129C8.606236 7.132111 8.658339 7.026025 8.710917 6.916811L10.512955 7.784372ZM10.338353 8.137361C10.332183 8.149703 10.326112 8.161568 10.322462 8.16871 10.31806 8.177322 10.31608 8.181211 10.314549 8.184273L8.525659 7.289918C8.53183 7.277575 8.537901 7.26571 8.541551 7.258569 8.545952 7.249956 8.547933 7.246067 8.549463 7.243006L10.338353 8.137361ZM10.309469 8.194294C10.242442 8.324679 10.173745 8.454751 10.105746 8.581358L8.343795 7.635035C8.407418 7.516576 8.470345 7.397379 8.53074 7.279898L10.309469 8.194294ZM10.056847 8.662858C10.065325 8.650139 10.072458 8.63878 10.078201 8.629333 10.083933 8.619907 10.088609 8.611844 10.092059 8.605777 10.095481 8.599759 10.098112 8.594972 10.099556 8.592327 10.100851 8.589954 10.101904 8.587995 10.101369 8.588987 10.101292 8.589132 10.099626 8.592231 10.097713 8.595736 10.095651 8.599512 10.092396 8.605427 10.088339 8.61256 10.084254 8.619743 10.078933 8.628911 10.072539 8.639426 10.066134 8.649961 10.058323 8.662393 10.049144 8.676162L8.384992 7.566839C8.376513 7.579557 8.36938 7.590917 8.363637 7.600363 8.357905 7.609789 8.35323 7.617852 8.349779 7.623919 8.346357 7.629937 8.343726 7.634725 8.342282 7.637369 8.340987 7.639742 8.339934 7.641702 8.340469 7.640709 8.340548 7.640564 8.342213 7.637466 8.344126 7.633961 8.346189 7.630184 8.349442 7.62427 8.353499 7.617136 8.357584 7.609953 8.362906 7.600785 8.369299 7.59027 8.375705 7.579736 8.383515 7.567304 8.392694 7.553535L10.056847 8.662858ZM10.095482 8.599401C9.756804 9.221914 9.384775 9.825694 8.981016 10.408103L7.337362 9.268628C7.700118 8.745365 8.034368 8.2029 8.338654 7.6436L10.095482 8.599401ZM7.452047 10.545437-.707142 2.385427 .707142 .971284 8.866331 9.131294 7.452047 10.545437ZM-.946982 1.357069C-.786318 .883516-.681315 .393255-.629918-.103014L1.359441 .103015C1.293218 .742454 1.157381 1.379498 .946982 1.999642L-.946982 1.357069ZM.364761-.999999H11.44905V1.000001H.364761V-.999999ZM12.447771 .050564C12.446739 .070941 12.445917 .092263 12.444818 .121006 12.443805 .147519 12.442512 .181548 12.440701 .216416L10.443393 .112671C10.444383 .093624 10.44519 .073039 10.446279 .044588 10.447281 .018367 10.448561-.015625 10.45033-.050563L12.447771 .050564Z" fill="#d9d9de"/>
    </g>
    <g clip-path="url(#clip_8)">
        <path transform="matrix(1,0,0,-1,23.933594,36.55183)" d="M2.209576 13.151663V14.151663H1.209576V13.151663H2.209576ZM2.170369 12.40176 1.175496 12.502924 1.17525 12.50044 2.170369 12.40176ZM.503384 8.374268-.269768 9.008492-.270857 9.00716 .503384 8.374268ZM.251343 8.095593-.48838 8.768506-.488631 8.768229 .251343 8.095593ZM0 7.817618-.707142 8.524689-1.414206 7.817555-.707079 7.110484 0 7.817618ZM7.818229 .000001 7.11115-.707133 7.818293-1.414221 8.525372-.70707 7.818229 .000001ZM8.336317 .541946 7.601411 1.220126 7.598896 1.21738 8.336317 .541946ZM9.919986 2.50528 9.107569 3.088494 9.100292 3.078081 9.919986 2.50528ZM9.975997 2.585801 10.791236 2.00661 10.796227 2.013765 9.975997 2.585801ZM10.147525 2.83787 10.973196 2.273718 10.978242 2.281102 10.983154 2.288576 10.147525 2.83787ZM10.295251 3.064731 9.465637 3.623068 9.457799 3.611422 9.450291 3.59956 10.295251 3.064731ZM10.366662 3.17536 9.523183 3.712523 9.522308 3.711145 10.366662 3.17536ZM13.248353 12.40176 14.247554 12.361779 14.247581 12.362469 13.248353 12.40176ZM13.258156 12.777061 12.258391 12.799525 12.258296 12.793817 13.258156 12.777061ZM13.264455 13.151663H14.264455V14.151663H13.264455V13.151663ZM1.209576 13.151663C1.209576 13.057213 1.202075 13.014375 1.192633 12.826573L3.190111 12.726151C3.193271 12.789018 3.209576 12.995445 3.209576 13.151663H1.209576ZM1.192633 12.826573C1.184057 12.655979 1.184698 12.593382 1.175499 12.502923L3.165239 12.300597C3.181245 12.458006 3.186085 12.646078 3.190111 12.726151L1.192633 12.826573ZM1.17525 12.50044C1.051262 11.250102 .569834 10.032008-.269767 9.00849L1.276535 7.740046C2.374864 9.078968 3.003828 10.672838 3.165488 12.303081L1.17525 12.50044ZM-.270857 9.00716C-.32818 8.937035-.362996 8.906338-.48838 8.768506L.991065 7.422681C1.03511 7.471099 1.17812 7.619649 1.277624 7.741376L-.270857 9.00716ZM-.488631 8.768229C-.62769 8.61525-.634838 8.597-.707142 8.524689L.707142 7.110547C.814069 7.217484 .962346 7.391088 .991316 7.422958L-.488631 8.768229ZM-.707079 7.110484 7.11115-.707133 8.525309 .707135 .707079 8.524753-.707079 7.110484ZM8.525372-.70707C8.619714-.612719 8.741054-.481496 8.798249-.421987L7.356299 .963935C7.239865 .842794 7.194575 .790568 7.111087 .707072L8.525372-.70707ZM8.798249-.421987C8.870234-.347092 8.979041-.236875 9.073738-.133486L7.598896 1.21738C7.525564 1.137319 7.457943 1.069688 7.356299 .963935L8.798249-.421987ZM9.071218-.136229C9.67892 .522305 10.236746 1.212766 10.73968 1.932478L9.100292 3.078081C8.651064 2.435224 8.150311 1.814928 7.601417 1.220122L9.071218-.136229ZM10.732338 1.922112C10.749013 1.94534 10.763704 1.966753 10.772782 1.979982 10.783517 1.995625 10.787491 2.001405 10.791204 2.006633L9.160789 3.164969C9.1456 3.14359 9.13137 3.122763 9.123725 3.111623 9.114425 3.09807 9.110562 3.092526 9.107635 3.088448L10.732338 1.922112ZM10.796227 2.013765C10.855799 2.099186 10.92944 2.209678 10.973196 2.273718L9.321854 3.402021C9.250791 3.298016 9.212415 3.239061 9.155767 3.157836L10.796227 2.013765ZM10.983154 2.288576C11.029538 2.359139 11.08596 2.444192 11.140211 2.529902L9.450291 3.59956C9.407925 3.532627 9.364928 3.467841 9.311895 3.387163L10.983154 2.288576ZM11.124865 2.506392C11.158735 2.55672 11.191175 2.608305 11.211017 2.639573L9.522308 3.711145C9.495942 3.669594 9.480775 3.64556 9.465637 3.623068L11.124865 2.506392ZM11.210141 2.638197C13.10066 5.60678 14.111861 8.97061 14.247554 12.361779L12.249152 12.441742C12.127201 9.393967 11.218676 6.374864 9.523184 3.712522L11.210141 2.638197ZM14.247581 12.362469C14.252908 12.497937 14.255861 12.63175 14.258016 12.760305L12.258296 12.793817C12.256249 12.671703 12.2536 12.554852 12.249125 12.441051L14.247581 12.362469ZM14.257903 12.754597C14.260527 12.871361 14.264455 13.011831 14.264455 13.151663H12.264455C12.264455 13.040827 12.261385 12.932029 12.258409 12.799525L14.257903 12.754597ZM13.264455 14.151663H2.209576V12.151663H13.264455V14.151663Z" fill="#d9d9de"/>
    </g>
    <g clip-path="url(#clip_9)">
        <path transform="matrix(1,0,0,-1,13.420349,29.591416)" d="M19.738022 28.07428 20.445012 27.367054 20.445166 27.367209 19.738022 28.07428ZM18.762757 22.112166 19.469878 21.405072 19.977936 21.913149 19.658493 22.556752 18.762757 22.112166ZM7.479636 10.828609 7.035239 9.932779 7.678791 9.613531 8.186756 10.121515 7.479636 10.828609ZM1.516721 9.853945 .809732 10.561169 .809578 10.561016 1.516721 9.853945ZM1.516721 2.528561 .809456 1.821611 .809701 1.821367 1.516721 2.528561ZM8.842768 2.528561 9.549788 1.821367 9.549911 1.821489 8.842768 2.528561ZM9.817334 8.491377 9.110236 9.19849 8.602146 8.690413 8.921597 8.046791 9.817334 8.491377ZM21.100455 19.774233 21.544722 20.670126 20.901244 20.989224 20.393355 20.481348 21.100455 19.774233ZM27.062672 20.749596 26.355652 21.456789 26.35553 21.456667 27.062672 20.749596ZM27.769814 28.781352C25.356637 31.19477 21.444058 31.19477 19.03088 28.781352L20.445166 27.367209C22.077277 28.999485 24.723418 28.999485 26.35553 27.367209L27.769814 28.781352ZM19.031033 28.781504C17.103585 26.854699 16.721199 23.976147 17.86702 21.66758L19.658493 22.556752C18.881789 24.121634 19.14491 26.067387 20.445012 27.367054L19.031033 28.781504ZM18.055638 22.819258 6.772515 11.535702 8.186756 10.121515 19.469878 21.405072 18.055638 22.819258ZM7.924033 11.72444C5.615962 12.869411 2.737162 12.487957 .809732 10.561169L2.22371 9.146719C3.523829 10.446405 5.470251 10.709127 7.035239 9.932779L7.924033 11.72444ZM.809578 10.561016C-1.603698 8.147495-1.602646 4.234793 .809456 1.821611L2.223985 3.23551C.592199 4.868025 .591851 7.514698 2.223863 9.146873L.809578 10.561016ZM.809701 1.821367C3.223638-.591976 7.136727-.591101 9.549788 1.821367L8.135748 3.235754C6.50352 1.603928 3.856493 1.603403 2.223741 3.235754L.809701 1.821367ZM9.549911 1.821489C11.47731 3.749084 11.858808 6.627565 10.713071 8.935961L8.921597 8.046791C9.698388 6.481737 9.435775 4.535912 8.135626 3.235632L9.549911 1.821489ZM10.524433 7.784262 21.807553 19.067118 20.393355 20.481348 9.110236 9.19849 10.524433 7.784262ZM20.656186 18.878338C22.964917 17.733454 25.842364 18.11488 27.769814 20.042525L26.35553 21.456667C25.055432 20.156437 23.11045 19.893692 21.544722 20.670126L20.656186 18.878338ZM27.769692 20.042403C30.183043 22.455163 30.182868 26.368054 27.769814 28.781352L26.35553 27.367209C27.987765 25.73481 27.987589 23.088326 26.355652 21.456789L27.769692 20.042403Z" fill="#d9d9de"/>
    </g>
</svg>