<svg width="104" height="42" viewBox="0 0 104 42" fill="none" xmlns="http://www.w3.org/2000/svg">
    <path d="M42.0988 24.1501H31.0167C31.0188 24.2047 31.0202 24.2586 31.023 24.3125C31.0272 24.4168 31.0349 24.5205 31.0412 24.6248C31.044 24.6696 31.0461 24.7144 31.0496 24.7585C31.058 24.879 31.0685 24.9994 31.0797 25.1191C31.0825 25.1464 31.0846 25.1737 31.0874 25.1997C31.1 25.3334 31.1147 25.4671 31.1301 25.5995C31.1308 25.6121 31.1322 25.6254 31.1343 25.638C31.1518 25.7808 31.17 25.9244 31.191 26.0665C31.191 26.0686 31.191 26.0707 31.1917 26.0721C31.3195 26.9576 31.5109 27.8328 31.7644 28.6908C31.7658 28.6943 31.7672 28.6978 31.7679 28.7013C31.8078 28.8371 31.8498 28.9716 31.8925 29.1053C31.8953 29.113 31.8981 29.1214 31.9002 29.1291C31.9023 29.1368 31.9051 29.1445 31.9079 29.1529C31.9471 29.2741 31.9884 29.3945 32.0297 29.5156C32.0402 29.5457 32.0507 29.5765 32.0619 29.6073C32.099 29.7117 32.1369 29.816 32.1761 29.921C32.1943 29.9679 32.2118 30.0149 32.2293 30.0625C32.2636 30.1493 32.2965 30.2354 32.3308 30.3215C32.3567 30.3867 32.3833 30.4518 32.4106 30.5162C32.4386 30.5841 32.4666 30.6506 32.4953 30.7185C32.5303 30.8012 32.5674 30.8831 32.6038 30.9657C32.6255 31.0147 32.6479 31.063 32.6696 31.1121C32.7145 31.2108 32.7607 31.3095 32.8076 31.4075C32.823 31.439 32.8377 31.4706 32.8531 31.5014C32.9077 31.6148 32.963 31.7261 33.019 31.8375C33.0288 31.8543 33.0365 31.8718 33.0456 31.8886C33.1086 32.0118 33.173 32.1343 33.2395 32.2562C33.2423 32.2618 33.2458 32.2667 33.2479 32.273C33.2619 32.2982 33.2773 32.3227 33.2913 32.3479L42.7563 26.6462L42.7913 26.6252C42.4181 25.8382 42.1857 25.0008 42.0988 24.1501Z" fill="#93D500"/>
    <path d="M44.8232 29.2383L44.7966 29.2649L36.9902 37.0714C37.0301 37.1085 37.07 37.147 37.1114 37.1827C37.1842 37.2492 37.2584 37.3143 37.3319 37.3794C37.3704 37.4131 37.4075 37.4467 37.446 37.4803C37.5342 37.5566 37.6238 37.6308 37.7128 37.7057C37.7373 37.726 37.7604 37.7456 37.7849 37.766C37.8983 37.8593 38.0129 37.9513 38.1286 38.0418C38.2392 38.1294 38.3506 38.2141 38.464 38.2995C38.4689 38.3023 38.4724 38.3051 38.4766 38.3086C38.9476 38.6605 39.4349 38.99 39.937 39.2959C39.9538 39.3071 39.9713 39.3169 39.9888 39.3281C40.0848 39.3848 40.18 39.4415 40.2766 39.4975L40.453 39.5983C40.509 39.6306 40.5643 39.6614 40.6204 39.6922C40.7219 39.7475 40.8234 39.8028 40.9256 39.8567C40.9396 39.8644 40.9536 39.8721 40.9683 39.8791C41.2519 40.0276 41.5403 40.1655 41.8316 40.2985L42.1088 39.6257L46.0351 30.0912L46.0491 30.0562C45.6206 29.8265 45.2096 29.5548 44.8232 29.2383Z" fill="#4D5A31"/>
    <path d="M44.0103 28.4604C43.9264 28.3671 43.8452 28.2713 43.7667 28.1734C43.6967 28.0872 43.6295 28.0004 43.5644 27.9122C43.4895 27.8114 43.4166 27.7091 43.3473 27.6055C43.278 27.5012 43.2094 27.3962 43.145 27.2897L33.6682 32.9984C33.8138 33.2406 33.965 33.4759 34.1205 33.7084C34.1254 33.7168 34.1303 33.7252 34.1359 33.7329C34.1373 33.7364 34.1394 33.7385 34.1415 33.742C34.1464 33.749 34.1513 33.7574 34.1562 33.7651C34.1569 33.7658 34.1576 33.7665 34.1576 33.7679C34.1702 33.7861 34.1828 33.8043 34.1954 33.8232C34.1961 33.8239 34.1968 33.8253 34.1982 33.8267C34.1996 33.8281 34.1989 33.8274 34.1989 33.8281C34.3634 34.0711 34.5328 34.3105 34.7072 34.5444C34.7107 34.5493 34.7149 34.5542 34.7184 34.5591C34.7226 34.564 34.7261 34.5689 34.7296 34.5738C34.8059 34.6739 34.8815 34.7741 34.9599 34.8735C34.9704 34.8868 34.9802 34.8994 34.9914 34.912C35.0712 35.0149 35.1531 35.1164 35.2364 35.2166C35.2561 35.2404 35.2764 35.2642 35.296 35.2887C35.3709 35.3783 35.4458 35.4672 35.5221 35.5555C35.555 35.5933 35.5886 35.6318 35.6222 35.6689C35.6873 35.7431 35.7517 35.8173 35.8182 35.8902C35.8547 35.9301 35.8925 35.9707 35.9296 36.0106C35.9464 36.0295 35.9632 36.047 35.9807 36.0659C36.029 36.1184 36.0773 36.1709 36.1263 36.2227C36.1459 36.2431 36.1669 36.2634 36.1865 36.2844C36.2726 36.374 36.3601 36.4643 36.4484 36.5525L44.2666 28.7349C44.177 28.6453 44.093 28.5529 44.0103 28.4604Z" fill="#6BA43A"/>
    <path d="M54.3728 29.2342C54.2867 29.3035 54.1998 29.3714 54.1116 29.4365L54.1305 29.4694L59.8309 38.9311C60.0949 38.7588 60.356 38.581 60.6108 38.394C61.1625 37.9872 61.696 37.5461 62.2106 37.0714L54.4036 29.265L54.3728 29.2342Z" fill="#4D5A31"/>
    <path d="M59.0027 39.0088L58.8094 38.6874L53.4885 29.8559C53.3807 29.9203 53.2708 29.9791 53.1609 30.038C53.0496 30.0982 52.9382 30.1535 52.8248 30.2074C51.8027 30.6919 50.6965 30.9398 49.5882 30.9398C48.8622 30.9398 48.1368 30.8348 47.4353 30.6254C47.3156 30.5897 47.1987 30.5428 47.081 30.5008C46.9627 30.4595 46.843 30.4231 46.7268 30.3755L42.8033 39.9036L42.65 40.2768L42.5184 40.5968L42.5177 40.5982C42.5275 40.6024 42.538 40.6059 42.5478 40.6101C42.559 40.6143 42.5695 40.6178 42.58 40.6227H42.5814C42.5842 40.6241 42.587 40.6248 42.5891 40.6255C42.6815 40.664 42.7746 40.6962 42.8677 40.7327C42.9847 40.7782 43.1009 40.8244 43.2178 40.8671C43.278 40.8888 43.3368 40.914 43.3963 40.935H43.397C44.6266 41.369 45.8982 41.6734 47.191 41.8432C47.2421 41.8495 47.2918 41.8565 47.3429 41.8635C47.3954 41.8698 47.4486 41.8747 47.5018 41.881C47.6012 41.8922 47.7007 41.9034 47.8008 41.9132L47.875 41.9195C47.9975 41.9314 48.12 41.9419 48.2418 41.9503C48.2839 41.9538 48.3259 41.9552 48.3672 41.9587C48.4743 41.9657 48.5814 41.972 48.6885 41.9769C48.7543 41.9811 48.8201 41.9825 48.886 41.9853C48.9714 41.9881 49.0561 41.9916 49.1415 41.9944C49.264 41.9972 49.3879 41.9979 49.5112 41.9986C49.5406 41.9986 49.5693 41.9993 49.5987 42C50.6314 42 51.664 41.9139 52.6855 41.7423C52.7023 41.7395 52.7198 41.7367 52.7373 41.7346C52.8451 41.7157 52.953 41.6954 53.0608 41.6758C53.1224 41.6639 53.1847 41.652 53.2449 41.6401C53.3079 41.6268 53.3716 41.6142 53.4346 41.6002C53.5396 41.5785 53.6447 41.5554 53.7504 41.5309C53.7693 41.5267 53.7882 41.5232 53.8071 41.5176C55.36 41.1563 56.8596 40.5961 58.2683 39.8546V39.8539C58.3607 39.8056 58.451 39.7503 58.5427 39.6999C58.6519 39.6404 58.7604 39.578 58.8697 39.5157C58.9446 39.473 59.0209 39.4331 59.0958 39.3883C59.0965 39.3876 59.0972 39.3869 59.0979 39.3869H59.0986C59.1 39.3862 59.1007 39.3855 59.1021 39.3848L59.1035 39.3834C59.1042 39.3834 59.1049 39.3827 59.1056 39.3827C59.107 39.382 59.1077 39.3813 59.1091 39.3806C59.1133 39.3778 59.1175 39.3757 59.1217 39.3729C59.1455 39.3582 59.17 39.3442 59.1945 39.3295L59.0027 39.0088ZM44.8274 17.5676C44.9135 17.4976 45.001 17.4303 45.0885 17.3645L45.0696 17.3323L39.3692 7.86996C39.1046 8.0429 38.8434 8.22145 38.5879 8.4084C38.0369 8.81451 37.5027 9.25493 36.9895 9.72896L44.7966 17.5361L44.8274 17.5676Z" fill="#93D500"/>
    <path d="M36.4483 10.2492C36.3594 10.3381 36.2754 10.4299 36.1886 10.5195C36.1025 10.6098 36.0143 10.6994 35.9295 10.7905C35.3596 11.4067 34.8319 12.0608 34.3501 12.7482C34.327 12.7797 34.3046 12.8133 34.2815 12.8455C34.2282 12.9239 34.175 13.0017 34.1232 13.0801C34.0686 13.1613 34.0147 13.2439 33.9622 13.3258C33.9426 13.3559 33.923 13.3868 33.9041 13.4169C32.1083 16.2337 31.1463 19.4287 31.0168 22.6503C31.0119 22.7756 31.0091 22.9009 31.0063 23.0256C31.0042 23.1502 31 23.2755 31 23.4002H42.057C42.057 23.2755 42.0682 23.1509 42.0752 23.0256C42.0815 22.9002 42.0829 22.7749 42.0955 22.6503C42.2383 21.2107 42.7942 19.8047 43.7632 18.6242C43.8416 18.5282 43.9305 18.4379 44.0152 18.3455C44.0985 18.2524 44.1769 18.1564 44.2666 18.0668L36.4483 10.2492ZM59.2617 7.50446C59.247 7.49536 59.2309 7.48626 59.2162 7.47715C59.1189 7.41764 59.0209 7.36022 58.9221 7.30281C58.8654 7.2699 58.808 7.23769 58.7513 7.20548C58.6932 7.17327 58.6365 7.14106 58.5784 7.10955C58.4784 7.05513 58.3783 7.00099 58.278 6.94711C58.2619 6.93941 58.2465 6.93101 58.2304 6.9226C57.5821 6.58371 56.9163 6.28543 56.2365 6.02636C56.219 6.01936 56.2015 6.01236 56.184 6.00605C56.0356 5.95074 55.8871 5.89542 55.7373 5.84361C54.5291 5.42213 53.2807 5.12579 52.012 4.95927L51.8565 4.93827C51.804 4.93196 51.7522 4.92706 51.7004 4.92146C51.6003 4.90956 51.5009 4.89835 51.4001 4.88855C51.3728 4.88575 51.3448 4.88435 51.3161 4.88085C51.1977 4.87035 51.078 4.85984 50.959 4.85074L50.8197 4.84234C50.7182 4.83604 50.6145 4.82834 50.513 4.82413C50.4584 4.82133 50.4038 4.81923 50.3499 4.81783V15.9011C50.9184 15.96 51.482 16.0811 52.0288 16.2666L60.1859 8.11012C59.8827 7.90007 59.5768 7.69561 59.2617 7.50446Z" fill="#4D5A31"/>
    <path d="M49.2255 4.80873C49.1002 4.81153 48.9749 4.81153 48.8502 4.81643C48.0682 4.84794 47.2876 4.92776 46.5132 5.058C46.4964 5.0608 46.4796 5.0636 46.4621 5.0664C46.3536 5.08531 46.2458 5.10491 46.138 5.12522C46.0771 5.13712 46.0155 5.14832 45.9539 5.16023C45.8901 5.17283 45.8271 5.18613 45.7634 5.20014C45.6584 5.22184 45.5534 5.24495 45.4491 5.26946C45.4295 5.27296 45.4106 5.27786 45.3917 5.28206C43.8396 5.64446 42.3402 6.20353 40.9298 6.94571C40.8381 6.99472 40.7485 7.05004 40.6568 7.09975C40.5475 7.15997 40.4383 7.22159 40.3298 7.2839C40.2493 7.33081 40.1674 7.37353 40.0869 7.42114C40.0862 7.42184 40.0848 7.42254 40.0841 7.42254C40.0785 7.42604 40.0729 7.42954 40.0673 7.43234C40.0462 7.44565 40.0245 7.45615 40.0035 7.46875L40.0042 7.47015L40.1982 7.79154L45.7116 16.9451C45.8194 16.8807 45.9293 16.8212 46.0393 16.7624C46.1499 16.7029 46.2619 16.6468 46.3746 16.5936C47.1538 16.2217 47.9913 15.987 48.8502 15.8997C48.9749 15.8871 49.0995 15.8766 49.2248 15.8703C49.3494 15.864 49.4748 15.8577 49.6001 15.8577V4.80103C49.4748 4.80103 49.3501 4.80663 49.2255 4.80873Z" fill="#6BA43A"/>
    <path d="M68.1771 22.4864C68.1715 22.387 68.1659 22.2883 68.1589 22.1881C68.1563 22.1386 68.153 22.0891 68.1491 22.0397C68.1414 21.9228 68.1316 21.8058 68.1204 21.6889C68.1183 21.6588 68.1155 21.6287 68.1127 21.5986C68.1001 21.4676 68.086 21.3374 68.0706 21.2072C68.0692 21.1967 68.0685 21.1862 68.0671 21.1757L68.065 21.161C68.0482 21.0202 68.0293 20.8795 68.0097 20.7394L68.0076 20.7261C67.88 19.8423 67.6891 18.9688 67.4363 18.1123C67.4342 18.106 67.4328 18.1011 67.4307 18.0955C67.3908 17.9618 67.3495 17.8295 67.3082 17.6971C67.3019 17.6796 67.2963 17.6621 67.2907 17.6446C67.2515 17.5249 67.2116 17.4058 67.1703 17.2868L67.1367 17.1902C67.1003 17.0873 67.0625 16.9843 67.0247 16.8814C67.0058 16.8324 66.9876 16.7834 66.968 16.7351C66.9358 16.6496 66.9028 16.5649 66.8685 16.4809C66.8419 16.413 66.8146 16.3465 66.7873 16.2806C66.76 16.2141 66.732 16.149 66.7047 16.0832C66.6683 15.9992 66.6312 15.9151 66.5941 15.8318C66.5731 15.7849 66.5521 15.7373 66.5304 15.6897C66.4849 15.5903 66.438 15.4901 66.3911 15.3907C66.3764 15.3613 66.3617 15.3305 66.347 15.3004C66.2923 15.1869 66.2363 15.0728 66.1789 14.9608C66.1712 14.9454 66.1628 14.9293 66.1551 14.9139C66.0914 14.7899 66.0256 14.6653 65.9598 14.5428C65.957 14.5386 65.9549 14.5337 65.9521 14.5295C65.6306 13.9386 65.2775 13.3654 64.8942 12.8126L56.735 20.9726C56.9205 21.5195 57.041 22.0831 57.0998 22.651H68.1841C68.1813 22.5956 68.1799 22.5403 68.1771 22.4864Z" fill="#4D5A31"/>
    <path d="M57.1432 23.4002C57.1432 23.5255 57.1313 23.6501 57.125 23.7755C57.1187 23.9008 57.1166 24.0261 57.104 24.1501C56.9611 25.5904 56.4059 26.9963 55.437 28.1776C55.3586 28.2735 55.2697 28.3631 55.1849 28.4562C55.1009 28.5487 55.0232 28.6446 54.9336 28.7342L62.7518 36.5518C62.8407 36.4629 62.9241 36.3712 63.0109 36.2809C63.0977 36.1905 63.1859 36.1016 63.2699 36.0099C63.8482 35.3832 64.3775 34.7278 64.8536 34.0466C64.8732 34.0192 64.8907 33.9926 64.9096 33.966C64.9677 33.8827 65.0237 33.798 65.0811 33.714C65.1308 33.6383 65.1805 33.5634 65.2288 33.4871C65.2533 33.4507 65.2772 33.4129 65.3003 33.3765C67.0933 30.561 68.0531 27.3695 68.1819 24.1501C68.1868 24.0254 68.1896 23.9001 68.1917 23.7748C68.1945 23.6501 68.198 23.5255 68.198 23.4002H57.1432Z" fill="#6BA43A"/>
    <path d="M71.483 1.51714C69.4604 -0.505712 66.181 -0.505712 64.1584 1.51714C62.5446 3.13037 62.2218 5.54253 63.1831 7.47925L51.9 18.7628C49.9635 17.8021 47.5508 18.1242 45.9371 19.7375C43.9144 21.7603 43.9151 25.04 45.9371 27.0629C47.9604 29.0857 51.2405 29.085 53.2631 27.0629C54.8769 25.4489 55.1989 23.0368 54.2377 21.1L65.5208 9.81718C67.458 10.7778 69.8692 10.4558 71.483 8.84182C73.5057 6.81967 73.5057 3.53998 71.483 1.51714Z" fill="#424143"/>
</svg>
