<svg width="104" height="42" viewBox="0 0 104 42" fill="none" xmlns="http://www.w3.org/2000/svg">
    <path d="M43.8077 25.1902C45.9106 25.1902 47.6154 23.4854 47.6154 21.3825C47.6154 19.2795 45.9106 17.5748 43.8077 17.5748C41.7048 17.5748 40 19.2795 40 21.3825C40 23.4854 41.7048 25.1902 43.8077 25.1902ZM34.8077 32.8055C36.9106 32.8055 38.6154 31.1008 38.6154 28.9978C38.6154 26.8949 36.9106 25.1902 34.8077 25.1902C32.7048 25.1902 31 26.8949 31 28.9978C31 31.1008 32.7048 32.8055 34.8077 32.8055ZM69.1923 32.8055C71.2952 32.8055 73 31.1008 73 28.9978C73 26.8949 71.2952 25.1902 69.1923 25.1902C67.0894 25.1902 65.3846 26.8949 65.3846 28.9978C65.3846 31.1008 67.0894 32.8055 69.1923 32.8055Z" fill="black"/>
    <path d="M56.6865 21.5429C56.5648 20.2708 56.5028 19.2119 55.5282 18.4678C54.294 17.5253 52.896 18.1368 51.1739 17.5153C49.4817 17.1059 48.2266 15.6035 48.2266 13.8127C48.2266 11.707 49.962 10 52.1028 10C53.6883 10 55.0515 10.9364 55.652 12.2776C56.5709 14.0232 55.9737 15.7996 57.1283 16.6944C58.4955 17.754 60.3387 16.9781 62.3953 17.9819C63.0562 18.2856 63.6156 18.7672 64.0097 19.3642C64.4039 19.9611 64.6328 20.6733 64.6328 21.4382C64.6328 23.2289 63.3777 24.7313 61.6855 25.1407C59.9634 25.7623 58.5653 25.1508 57.3311 26.0932C55.9432 27.153 56.6863 28.926 55.5551 30.7989C54.9131 32.0322 53.6082 32.8763 52.1028 32.8763C49.962 32.8763 48.2266 31.1693 48.2266 29.0636C48.2266 27.534 49.1423 26.2147 50.464 25.6074C52.5207 24.6035 54.3639 25.3794 55.7311 24.3199C56.5198 23.7086 56.6865 22.7657 56.6865 21.5429Z" fill="#D0021B"/>
</svg>
