<svg width="104" height="42" viewBox="0 0 104 42" fill="none" xmlns="http://www.w3.org/2000/svg">
    <path d="M47.1154 21.3825C47.1154 23.2092 45.6345 24.6902 43.8077 24.6902C41.9809 24.6902 40.5 23.2092 40.5 21.3825C40.5 19.5557 41.9809 18.0748 43.8077 18.0748C45.6345 18.0748 47.1154 19.5557 47.1154 21.3825ZM38.1154 28.9978C38.1154 30.8246 36.6345 32.3055 34.8077 32.3055C32.9809 32.3055 31.5 30.8246 31.5 28.9978C31.5 27.1711 32.9809 25.6902 34.8077 25.6902C36.6345 25.6902 38.1154 27.1711 38.1154 28.9978ZM72.5 28.9978C72.5 30.8246 71.0191 32.3055 69.1923 32.3055C67.3655 32.3055 65.8846 30.8246 65.8846 28.9978C65.8846 27.1711 67.3655 25.6902 69.1923 25.6902C71.0191 25.6902 72.5 27.1711 72.5 28.9978Z" stroke="#D9D9DE"/>
    <path d="M57.1865 21.5429V21.519L57.1842 21.4953C57.1778 21.428 57.1716 21.3605 57.1653 21.2927C57.0584 20.1384 56.9457 18.9211 55.8317 18.0704C55.0874 17.5021 54.2966 17.4155 53.5636 17.3721C53.4697 17.3665 53.3766 17.3616 53.2841 17.3567C52.6389 17.3227 52.0232 17.2902 51.3436 17.045L51.3179 17.0357L51.2914 17.0293C49.8132 16.6717 48.7266 15.3621 48.7266 13.8127C48.7266 11.9909 50.2303 10.5 52.1028 10.5C53.4877 10.5 54.6742 11.3174 55.1956 12.4819L55.2021 12.4964L55.2095 12.5105C55.578 13.2105 55.6742 13.9116 55.7728 14.6308C55.784 14.7121 55.7951 14.7936 55.8067 14.8753C55.9149 15.6373 56.0675 16.5049 56.822 17.0896C57.642 17.7251 58.5977 17.7952 59.4674 17.8578C59.4854 17.8591 59.5034 17.8603 59.5214 17.8616C60.4017 17.9248 61.2655 17.9868 62.176 18.4313L62.176 18.4314L62.1866 18.4363C62.7627 18.701 63.2498 19.1207 63.5925 19.6397C63.9346 20.1578 64.1328 20.7747 64.1328 21.4382C64.1328 22.9875 63.0461 24.2971 61.568 24.6547L61.5414 24.6611L61.5158 24.6704C60.8362 24.9157 60.2204 24.9482 59.5752 24.9822C59.4828 24.987 59.3897 24.9919 59.2958 24.9975C58.5628 25.041 57.772 25.1275 57.0277 25.6958C56.1645 26.355 55.9832 27.2465 55.8531 28.0624C55.841 28.1382 55.8293 28.2136 55.8176 28.2889C55.7004 29.0454 55.5866 29.7797 55.1271 30.5404L55.1189 30.554L55.1116 30.5681C54.5538 31.6396 53.4176 32.3763 52.1028 32.3763C50.2303 32.3763 48.7266 30.8854 48.7266 29.0636C48.7266 27.7399 49.5187 26.592 50.6728 26.0617L50.6729 26.0618L50.6833 26.0567C51.5939 25.6123 52.4576 25.5503 53.3379 25.4871C53.3559 25.4858 53.374 25.4845 53.392 25.4832C54.2617 25.4206 55.2174 25.3506 56.0373 24.7151C57.0275 23.9477 57.1865 22.78 57.1865 21.5429Z" stroke="#D9D9DE"/>
</svg>
