<svg width="104" height="42" viewBox="0 0 104 42" fill="none" xmlns="http://www.w3.org/2000/svg">
    <g clip-path="url(#clip0_4_198)">
        <path d="M36.8134 39.015L35.5012 4.04975C35.468 3.16608 36.1456 2.41718 37.0281 2.36202L66.7686 0.503246C67.6669 0.447099 68.4407 1.12984 68.4968 2.02818C68.4989 2.06202 68.5 2.09593 68.5 2.12985V40.2307C68.5 41.1308 67.7703 41.8605 66.8702 41.8605C66.8458 41.8605 66.8215 41.8599 66.7971 41.8588L38.3689 40.582C37.5217 40.544 36.8452 39.8625 36.8134 39.015Z" stroke="#D9D9DE"/>
        <mask id="mask0_4_198" style="mask-type:luminance" maskUnits="userSpaceOnUse" x="35" y="0" width="34" height="43">
            <path d="M36.8134 39.015L35.5012 4.04975C35.468 3.16608 36.1456 2.41718 37.0281 2.36202L66.7686 0.503246C67.6669 0.447099 68.4407 1.12984 68.4968 2.02818C68.4989 2.06202 68.5 2.09593 68.5 2.12985V40.2307C68.5 41.1308 67.7703 41.8605 66.8702 41.8605C66.8458 41.8605 66.8215 41.8599 66.7971 41.8588L38.3689 40.582C37.5217 40.544 36.8452 39.8625 36.8134 39.015Z" fill="white" stroke="#D9D9DE"/>
        </mask>
        <g mask="url(#mask0_4_198)">
            <path d="M60.7907 0.784642L63.9124 0.539371L64.0564 4.66333L62.7901 3.66577L62.4864 3.42658L62.1785 3.66018L60.6221 4.8408L60.7907 0.784642ZM60.7105 15.5046C60.6738 15.517 60.6328 15.5299 60.5875 15.543C60.3879 15.6008 60.1286 15.657 59.8252 15.7083C59.2196 15.8105 58.4721 15.887 57.7444 15.9205C57.0129 15.9541 56.325 15.9431 55.8319 15.8784C55.631 15.852 55.4847 15.8194 55.3883 15.7874C55.4165 14.2678 55.0924 13.3257 54.5307 12.7737C53.9418 12.1951 53.21 12.1658 52.7991 12.1658C52.3912 12.1658 51.7715 12.2243 51.2416 12.5727C50.6738 12.9459 50.2937 13.5945 50.2937 14.5855C50.2937 15.8852 51.1456 16.7849 52.1928 17.5087C52.8748 17.9801 53.7243 18.4306 54.5952 18.8924C55.0427 19.1298 55.4959 19.3701 55.9349 19.6178C58.5923 21.1172 61.0676 23.0395 61.0676 26.9692C61.0676 29.1901 60.1723 30.8854 58.7163 32.0368C57.2476 33.1984 55.1736 33.8318 52.7991 33.8318C50.3141 33.8318 48.077 33.3264 46.5274 32.0325C45.0303 30.7825 44.0844 28.7185 44.2818 25.3788C44.2912 25.375 44.3013 25.3709 44.3124 25.3668C44.4573 25.3124 44.6836 25.2603 44.9855 25.2178C45.5827 25.1338 46.3791 25.1003 47.1834 25.1125C47.9869 25.1247 48.7744 25.1821 49.3518 25.2725C49.6065 25.3124 49.8023 25.356 49.935 25.3982C49.9171 26.7482 50.0642 27.7531 50.494 28.4327C50.992 29.2201 51.7887 29.4642 52.7204 29.4642C53.4593 29.4642 54.0824 29.2586 54.515 28.7985C54.9423 28.344 55.1078 27.7212 55.1078 27.0445C55.1078 25.7306 54.2833 24.7868 53.2474 24.0162C52.5245 23.4783 51.6205 22.9707 50.6998 22.4537C50.3163 22.2384 49.93 22.0214 49.5526 21.8C46.9162 20.253 44.4912 18.3775 44.4912 14.7361C44.4912 12.5976 45.2228 10.8593 46.5712 9.6505C47.9256 8.43636 49.9572 7.70797 52.6418 7.70797C55.3283 7.70797 57.3261 8.4253 58.6537 9.74981C59.9302 11.0234 60.6567 12.9278 60.7105 15.5046ZM55.2792 15.7398C55.2797 15.7397 55.284 15.742 55.2906 15.7471C55.282 15.7424 55.2787 15.7399 55.2792 15.7398Z" stroke="#D9D9DE"/>
        </g>
    </g>
    <defs>
        <clipPath id="clip0_4_198">
            <rect width="104" height="42" fill="white"/>
        </clipPath>
    </defs>
</svg>
