<svg width="104" height="42" viewBox="0 0 104 42" fill="none" xmlns="http://www.w3.org/2000/svg">
    <g clip-path="url(#clip0_4_211)">
        <path d="M36.3138 39.0338L35.0015 4.0685C34.9582 2.91373 35.8436 1.93508 36.9969 1.863L66.7374 0.00421985C67.9113 -0.0691521 68.9225 0.823044 68.9959 1.99699C68.9986 2.04122 69 2.08553 69 2.12985V40.2307C69 41.407 68.0465 42.3605 66.8702 42.3605C66.8384 42.3605 66.8065 42.3598 66.7747 42.3583L38.3465 41.0815C37.2393 41.0318 36.3553 40.1413 36.3138 39.0338Z" fill="#FF4785"/>
        <mask id="mask0_4_211" style="mask-type:luminance" maskUnits="userSpaceOnUse" x="35" y="0" width="34" height="43">
            <path d="M36.3138 39.0338L35.0015 4.0685C34.9582 2.91373 35.8436 1.93508 36.9969 1.863L66.7374 0.00421985C67.9113 -0.0691521 68.9225 0.823044 68.9959 1.99699C68.9986 2.04122 69 2.08553 69 2.12985V40.2307C69 41.407 68.0465 42.3605 66.8702 42.3605C66.8384 42.3605 66.8065 42.3598 66.7747 42.3583L38.3465 41.0815C37.2393 41.0318 36.3553 40.1413 36.3138 39.0338Z" fill="white"/>
        </mask>
        <g mask="url(#mask0_4_211)">
            <path d="M60.1064 5.20678L60.3096 0.320906L64.3938 0L64.5698 5.03863C64.5759 5.21399 64.4387 5.36111 64.2634 5.36723C64.1883 5.36985 64.1147 5.34578 64.0557 5.29929L62.4806 4.05854L60.6159 5.47309C60.4761 5.57914 60.2768 5.55178 60.1707 5.41198C60.1261 5.35314 60.1034 5.28058 60.1064 5.20678ZM54.8831 15.9662C54.8831 16.7949 60.4644 16.3977 61.2137 15.8157C61.2137 10.1731 58.186 7.20797 52.6418 7.20797C47.0976 7.20797 43.9912 10.2192 43.9912 14.7361C43.9912 22.6029 54.6078 22.7535 54.6078 27.0445C54.6078 28.249 54.018 28.9642 52.7204 28.9642C51.0296 28.9642 50.3612 28.1007 50.4398 25.1647C50.4398 24.5278 43.9912 24.3292 43.7946 25.1647C43.294 32.2796 47.7267 34.3318 52.7991 34.3318C57.7141 34.3318 61.5676 31.7119 61.5676 26.9692C61.5676 18.5378 50.7937 18.7636 50.7937 14.5855C50.7937 12.8917 52.052 12.6658 52.7991 12.6658C53.5855 12.6658 55.001 12.8044 54.8831 15.9662Z" fill="white"/>
        </g>
    </g>
    <defs>
        <clipPath id="clip0_4_211">
            <rect width="104" height="42" fill="white"/>
        </clipPath>
    </defs>
</svg>
