<svg width="104" height="42" viewBox="0 0 104 42" fill="none" xmlns="http://www.w3.org/2000/svg">
<path d="M71.9136 6.18819L52.6162 40.3933C52.2178 41.0995 51.1942 41.1036 50.7898 40.4009L31.1098 6.19149C30.6692 5.42564 31.3299 4.49799 32.2054 4.65311L51.5234 8.07588C51.6466 8.09771 51.7728 8.09751 51.896 8.07525L70.8101 4.65802C71.6826 4.50037 72.3464 5.42084 71.9136 6.18819Z" fill="url(#paint0_linear_8_349)"/>
<path d="M60.7256 0.163663L46.445 2.93741C46.2103 2.983 46.0365 3.18017 46.0223 3.41679L45.1439 18.1234C45.1232 18.4698 45.4441 18.7386 45.7852 18.6607L49.7611 17.7511C50.1331 17.6661 50.4693 17.9909 50.3928 18.3617L49.2116 24.0954C49.1321 24.4813 49.4976 24.8113 49.8777 24.6968L52.3335 23.9572C52.7142 23.8427 53.08 24.1736 52.9994 24.5598L51.1222 33.5662C51.0048 34.1296 51.7607 34.4368 52.076 33.9538L52.2866 33.6312L63.9232 10.6114C64.1181 10.226 63.7821 9.78651 63.355 9.8682L59.2624 10.6511C58.8779 10.7246 58.5506 10.3696 58.6592 9.99664L61.3303 0.817833C61.439 0.444225 61.1106 0.0888928 60.7256 0.163663Z" fill="url(#paint1_linear_8_349)"/>
<defs>
<linearGradient id="paint0_linear_8_349" x1="30.6293" y1="3.43067" x2="54.3734" y2="35.9616" gradientUnits="userSpaceOnUse">
<stop stop-color="#41D1FF"/>
<stop offset="1" stop-color="#BD34FE"/>
</linearGradient>
<linearGradient id="paint1_linear_8_349" x1="50.4146" y1="0.916729" x2="54.685" y2="30.47" gradientUnits="userSpaceOnUse">
<stop stop-color="#FFEA83"/>
<stop offset="0.0833333" stop-color="#FFDD35"/>
<stop offset="1" stop-color="#FFA800"/>
</linearGradient>
</defs>
</svg>
