<svg width="104" height="42" viewBox="0 0 104 42" fill="none" xmlns="http://www.w3.org/2000/svg">
<path d="M51.9849 8.56729L51.9849 8.56728L70.899 5.15005C71.3654 5.06578 71.6977 5.55318 71.4781 5.94251C71.4781 5.94252 71.4781 5.94253 71.4781 5.94254L52.1808 40.1476C51.9728 40.5162 51.4344 40.5186 51.2231 40.1515L31.5432 5.94216C31.3197 5.55359 31.6501 5.06252 32.1182 5.14544C32.1182 5.14544 32.1182 5.14544 32.1182 5.14544L51.4362 8.56821L51.5234 8.07588L51.4362 8.56822C51.6177 8.60037 51.8035 8.60006 51.9849 8.56729Z" stroke="#D9D9DE"/>
<path d="M46.5403 3.42824L46.5403 3.42824C46.527 3.43083 46.5218 3.44045 46.5214 3.4466C46.5214 3.44661 46.5214 3.44665 46.5214 3.44666L45.643 18.1532L46.5403 3.42824ZM46.5403 3.42824L60.8209 0.654493M46.5403 3.42824L60.8209 0.654493M49.6496 17.2637L49.6497 17.2637C50.3688 17.0993 51.034 17.7277 50.8825 18.4626C50.8825 18.4626 50.8825 18.4626 50.8825 18.4626L49.7013 24.1963C49.7005 24.2003 49.7006 24.2022 49.7006 24.2026L49.7009 24.2039C49.7013 24.2052 49.703 24.2087 49.7073 24.2126C49.7117 24.2166 49.7162 24.2186 49.7194 24.2194C49.7208 24.2197 49.7223 24.2199 49.724 24.2198C49.7249 24.2198 49.7262 24.2197 49.7281 24.2194L49.6496 17.2637ZM49.6496 17.2637L45.6738 18.1732M49.6496 17.2637L45.6738 18.1732M60.8209 0.654493C60.8209 0.654492 60.8209 0.654491 60.8209 0.65449M60.8209 0.654493L60.8209 0.65449M45.6738 18.1732L45.6737 18.1733C45.6671 18.1748 45.6633 18.1742 45.6607 18.1736C45.6574 18.1727 45.6536 18.1709 45.65 18.1679C45.6464 18.1649 45.6446 18.162 45.6438 18.1603L45.6438 18.1603C45.6434 18.1595 45.6427 18.1578 45.643 18.1532L45.6738 18.1732ZM60.8209 0.65449C60.8259 0.653529 60.829 0.653568 60.8306 0.653685M60.8209 0.65449L60.8306 0.653685M60.8306 0.653685C60.8323 0.653809 60.8337 0.654121 60.8351 0.654594M60.8306 0.653685L60.8351 0.654594M60.8351 0.654594C60.8381 0.655625 60.8422 0.657946 60.8459 0.661992M60.8351 0.654594L60.8459 0.661992M60.8459 0.661992C60.8496 0.666038 60.8509 0.669449 60.8512 0.670643M60.8459 0.661992L60.8512 0.670643M60.8512 0.670643L60.8514 0.672027M60.8512 0.670643L60.8514 0.672027M60.8514 0.672027C60.8514 0.672464 60.8513 0.674373 60.8502 0.678123L60.8514 0.672027ZM52.1893 23.4785L49.7336 24.218L60.8502 0.678206L58.1791 9.85692C58.1791 9.85693 58.1791 9.85693 58.1791 9.85693C57.9639 10.5965 58.6129 11.2843 59.3563 11.1423L59.3564 11.1422L63.4489 10.3593C63.4554 10.3581 63.459 10.3583 63.4604 10.3584C63.462 10.3586 63.4631 10.3589 63.4642 10.3593C63.4667 10.3603 63.4711 10.363 63.4751 10.3683C63.4792 10.3736 63.4799 10.3775 63.4799 10.3781L63.4799 10.3784C63.4799 10.3784 63.4798 10.3789 63.4796 10.3798C63.4792 10.381 63.4784 10.383 63.477 10.3858L63.477 10.3859L51.8528 33.381L51.6573 33.6804L51.6573 33.6805C51.6534 33.6864 51.6504 33.6899 51.6487 33.6917C51.6482 33.6922 51.6479 33.6926 51.6475 33.6929C51.6474 33.6931 51.6472 33.6932 51.6471 33.6933C51.6442 33.6936 51.6363 33.6937 51.6251 33.6892C51.6172 33.686 51.6125 33.6824 51.61 33.6802C51.6102 33.6776 51.6106 33.6737 51.6117 33.6683L51.6117 33.6682L53.4889 24.6619C53.4889 24.6619 53.4889 24.6618 53.4889 24.6618C53.6486 23.8959 52.9249 23.2571 52.1894 23.4785L52.1893 23.4785Z" stroke="#D9D9DE"/>
</svg>
